<svg width="24" height="24" viewBox="0 0 24 24" fill="none" xmlns="http://www.w3.org/2000/svg">
<g clip-path="url(#clip0_188_13)">
<path d="M23.676 7.882L12.426 0.132C12.17 -0.044 11.832 -0.044 11.575 0.132L0.325 7.882C0.121 8.022 0 8.253 0 8.5V23C0 23.552 0.448 24 1 24H3V12C3 11.448 3.448 11 4 11H20C20.552 11 21 11.448 21 12V24H23C23.552 24 24 23.552 24 23V8.5C24 8.253 23.879 8.022 23.676 7.882Z" fill="#1D2935"/>
<path d="M9.25 19V19.75C9.25 20.164 8.914 20.5 8.5 20.5C8.086 20.5 7.75 20.164 7.75 19.75V19H6C5.724 19 5.5 19.224 5.5 19.5V23.5C5.5 23.776 5.724 24 6 24H11C11.276 24 11.5 23.776 11.5 23.5V19.5C11.5 19.224 11.276 19 11 19H9.25Z" fill="#3DA96C"/>
<path d="M16.25 19V19.75C16.25 20.164 15.914 20.5 15.5 20.5C15.086 20.5 14.75 20.164 14.75 19.75V19H13C12.724 19 12.5 19.224 12.5 19.5V23.5C12.5 23.776 12.724 24 13 24H18C18.276 24 18.5 23.776 18.5 23.5V19.5C18.5 19.224 18.276 19 18 19H16.25Z" fill="#3DA96C"/>
<path d="M12.75 13V13.75C12.75 14.164 12.414 14.5 12 14.5C11.586 14.5 11.25 14.164 11.25 13.75V13H9.5C9.224 13 9 13.224 9 13.5V17.5C9 17.776 9.224 18 9.5 18H14.5C14.776 18 15 17.776 15 17.5V13.5C15 13.224 14.776 13 14.5 13H12.75Z" fill="#3DA96C"/>
</g>
<defs>
<clipPath id="clip0_188_13">
<rect width="24" height="24" fill="white"/>
</clipPath>
</defs>
</svg>
