<?xml version="1.0" encoding="utf-8"?>
<!-- Generator: Adobe Illustrator 24.3.0, SVG Export Plug-In . SVG Version: 6.00 Build 0)  -->
<svg version="1.1" id="Capa_1" xmlns="http://www.w3.org/2000/svg" xmlns:xlink="http://www.w3.org/1999/xlink" x="0px" y="0px"
	 viewBox="0 0 20 20" style="enable-background:new 0 0 20 20;" xml:space="preserve">
<style type="text/css">
	.st0{fill:#0C9447;}
</style>
<path class="st0" d="M10,0C4.5,0,0,4.5,0,10s4.5,10,10,10s10-4.5,10-10S15.5,0,10,0z M10,3c1.8,0,3.3,1.5,3.3,3.3
	c0,1.8-1.5,3.3-3.3,3.3S6.7,8.1,6.7,6.3c0,0,0,0,0,0C6.7,4.5,8.2,3,10,3z M10,17.4c-1.8,0-3.4-0.6-4.8-1.8c-0.3-0.3-0.5-0.7-0.5-1.1
	c0-1.8,1.5-3.3,3.3-3.3c0,0,0,0,0,0h3.8c1.8,0,3.3,1.5,3.3,3.3c0,0,0,0,0,0c0,0.4-0.2,0.8-0.5,1.1C13.4,16.8,11.8,17.4,10,17.4
	L10,17.4z"/>
</svg>
