<?xml version="1.0" encoding="utf-8"?>
<!-- Generator: Adobe Illustrator 24.3.0, SVG Export Plug-In . SVG Version: 6.00 Build 0)  -->
<svg version="1.1" id="Capa_1" xmlns="http://www.w3.org/2000/svg" xmlns:xlink="http://www.w3.org/1999/xlink" x="0px" y="0px"
	 viewBox="0 0 15 15" style="enable-background:new 0 0 15 15;" xml:space="preserve">
<style type="text/css">
	.st0{fill:#0C9447;}
</style>
<path class="st0" d="M7.5,0C3.4,0,0,3.4,0,7.5S3.4,15,7.5,15S15,11.6,15,7.5S11.6,0,7.5,0z M9.6,10.5c-0.3,0.4-0.8,0.7-1.2,0.8
	c-0.2,0-0.3,0.2-0.3,0.4c0,0,0,0,0,0c0,0.2,0,0.4,0,0.7c0,0.2-0.1,0.3-0.2,0.3c0,0,0,0-0.1,0H7.1c-0.2,0-0.3-0.1-0.3-0.2
	c0,0,0-0.1,0-0.1v-0.5c0-0.4,0-0.4-0.4-0.4C6,11.3,5.6,11.2,5.2,11c-0.3-0.1-0.3-0.2-0.3-0.6S5,10,5.1,9.7s0.1-0.3,0.2-0.3
	c0.1,0,0.2,0,0.2,0.1C6,9.8,6.4,9.9,6.9,10h0.2c0.2,0,0.5,0,0.7-0.1c0.4-0.1,0.6-0.5,0.4-0.9C8.2,8.8,8.1,8.7,8,8.6
	C7.8,8.5,7.7,8.4,7.5,8.3C7,8.1,6.5,7.9,6,7.6c-0.8-0.4-1.2-1.2-1.2-2c0-0.9,0.7-1.7,1.6-2c0.4-0.1,0.4-0.1,0.4-0.5
	c0-0.1,0-0.3,0-0.4c0-0.3,0.1-0.3,0.4-0.4h0.3c0.6,0,0.6,0,0.6,0.6c0,0.5,0,0.5,0.5,0.5c0.3,0.1,0.7,0.2,1,0.3
	c0.2,0,0.2,0.2,0.2,0.4c0,0,0,0,0,0C9.7,4.5,9.6,4.7,9.5,5S9.4,5.3,9.3,5.3c-0.1,0-0.1,0-0.2-0.1C8.7,5,8.2,4.9,7.7,4.9H7.6
	C7.4,4.9,7.3,4.9,7.2,5C6.8,5.1,6.7,5.4,6.7,5.7C6.8,5.9,6.9,6,7,6.1c0.2,0.2,0.4,0.3,0.7,0.4C8.1,6.6,8.5,6.8,8.9,7
	c1.1,0.6,1.6,1.9,1,3C9.9,10.2,9.8,10.3,9.6,10.5z"/>
</svg>
