<?xml version="1.0" encoding="utf-8"?>
<!-- Generator: Adobe Illustrator 24.3.0, SVG Export Plug-In . SVG Version: 6.00 Build 0)  -->
<svg version="1.1" id="Layer_3" xmlns="http://www.w3.org/2000/svg" xmlns:xlink="http://www.w3.org/1999/xlink" x="0px" y="0px"
	 viewBox="0 0 20 20" style="enable-background:new 0 0 20 20;" xml:space="preserve">
<style type="text/css">
	.st0{fill:#0C9447;}
</style>
<path class="st0" d="M19.9,8.6C19.1,3.2,14-0.6,8.6,0.2S-0.7,6,0.1,11.5c0.6,4.4,4.1,7.9,8.6,8.5C9.1,20,9.6,20,10,20
	c1.8,0,3.6-0.5,5.1-1.4c0.4-0.3,0.6-0.9,0.3-1.3c-0.3-0.4-0.9-0.6-1.3-0.3c-3.8,2.3-8.8,1-11-2.8s-1-8.8,2.8-11s8.8-1,11,2.8
	c0.9,1.6,1.3,3.4,1.1,5.2c-0.1,0.5-0.2,1.1-0.4,1.6c-0.2,0.6-0.7,0.9-1.3,0.9c-0.8,0-1.4-0.6-1.4-1.4v-6c-0.1-0.5-0.7-0.8-1.2-0.7
	c-0.3,0.1-0.6,0.4-0.7,0.7l0,0C10.8,4.6,7.7,5,6.1,7.1s-1.2,5.2,0.9,6.8c1.9,1.4,4.5,1.3,6.2-0.3c0.8,1.7,2.8,2.4,4.5,1.6
	c0.8-0.4,1.4-1.1,1.7-1.9C20,11.8,20.1,10.2,19.9,8.6L19.9,8.6z M10,13c-1.6,0-2.9-1.3-2.9-2.9S8.4,7.2,10,7.2
	c1.6,0,2.9,1.3,2.9,2.9C12.9,11.6,11.6,12.9,10,13C10,13,10,13,10,13z"/>
</svg>
