<?xml version="1.0" encoding="utf-8"?>
<!-- Generator: Adobe Illustrator 24.3.0, SVG Export Plug-In . SVG Version: 6.00 Build 0)  -->
<svg version="1.1" id="Layer_1" xmlns="http://www.w3.org/2000/svg" xmlns:xlink="http://www.w3.org/1999/xlink" x="0px" y="0px"
	 viewBox="0 0 13 14" style="enable-background:new 0 0 13 14;" xml:space="preserve">
<style type="text/css">
	.st0{fill:#0C9447;}
</style>
<path class="st0" d="M12.9,5.4c-0.1-0.3-0.4-0.6-0.7-0.6L8.8,4.3L7.3,1.3C7,0.7,6,0.7,5.7,1.3L4.2,4.3L0.8,4.8
	C0.4,4.9,0.1,5.1,0,5.4c-0.1,0.3,0,0.7,0.2,0.9l2.5,2.4l-0.6,3.4c-0.1,0.3,0.1,0.7,0.4,0.9c0.3,0.2,0.6,0.2,0.9,0.1l3-1.6l3,1.6
	c0.1,0.1,0.3,0.1,0.4,0.1c0.2,0,0.4-0.1,0.5-0.2c0.3-0.2,0.4-0.5,0.4-0.9l-0.6-3.4l2.5-2.4C12.9,6.1,13,5.8,12.9,5.4z"/>
</svg>
