<svg width="22" height="20" viewBox="0 0 22 20" fill="none" xmlns="http://www.w3.org/2000/svg">
<path d="M21.4963 6.94754C21.4883 6.89053 21.4672 6.83615 21.4346 6.78865C21.4021 6.74116 21.359 6.70184 21.3088 6.67379C21.31 6.67257 19.6263 5.68173 19.625 5.67627V6.54627L20.39 7.00004C18.875 7.89507 12.6338 11.5987 11 12.565C9.3347 11.5791 3.16331 7.91896 1.61 7.00004L2.375 6.54629V5.6763L0.725 6.65504L0.70625 6.66254C0.645183 6.69564 0.593945 6.74428 0.557726 6.80355C0.521507 6.86282 0.501593 6.9306 0.5 7.00004V19C0.500297 19.0994 0.539901 19.1946 0.610163 19.2649C0.680425 19.3351 0.775635 19.3747 0.875 19.375H21.125C21.2244 19.3747 21.3196 19.3351 21.3898 19.2649C21.4601 19.1946 21.4997 19.0994 21.5 19C21.4874 18.9384 21.5136 7.00152 21.4963 6.94754Z" fill="#1D2935"/>
<path d="M4.2575 7.6975L11 11.695C11.3985 11.4631 18.3197 7.35304 18.4925 7.25125L18.875 7.02625V1C18.8747 0.900635 18.8351 0.805425 18.7648 0.735163C18.6946 0.664901 18.5994 0.625297 18.5 0.625H3.5C3.40064 0.625297 3.30542 0.664901 3.23516 0.735163C3.1649 0.805425 3.1253 0.900635 3.125 1V7.02625C3.35927 7.15967 4.01434 7.55477 4.2575 7.6975ZM11.8438 5.875H10.1562C9.83321 5.87437 9.52358 5.74576 9.29516 5.51734C9.06673 5.28892 8.93813 4.97929 8.9375 4.65625V4.09375C8.93813 3.77071 9.06673 3.46108 9.29515 3.23265C9.52358 3.00423 9.83321 2.87563 10.1562 2.875H10.625V2.54875C10.625 2.44929 10.6645 2.35391 10.7348 2.28358C10.8052 2.21326 10.9005 2.17375 11 2.17375C11.0995 2.17375 11.1948 2.21326 11.2652 2.28358C11.3355 2.35391 11.375 2.44929 11.375 2.54875V2.875H11.8438C12.1668 2.87563 12.4764 3.00423 12.7048 3.23265C12.9333 3.46108 13.0619 3.77071 13.0625 4.09375C13.0606 4.19194 13.0202 4.28546 12.9501 4.35422C12.88 4.42299 12.7857 4.4615 12.6875 4.4615C12.5893 4.4615 12.495 4.42297 12.4249 4.35421C12.3548 4.28544 12.3144 4.19192 12.3125 4.09373C12.3125 3.96942 12.263 3.85023 12.1751 3.76233C12.0873 3.67444 11.9681 3.62504 11.8438 3.625H10.1562C10.0319 3.62505 9.91274 3.67445 9.82484 3.76234C9.73695 3.85024 9.68755 3.96944 9.6875 4.09375V4.65625C9.68755 4.78056 9.73695 4.89976 9.82484 4.98766C9.91274 5.07555 10.0319 5.12495 10.1562 5.125H11.8438C12.1668 5.12563 12.4764 5.25423 12.7048 5.48265C12.9333 5.71108 13.0619 6.02071 13.0625 6.34375V6.90625C13.0619 7.22929 12.9333 7.53892 12.7048 7.76734C12.4764 7.99576 12.1668 8.12437 11.8438 8.125H11.375V8.45125C11.3732 8.54951 11.3329 8.64313 11.2627 8.71197C11.1926 8.78082 11.0983 8.81939 11 8.81939C10.9017 8.81938 10.8074 8.78081 10.7372 8.71196C10.6671 8.64311 10.6268 8.54948 10.625 8.45122V8.125H10.1562C9.83321 8.12437 9.52358 7.99576 9.29516 7.76734C9.06673 7.53892 8.93813 7.22929 8.9375 6.90625C8.93942 6.80806 8.97977 6.71454 9.04989 6.64578C9.12001 6.57701 9.2143 6.5385 9.31251 6.5385C9.41072 6.5385 9.50501 6.57702 9.57513 6.64579C9.64524 6.71456 9.68559 6.80808 9.6875 6.90627C9.68755 7.03057 9.73695 7.14977 9.82485 7.23767C9.91275 7.32556 10.0319 7.37496 10.1562 7.375H11.8438C11.9681 7.37495 12.0873 7.32555 12.1752 7.23766C12.2631 7.14976 12.3125 7.03056 12.3125 6.90625V6.34375C12.3125 6.21944 12.2631 6.10024 12.1752 6.01234C12.0873 5.92445 11.9681 5.87505 11.8438 5.875Z" fill="#3DA96C"/>
</svg>
