<svg width="20" height="20" viewBox="0 0 20 20" fill="none" xmlns="http://www.w3.org/2000/svg">
<path d="M7 0.25H2.5C1.25736 0.25 0.25 1.25736 0.25 2.5V7C0.25 8.24264 1.25736 9.25 2.5 9.25H7C8.24264 9.25 9.25 8.24264 9.25 7V2.5C9.25 1.25736 8.24264 0.25 7 0.25Z" fill="#1D2935"/>
<path d="M17.5 0.25H13C11.7574 0.25 10.75 1.25736 10.75 2.5V7C10.75 8.24264 11.7574 9.25 13 9.25H17.5C18.7426 9.25 19.75 8.24264 19.75 7V2.5C19.75 1.25736 18.7426 0.25 17.5 0.25Z" fill="#1D2935"/>
<path d="M7 10.75H2.5C1.25736 10.75 0.25 11.7574 0.25 13V17.5C0.25 18.7426 1.25736 19.75 2.5 19.75H7C8.24264 19.75 9.25 18.7426 9.25 17.5V13C9.25 11.7574 8.24264 10.75 7 10.75Z" fill="#1D2935"/>
<path d="M15.25 19.75C17.7353 19.75 19.75 17.7353 19.75 15.25C19.75 12.7647 17.7353 10.75 15.25 10.75C12.7647 10.75 10.75 12.7647 10.75 15.25C10.75 17.7353 12.7647 19.75 15.25 19.75Z" fill="#3DA96C"/>
</svg>
