<svg width="22" height="22" viewBox="0 0 22 22" fill="none" xmlns="http://www.w3.org/2000/svg">
<path d="M9.49997 6.00001H12.5C12.7765 6.00001 13 5.776 13 5.5V3.5H13.5C13.9315 3.5145 14.17 2.9415 13.8535 2.6465L11.3535 0.146503C11.158 -0.0489971 10.842 -0.0489971 10.6465 0.146503L8.14646 2.6465C7.83146 2.942 8.06746 3.5145 8.49996 3.5H8.99996V5.5C8.99996 5.776 9.22346 6.00001 9.49997 6.00001Z" fill="#3DA96C"/>
<path d="M2.066 7.25201L0.0660021 10.752C-0.0224979 10.907 -0.0219979 11.097 0.0675021 11.251C0.157002 11.405 0.322002 11.5 0.500002 11.5H11.5C11.679 11.5 11.845 11.404 11.934 11.248L13 9.38251V7.00001H2.5C2.321 7.00001 2.155 7.09601 2.066 7.25201Z" fill="#1D2935"/>
<path d="M19.934 7.25201C19.845 7.09601 19.679 7.00001 19.5 7.00001H14V9.38251L15.066 11.248C15.155 11.404 15.321 11.5 15.5 11.5H21.5C21.8715 11.511 22.1295 11.0695 21.934 10.752L19.934 7.25201Z" fill="#1D2935"/>
<path d="M20 21.5V12.5H15.5C14.9625 12.5 14.4635 12.21 14.1975 11.744L14 11.398V22H19.5C19.7765 22 20 21.776 20 21.5Z" fill="#1D2935"/>
<path d="M13 11.3985C12.7245 12.002 12.203 12.5185 11.5 12.5H2V21.5C2 21.776 2.2235 22 2.5 22H13V11.3985Z" fill="#1D2935"/>
</svg>
