<svg width="40" height="40" viewBox="0 0 40 40" fill="none" xmlns="http://www.w3.org/2000/svg">
<circle cx="20" cy="20" r="20" fill="#E9EAEB"/>
<g clip-path="url(#clip0_131_2815)">
<path d="M15.76 20.085C19.095 20.085 21.8 17.38 21.8 14.045C21.8 10.71 19.095 8 15.76 8C12.425 8 9.71997 10.705 9.71997 14.04C9.71997 17.375 12.425 20.085 15.76 20.085ZM13.65 16.43C13.705 16.23 13.76 16.035 13.82 15.835C13.89 15.605 13.955 15.58 14.165 15.69C14.525 15.875 14.905 15.98 15.305 16.03C15.56 16.06 15.815 16.035 16.05 15.93C16.495 15.735 16.565 15.22 16.19 14.91C16.06 14.805 15.915 14.725 15.765 14.66C15.375 14.49 14.97 14.36 14.6 14.14C14.005 13.785 13.625 13.29 13.67 12.565C13.72 11.745 14.185 11.23 14.935 10.96C15.245 10.845 15.245 10.85 15.25 10.525C15.25 10.415 15.25 10.305 15.25 10.195C15.255 9.95 15.3 9.91 15.54 9.9C15.615 9.9 15.69 9.9 15.765 9.9C16.285 9.9 16.285 9.9 16.285 10.42C16.285 10.785 16.285 10.79 16.65 10.845C16.93 10.89 17.195 10.97 17.455 11.085C17.6 11.15 17.65 11.25 17.61 11.4C17.545 11.625 17.485 11.85 17.41 12.07C17.34 12.28 17.275 12.31 17.075 12.215C16.67 12.02 16.245 11.935 15.795 11.96C15.675 11.965 15.565 11.98 15.455 12.03C15.07 12.2 15.005 12.625 15.335 12.89C15.5 13.025 15.69 13.12 15.89 13.2C16.23 13.34 16.575 13.48 16.905 13.66C17.94 14.235 18.22 15.535 17.49 16.42C17.225 16.74 16.885 16.955 16.48 17.065C16.305 17.115 16.225 17.205 16.235 17.385C16.245 17.565 16.235 17.74 16.235 17.92C16.235 18.08 16.155 18.165 15.995 18.17C15.805 18.175 15.61 18.175 15.42 18.17C15.25 18.165 15.17 18.07 15.17 17.905C15.17 17.775 15.17 17.645 15.165 17.515C15.16 17.23 15.155 17.215 14.875 17.17C14.52 17.115 14.175 17.035 13.85 16.875C13.605 16.76 13.58 16.695 13.65 16.43Z" fill="#3DA96C"/>
<path d="M29.3101 20.59H28.6051C28.1401 19.165 27.2301 17.9 26.0151 16.92C26.0151 16.875 26.0051 16.825 25.9951 16.78C25.7401 15.885 26.0551 15.07 26.4201 14.485C26.6751 14.075 26.3451 13.55 25.8651 13.61C24.7901 13.745 24.0501 14.14 23.5401 14.585C23.1901 14.89 22.9401 15.3 22.8301 15.755C22.0601 18.945 19.1851 21.32 15.7601 21.32C14.0951 21.32 12.5651 20.76 11.3401 19.82C10.9151 20.74 10.6851 21.745 10.6851 22.8C10.6851 23.37 10.7551 23.925 10.8851 24.46C10.8851 24.46 10.8851 24.47 10.8901 24.485C11.0251 25.04 11.2301 25.575 11.4901 26.08C11.8351 26.825 12.3351 27.695 13.0251 28.4C14.0201 29.425 14.1901 30.695 14.2151 31.245V31.48C14.2151 31.49 14.2151 31.5 14.2151 31.51C14.2151 31.515 14.2151 31.515 14.2151 31.515C14.2351 31.785 14.4601 32 14.7351 32H17.8951C18.1801 32 18.4151 31.77 18.4151 31.48V30.7C18.8751 30.76 19.3451 30.795 19.8201 30.795C20.1951 30.795 20.5601 30.775 20.9251 30.735V31.48C20.9251 31.765 21.1551 32 21.4451 32H24.6151C24.9001 32 25.1351 31.77 25.1351 31.48V30.7C25.1401 30.44 25.2301 29.405 26.2101 28.52C26.2451 28.49 26.2801 28.46 26.3151 28.43C26.3251 28.42 26.3351 28.415 26.3451 28.405C27.4351 27.435 28.2401 26.225 28.6551 24.875H29.3201C29.8501 24.875 30.2801 24.445 30.2801 23.915V21.55C30.2701 21.02 29.8401 20.59 29.3101 20.59ZM25.3551 20.76C24.9201 20.76 24.5701 20.41 24.5701 19.975C24.5701 19.54 24.9201 19.19 25.3551 19.19C25.7901 19.19 26.1401 19.54 26.1401 19.975C26.1401 20.41 25.7901 20.76 25.3551 20.76Z" fill="#1D2935"/>
</g>
<defs>
<clipPath id="clip0_131_2815">
<rect width="24" height="24" fill="white" transform="translate(8 8)"/>
</clipPath>
</defs>
</svg>
