<svg width="100" height="100" viewBox="0 0 100 100" fill="none" xmlns="http://www.w3.org/2000/svg">
<path d="M72.0703 0H59.2773L50 1.95312L40.7227 0H27.9297C26.3117 0 25 1.31172 25 2.92969V50C25 51.618 26.3117 52.9297 27.9297 52.9297H72.0703C73.6883 52.9297 75 51.618 75 50V2.92969C75 1.31172 73.6883 0 72.0703 0Z" fill="#1D2935"/>
<path d="M72.0703 0H59.2773L50 1.95312V52.9297H72.0703C73.6883 52.9297 75 51.618 75 50V2.92969C75 1.31172 73.6883 0 72.0703 0Z" fill="#1D2935"/>
<path d="M65.4297 41.2109H59.5703C57.9523 41.2109 56.6406 39.8992 56.6406 38.2812C56.6406 36.6633 57.9523 35.3516 59.5703 35.3516H65.4297C67.0477 35.3516 68.3594 36.6633 68.3594 38.2812C68.3594 39.8992 67.0477 41.2109 65.4297 41.2109Z" fill="white"/>
<path d="M40.7227 0V20.5078C40.7227 22.1258 42.0344 23.4375 43.6523 23.4375H56.3477C57.9656 23.4375 59.2773 22.1258 59.2773 20.5078V0H40.7227Z" fill="#0C9447"/>
<path d="M50 0V23.4375H56.3477C57.9656 23.4375 59.2773 22.1258 59.2773 20.5078V0H50Z" fill="#0C9447"/>
<path d="M97.0703 47.0703H84.2771L75.1629 49.0234L65.7227 47.0703H50C48.382 47.0703 47.0703 48.382 47.0703 50V97.0703C47.0703 98.6883 48.382 100 50 100H97.0703C98.6883 100 100 98.6883 100 97.0703V50C100 48.382 98.6883 47.0703 97.0703 47.0703Z" fill="#1D2935"/>
<path d="M90.4297 92.1875H84.5703C82.9523 92.1875 81.6406 90.8758 81.6406 89.2578C81.6406 87.6398 82.9523 86.3281 84.5703 86.3281H90.4297C92.0477 86.3281 93.3594 87.6398 93.3594 89.2578C93.3594 90.8758 92.0477 92.1875 90.4297 92.1875Z" fill="white"/>
<path d="M65.7227 47.0703V67.5781C65.7227 69.1961 67.0344 70.5078 68.6523 70.5078H81.3477C82.9656 70.5078 84.2773 69.1961 84.2773 67.5781V47.0703H65.7227Z" fill="#0C9447"/>
<path d="M50 47.0703H34.2773L25.0977 49.0234L15.7227 47.0703H2.92969C1.31172 47.0703 0 48.382 0 50V97.0703C0 98.6883 1.31172 100 2.92969 100H50V47.0703Z" fill="#1D2935"/>
<path d="M40.4297 92.1875H34.5703C32.9523 92.1875 31.6406 90.8758 31.6406 89.2578C31.6406 87.6398 32.9523 86.3281 34.5703 86.3281H40.4297C42.0477 86.3281 43.3594 87.6398 43.3594 89.2578C43.3594 90.8758 42.0477 92.1875 40.4297 92.1875Z" fill="white"/>
<path d="M15.7227 47.0703V67.5781C15.7227 69.1961 17.0344 70.5078 18.6523 70.5078H31.3477C32.9656 70.5078 34.2773 69.1961 34.2773 67.5781V47.0703H15.7227Z" fill="#0C9447"/>
</svg>
