<svg width="100" height="100" viewBox="0 0 100 100" fill="none" xmlns="http://www.w3.org/2000/svg">
<g clip-path="url(#clip0_20_315)">
<path d="M89.7442 52.0759C88.5853 52.0759 87.4897 51.3862 87.0289 50.2448C86.4224 48.7457 87.1464 47.0374 88.6456 46.4317C91.9842 45.0782 94.141 41.88 94.141 38.2781C94.141 36.6592 95.451 35.3484 97.0707 35.3484C98.6897 35.3484 99.9996 36.6592 99.9996 38.2781C99.9996 44.2771 96.407 49.6101 90.8421 51.8615C90.482 52.0072 90.1097 52.0759 89.7442 52.0759Z" fill="#1D2935"/>
<path d="M94.1411 58.7845C94.1411 71.4395 87.2662 83.3727 76.3691 89.6418V97.2582C76.3691 98.8986 75.0797 100.188 73.4394 100.188H61.7213C60.9599 100.188 60.1978 99.895 59.6713 99.309L54.6321 94.3293H45.3753L40.336 99.309C39.8089 99.895 39.0474 100.188 38.286 100.188H26.568C24.9269 100.188 23.6383 98.8986 23.6383 97.2582V89.6418C18.3068 86.5366 13.659 81.6927 10.553 76.3612H2.93657C1.29625 76.3612 0.00687097 75.0726 0.00687097 73.4323V55.8548C0.00687097 54.2145 1.29625 52.9259 2.93657 52.9259H6.33472C7.03816 48.7656 8.50301 44.7227 10.6705 41.0904L1.29624 34.88C0.592811 34.352 0.124364 33.5906 0.00763393 32.7117C-0.0511127 31.8328 0.241857 30.9539 0.886544 30.3679C8.09254 23.1619 19.1857 21.5216 28.0916 26.1496C29.7319 25.5057 31.3722 24.9778 33.0713 24.5681H66.9368C82.8137 28.3179 94.1411 42.4377 94.1411 58.7845Z" fill="#1D2935"/>
<path d="M94.1411 58.7845C94.1411 71.4395 87.2662 83.3727 76.3691 89.6418V97.2582C76.3691 98.8985 75.0797 100.188 73.4394 100.188H61.7213C60.9599 100.188 60.1977 99.8949 59.6713 99.309L54.6321 94.3293H50.0033V24.5681H66.9361C82.8137 28.3179 94.1411 42.4377 94.1411 58.7845Z" fill="#1D2935"/>
<path d="M50.0033 0.195068C38.6957 0.195068 29.4969 9.39311 29.4969 20.7015C29.4969 32.009 38.6957 41.2078 50.0033 41.2078C61.3117 41.2078 70.5097 32.009 70.5097 20.7015C70.5097 9.39311 61.3109 0.195068 50.0033 0.195068Z" fill="white"/>
<path d="M70.5097 20.7015C70.5097 32.009 61.3116 41.2078 50.0033 41.2078V0.195068C61.3109 0.195068 70.5097 9.39311 70.5097 20.7015Z" fill="white"/>
<path d="M50.0032 6.05371C41.9184 6.05371 35.3563 12.6158 35.3563 20.7014C35.3563 28.7863 41.9184 35.3483 50.0032 35.3483C58.0889 35.3483 64.6509 28.7863 64.6509 20.7014C64.6509 12.6158 58.0889 6.05371 50.0032 6.05371Z" fill="#0C9447"/>
<path d="M64.651 20.7014C64.651 28.7863 58.0889 35.3483 50.0033 35.3483V6.05371C58.0889 6.05371 64.651 12.6158 64.651 20.7014Z" fill="#0C9447"/>
<path d="M29.4969 55.8548C29.4969 57.473 28.1854 58.7845 26.568 58.7845C24.9498 58.7845 23.6383 57.473 23.6383 55.8548C23.6383 54.2374 24.9498 52.9259 26.568 52.9259C28.1854 52.9259 29.4969 54.2374 29.4969 55.8548Z" fill="white"/>
<path d="M58.7916 20.7014C58.7916 22.3417 57.503 23.6303 55.8627 23.6303H50.0033C48.363 23.6303 47.0744 22.3417 47.0744 20.7014V14.842C47.0744 13.2017 48.363 11.9131 50.0033 11.9131C51.6444 11.9131 52.933 13.2017 52.933 14.842V17.7717H55.8627C57.503 17.7717 58.7916 19.0603 58.7916 20.7014Z" fill="white"/>
<path d="M58.7916 20.7014C58.7916 22.3417 57.503 23.6303 55.8627 23.6303H50.0033V11.9131C51.6444 11.9131 52.933 13.2017 52.933 14.842V17.7717H55.8627C57.503 17.7717 58.7916 19.0603 58.7916 20.7014Z" fill="white"/>
<path d="M70.5097 38.2781C70.5097 39.9185 69.2211 41.2078 67.5808 41.2078H32.4266C30.7855 41.2078 29.4969 39.9185 29.4969 38.2781C29.4969 36.6371 30.7855 35.3484 32.4266 35.3484H67.5808C69.2211 35.3484 70.5097 36.6371 70.5097 38.2781Z" fill="white"/>
<path d="M70.5096 38.2781C70.5096 39.9184 69.221 41.2078 67.5807 41.2078H50.0033V35.3484H67.5807C69.221 35.3484 70.5096 36.637 70.5096 38.2781Z" fill="white"/>
</g>
<defs>
<clipPath id="clip0_20_315">
<rect width="100" height="100" fill="white"/>
</clipPath>
</defs>
</svg>
