<svg width="18" height="18" viewBox="0 0 18 18" fill="none" xmlns="http://www.w3.org/2000/svg">
<path fill-rule="evenodd" clip-rule="evenodd" d="M4.91347 0C4.806 0 4.71887 0.0871202 4.71887 0.19459V8.36761C4.71887 8.47501 4.806 8.56221 4.91347 8.56221H13.0864C13.1939 8.56221 13.281 8.47501 13.281 8.36761V0.19459C13.281 0.0871202 13.1939 0 13.0864 0H4.91347ZM10.4107 6.42163C10.5182 6.42163 10.6053 6.33451 10.6053 6.22704V5.54595C10.6053 5.43847 10.5182 5.35135 10.4107 5.35135H7.58915C7.48165 5.35135 7.39455 5.43847 7.39455 5.54595V6.22704C7.39455 6.33451 7.48165 6.42163 7.58915 6.42163H10.4107Z" fill="#3DA96C"/>
<path fill-rule="evenodd" clip-rule="evenodd" d="M9.63234 9.43779C9.52494 9.43779 9.43774 9.52499 9.43774 9.63239V17.8054C9.43774 17.9129 9.52494 18 9.63234 18H17.8054C17.9129 18 18 17.9129 18 17.8054V9.63239C18 9.52499 17.9129 9.43779 17.8054 9.43779H9.63234ZM15.1297 15.8595C15.2372 15.8595 15.3243 15.7724 15.3243 15.6649V14.9838C15.3243 14.8763 15.2372 14.7892 15.1297 14.7892H12.308C12.2005 14.7892 12.1134 14.8763 12.1134 14.9838V15.6649C12.1134 15.7724 12.2005 15.8595 12.308 15.8595H15.1297Z" fill="#1D2935"/>
<path fill-rule="evenodd" clip-rule="evenodd" d="M0.19459 9.43779C0.0871202 9.43779 0 9.52499 0 9.63239V17.8054C0 17.9129 0.0871202 18 0.19459 18H8.36761C8.47501 18 8.56221 17.9129 8.56221 17.8054V9.63239C8.56221 9.52499 8.47501 9.43779 8.36761 9.43779H0.19459ZM5.69189 15.8595C5.79937 15.8595 5.88649 15.7724 5.88649 15.6649V14.9838C5.88649 14.8763 5.79937 14.7892 5.69189 14.7892H2.87027C2.7628 14.7892 2.67568 14.8763 2.67568 14.9838V15.6649C2.67568 15.7724 2.7628 15.8595 2.87027 15.8595H5.69189Z" fill="#1D2935"/>
</svg>
