<svg width="13" height="15" viewBox="0 0 13 15" fill="none" xmlns="http://www.w3.org/2000/svg">
<path d="M6.875 14.75C7.83203 14.75 8.59766 13.9844 8.59766 13H5.125C5.125 13.9844 5.89062 14.75 6.875 14.75ZM12.7539 10.6758C12.2344 10.1016 11.2227 9.25391 11.2227 6.4375C11.2227 4.33203 9.74609 2.63672 7.72266 2.19922V1.625C7.72266 1.16016 7.33984 0.75 6.875 0.75C6.38281 0.75 6 1.16016 6 1.625V2.19922C3.97656 2.63672 2.5 4.33203 2.5 6.4375C2.5 9.25391 1.48828 10.1016 0.96875 10.6758C0.804688 10.8398 0.722656 11.0586 0.75 11.25C0.75 11.7148 1.07812 12.125 1.625 12.125H12.0977C12.6445 12.125 12.9727 11.7148 13 11.25C13 11.0586 12.918 10.8398 12.7539 10.6758Z" fill="#5689EC"/>
</svg>
