<svg width="24" height="24" viewBox="0 0 24 24" fill="none" xmlns="http://www.w3.org/2000/svg">
<path d="M12.7031 9.44531V11.7372C14.0391 10.604 15.7668 9.91901 17.6517 9.91901C20.2905 9.91901 22.6218 11.2603 24 13.2968V5.34357L12.7031 9.44531Z" fill="#1D2935"/>
<path d="M0 19.5134L11.2969 23.5823V21.8511C10.4733 20.6299 9.99188 19.1596 9.99188 17.579C9.99188 15.9985 10.4733 14.5281 11.2969 13.3068V9.44531L0 5.34357V19.5134Z" fill="#1D2935"/>
<path d="M23.279 4.10925L12.0001 0.046875L7.5625 1.6452L18.8096 5.73193L23.279 4.10925Z" fill="#1D2935"/>
<path d="M16.7499 6.47974L5.49445 2.38989L0.721069 4.10925L12 8.20422L16.7499 6.47974Z" fill="#1D2935"/>
<path d="M17.6518 11.2315C14.1519 11.2315 11.3044 14.079 11.3044 17.579C11.3044 21.0789 14.1519 23.9264 17.6518 23.9264C21.1519 23.9264 23.9993 21.0789 23.9993 17.579C23.9993 14.079 21.1519 11.2315 17.6518 11.2315ZM18.5062 20.1903L17.5117 19.1959L18.3646 18.343H14.2142V16.9367H18.3646L17.5326 16.1047L18.5269 15.1102L21.0565 17.6398L18.5062 20.1903Z" fill="#3DA96C"/>
</svg>
