<?xml version="1.0" encoding="utf-8"?>
<!-- Generator: Adobe Illustrator 24.3.0, SVG Export Plug-In . SVG Version: 6.00 Build 0)  -->
<svg version="1.1" id="Layer_1" xmlns="http://www.w3.org/2000/svg" xmlns:xlink="http://www.w3.org/1999/xlink" x="0px" y="0px"
	 viewBox="0 0 20 29.1" style="enable-background:new 0 0 20 29.1;" xml:space="preserve">
<style type="text/css">
	.st0{fill:#0C9447;}
</style>
<path class="st0" d="M18.6,5c-1.7-3-4.9-4.9-8.4-5H9.8C6.3,0.1,3.1,2,1.4,5c-1.8,3.1-1.9,6.9-0.1,10l7.2,13.2l0,0
	C9,29,10,29.3,10.9,28.8c0.3-0.2,0.5-0.4,0.6-0.6l0,0L18.7,15C20.5,11.9,20.4,8.1,18.6,5z M10,13.2c-2.3,0-4.1-1.8-4.1-4.1
	S7.7,5,10,5s4.1,1.8,4.1,4.1l0,0C14.1,11.3,12.3,13.2,10,13.2z"/>
</svg>
