<svg width="46" height="60" viewBox="0 0 46 60" fill="none" xmlns="http://www.w3.org/2000/svg">
<path d="M8.36805 0H28.4436L45.4374 17.7299V52.1947C45.4374 56.5059 41.9432 60 37.6321 60H8.36805C4.0569 60 0.562744 56.5058 0.562744 52.1947V7.80531C0.562744 3.49423 4.0569 0 8.36805 0V0Z" fill="#5689EC"/>
<path opacity="0.302" fill-rule="evenodd" clip-rule="evenodd" d="M28.4194 0V17.5842H45.4375L28.4194 0Z" fill="white"/>
<path d="M7.81006 42.8121V32.8795H11.3285C12.0322 32.8795 12.6874 32.9846 13.2941 33.1788C13.9007 33.381 14.4507 33.6722 14.9441 34.0605C15.4375 34.4487 15.8258 34.9664 16.1089 35.6134C16.392 36.2605 16.5376 37.0046 16.5376 37.8458C16.5376 38.687 16.392 39.4311 16.1089 40.0782C15.8258 40.7252 15.4375 41.2429 14.9441 41.6311C14.4508 42.0194 13.9007 42.3105 13.2941 42.5128C12.6874 42.707 12.0323 42.8121 11.3285 42.8121H7.81006ZM10.2932 40.6525H11.0292C11.4256 40.6525 11.7977 40.604 12.1292 40.515C12.469 40.418 12.7763 40.2643 13.0675 40.062C13.3587 39.8598 13.5851 39.5687 13.7469 39.1885C13.9168 38.8164 13.9976 38.3634 13.9976 37.8458C13.9976 37.3282 13.9167 36.8752 13.7469 36.495C13.5851 36.1229 13.3587 35.8318 13.0675 35.6296C12.7763 35.4193 12.469 35.2737 12.1292 35.1766C11.7977 35.0876 11.4256 35.0391 11.0292 35.0391H10.2932V40.6525ZM22.5634 42.9254C21.0671 42.9254 19.8296 42.44 18.8509 41.4775C17.8721 40.515 17.3868 39.3017 17.3868 37.8459C17.3868 36.3899 17.8721 35.1767 18.8509 34.2142C19.8296 33.2516 21.0671 32.7664 22.5634 32.7664C24.0355 32.7664 25.2569 33.2517 26.2356 34.2142C27.2062 35.1768 27.6915 36.39 27.6915 37.8459C27.6915 39.3017 27.2062 40.5151 26.2356 41.4775C25.2569 42.44 24.0355 42.9254 22.5634 42.9254ZM20.6545 39.9407C21.1479 40.4907 21.7788 40.7658 22.5472 40.7658C23.3156 40.7658 23.9384 40.4907 24.4318 39.9407C24.9252 39.3826 25.1679 38.687 25.1679 37.8458C25.1679 37.0046 24.9252 36.309 24.4318 35.7509C23.9384 35.2009 23.3156 34.9258 22.5472 34.9258C21.7788 34.9258 21.1479 35.2009 20.6545 35.7509C20.1611 36.309 19.9104 37.0046 19.9104 37.8458C19.9104 38.687 20.1611 39.3826 20.6545 39.9407ZM33.596 42.9254C32.1482 42.9254 30.943 42.4724 29.9886 41.5827C29.026 40.6849 28.5489 39.4392 28.5489 37.8458C28.5489 36.2605 29.0342 35.0148 30.0048 34.117C30.9835 33.2192 32.1725 32.7662 33.5961 32.7662C34.8821 32.7662 35.9336 33.0817 36.7668 33.7207C37.5918 34.3516 38.069 35.1928 38.1903 36.2442L35.6829 36.7538C35.5778 36.2038 35.327 35.759 34.9388 35.4273C34.5505 35.0956 34.0976 34.9258 33.5799 34.9258C32.8681 34.9258 32.2776 35.1766 31.8004 35.6861C31.3232 36.2038 31.0805 36.9155 31.0805 37.8457C31.0805 38.7759 31.3232 39.4877 31.7923 39.9973C32.2695 40.5149 32.86 40.7657 33.5798 40.7657C34.0974 40.7657 34.5424 40.6201 34.9063 40.329C35.2703 40.0378 35.4968 39.6495 35.5938 39.1642L38.1579 39.7466C37.9233 40.7495 37.4056 41.5261 36.5968 42.0841C35.7961 42.6423 34.7931 42.9254 33.596 42.9254V42.9254Z" fill="white"/>
</svg>
