<svg width="24" height="24" viewBox="0 0 24 24" fill="none" xmlns="http://www.w3.org/2000/svg">
<path d="M15.2016 16.196C14.3136 16.8746 13.2039 17.278 12 17.278C10.796 17.278 9.68634 16.8746 8.7983 16.1959L4.02661 20.9676C6.22556 22.9278 9.03014 24 12 24C14.9698 24 17.7744 22.9278 19.9732 20.9676L15.2016 16.196Z" fill="#1D2935"/>
<path d="M20.9677 4.02661L16.196 8.7983C16.8747 9.68635 17.2782 10.796 17.2782 12C17.2782 13.2039 16.8747 14.3135 16.1961 15.2015L20.9678 19.9732C22.9279 17.7744 24.0001 14.9698 24.0001 12C24.0001 9.03014 22.9279 6.22556 20.9677 4.02661Z" fill="#3DA96C"/>
<path d="M12.0001 0C9.03039 0 6.22572 1.07217 4.02686 3.0323L8.79855 7.80398C9.68659 7.12538 10.7962 6.72197 12.0001 6.72197C13.204 6.72197 14.3136 7.12538 15.2017 7.80398L19.9734 3.0323C17.7745 1.07217 14.9699 0 12.0001 0Z" fill="#1D2935"/>
<path d="M7.80408 8.79834L3.03239 4.02666C1.07222 6.22552 0 9.03019 0 12C0 14.9698 1.07217 17.7744 3.0323 19.9732L7.80398 15.2016C7.12533 14.3135 6.72197 13.2039 6.72197 12C6.72197 10.796 7.12537 9.68639 7.80408 8.79834Z" fill="#1D2935"/>
</svg>
