<svg width="24" height="24" viewBox="0 0 24 24" fill="none" xmlns="http://www.w3.org/2000/svg">
<path fill-rule="evenodd" clip-rule="evenodd" d="M9.67454 8.40305C10.2044 7.87317 10.4334 7.0973 10.2499 6.34589L8.71834 7.87748C8.44379 8.15203 7.99862 8.15203 7.72407 7.87748L6.84147 6.99488C6.56692 6.72033 6.56692 6.27516 6.84147 6.00061C7.11601 5.72606 7.56118 5.72606 7.83573 6.00061L8.22118 6.38606L9.46595 5.1413C8.59984 4.47141 7.37012 4.55114 6.5964 5.32491C5.74651 6.1748 5.74651 7.55316 6.5964 8.40305C7.44634 9.25299 8.82461 9.25299 9.67454 8.40305Z" fill="#1D2935"/>
<path fill-rule="evenodd" clip-rule="evenodd" d="M16.9096 0H3.60938C1.74961 0 0.234375 1.51523 0.234375 3.375V23.2969C0.234375 23.6852 0.549234 24 0.9375 24H14.7698C15.1571 24 15.4729 23.6842 15.4729 23.2969C15.4726 16.6796 15.4688 10.0626 15.4688 3.44531C15.4688 2.14205 16.0005 0.903516 16.9096 0ZM3.04842 20.25C2.66114 20.25 2.3453 19.9342 2.3453 19.5469C2.3453 19.1596 2.66119 18.8438 3.04842 18.8438C3.43566 18.8438 3.75155 19.1596 3.75155 19.5469C3.75159 19.9341 3.4357 20.25 3.04842 20.25ZM3.04842 17.4375C2.66114 17.4375 2.3453 17.1216 2.3453 16.7344C2.3453 16.3471 2.66119 16.0312 3.04842 16.0312C3.43566 16.0312 3.75155 16.3471 3.75155 16.7344C3.75155 17.1217 3.4357 17.4375 3.04842 17.4375ZM3.04842 14.625C2.66114 14.625 2.3453 14.3091 2.3453 13.9219C2.3453 13.5346 2.66119 13.2188 3.04842 13.2188C3.43566 13.2188 3.75155 13.5346 3.75155 13.9219C3.75155 14.3092 3.4357 14.625 3.04842 14.625ZM5.60203 4.33064C6.92513 3.00755 9.04397 2.92467 10.465 4.14216L11.3479 3.25936C11.6224 2.98481 12.0676 2.98481 12.3421 3.25936C12.6167 3.53391 12.6167 3.97908 12.3421 4.25362L11.3384 5.25736C12.034 6.64125 11.7555 8.31056 10.6687 9.39736C9.26948 10.7966 7.00125 10.7966 5.60203 9.39736C4.20281 7.99814 4.20281 5.72986 5.60203 4.33064ZM12.6578 20.25H5.86092C5.47261 20.25 5.1578 19.9352 5.1578 19.5469C5.1578 19.1586 5.47261 18.8438 5.86092 18.8438H12.6578C13.0461 18.8438 13.3609 19.1586 13.3609 19.5469C13.3609 19.9352 13.0461 20.25 12.6578 20.25ZM12.6578 17.4375H5.86092C5.47261 17.4375 5.1578 17.1227 5.1578 16.7344C5.1578 16.3461 5.47261 16.0312 5.86092 16.0312H12.6578C13.0461 16.0312 13.3609 16.3461 13.3609 16.7344C13.3609 17.1227 13.0461 17.4375 12.6578 17.4375ZM12.6578 14.625H5.86092C5.47261 14.625 5.1578 14.3102 5.1578 13.9219C5.1578 13.5336 5.47261 13.2188 5.86092 13.2188H12.6578C13.0461 13.2188 13.3609 13.5336 13.3609 13.9219C13.3609 14.3102 13.0461 14.625 12.6578 14.625Z" fill="#1D2935"/>
<path fill-rule="evenodd" clip-rule="evenodd" d="M22.7541 1.01152C22.13 0.387422 21.2685 0 20.3203 0C19.3721 0 18.5106 0.387375 17.8865 1.01152C17.2624 1.63561 16.875 2.49712 16.875 3.44531V12.2812C16.875 12.6695 17.1898 12.9843 17.5781 12.9843H23.0625C23.4508 12.9843 23.7656 12.6695 23.7656 12.2812V3.44531C23.7656 2.49717 23.3782 1.63566 22.7541 1.01152Z" fill="#3DA96C"/>
</svg>
