<svg width="24" height="25" viewBox="0 0 24 25" fill="none" xmlns="http://www.w3.org/2000/svg">
<path d="M13.875 19C14.4844 19 15 18.5312 15 17.875V10H19.0781C19.9219 10 20.3438 9.01562 19.7344 8.40625L12.6094 1.28125C12.2812 0.953125 11.6719 0.953125 11.3438 1.28125L4.21875 8.40625C3.60938 9.01562 4.03125 10 4.875 10H9V17.875C9 18.5312 9.46875 19 10.125 19H13.875ZM24 18.625C24 18.0156 23.4844 17.5 22.875 17.5H16.5V17.875C16.5 19.3281 15.2812 20.5 13.875 20.5H10.125C8.67188 20.5 7.5 19.3281 7.5 17.875V17.5H1.125C0.46875 17.5 0 18.0156 0 18.625V23.875C0 24.5312 0.46875 25 1.125 25H22.875C23.4844 25 24 24.5312 24 23.875V18.625ZM18.1875 22.75C18.1875 23.2656 17.7656 23.6875 17.25 23.6875C16.7344 23.6875 16.3125 23.2656 16.3125 22.75C16.3125 22.2344 16.7344 21.8125 17.25 21.8125C17.7656 21.8125 18.1875 22.2344 18.1875 22.75ZM21.1875 22.75C21.1875 23.2656 20.7656 23.6875 20.25 23.6875C19.7344 23.6875 19.3125 23.2656 19.3125 22.75C19.3125 22.2344 19.7344 21.8125 20.25 21.8125C20.7656 21.8125 21.1875 22.2344 21.1875 22.75Z" fill="#3DA96C"/>
</svg>
