<svg width="101" height="100" viewBox="0 0 101 100" fill="none" xmlns="http://www.w3.org/2000/svg">
<path d="M3.84336 22.0762L1 37.5482V43.4453L4.68145 58.9484L11.176 65.8621L23.7461 70.0521H31.9166L37.3637 73.823H43.2297L47.0223 82.4127H52.4479L59.5709 72.7756H68.1605L75.7963 69.7605L77.7992 71.9574L79.1574 79.1203L87.0125 87.3896H91.0482L92.1191 75.3287L85.4445 61.5672L91.2059 51.4064V42.6072L101 29.1732V19.9812L97.7004 12.6104H91.2059L87.0158 26.8947L81.9877 32.3418L74.5986 39.8838H68.9986L67.5529 25.3607L60.6186 22.0762H3.84336Z" fill="#1D2935"/>
<g clip-path="url(#clip0_44_361)">
<path d="M75 35C72.0175 35.004 69.1583 36.1905 67.0494 38.2994C64.9405 40.4083 63.754 43.2675 63.75 46.25C63.75 54.3266 74.2312 64.4422 74.6766 64.8688C74.7632 64.9529 74.8792 65 75 65C75.1208 65 75.2368 64.9529 75.3234 64.8688C75.7687 64.4422 86.25 54.3266 86.25 46.25C86.246 43.2675 85.0595 40.4083 82.9506 38.2994C80.8417 36.1905 77.9825 35.004 75 35V35ZM75 51.4062C73.9802 51.4062 72.9833 51.1038 72.1353 50.5373C71.2874 49.9707 70.6265 49.1654 70.2362 48.2232C69.846 47.281 69.7439 46.2443 69.9428 45.2441C70.1418 44.2439 70.6329 43.3251 71.354 42.604C72.0751 41.8829 72.9939 41.3918 73.9941 41.1928C74.9943 40.9939 76.031 41.096 76.9732 41.4862C77.9154 41.8765 78.7207 42.5374 79.2873 43.3853C79.8538 44.2333 80.1562 45.2302 80.1562 46.25C80.1554 47.6173 79.6119 48.9283 78.6451 49.8951C77.6783 50.8619 76.3673 51.4054 75 51.4062Z" fill="#0C9447"/>
</g>
<g clip-path="url(#clip1_44_361)">
<path d="M15 4C12.0175 4.00396 9.15835 5.19049 7.04942 7.29942C4.94049 9.40835 3.75396 12.2675 3.75 15.25C3.75 23.3266 14.2312 33.4422 14.6766 33.8688C14.7632 33.9529 14.8792 34 15 34C15.1208 34 15.2368 33.9529 15.3234 33.8688C15.7687 33.4422 26.25 23.3266 26.25 15.25C26.246 12.2675 25.0595 9.40835 22.9506 7.29942C20.8417 5.19049 17.9825 4.00396 15 4V4ZM15 20.4062C13.9802 20.4062 12.9833 20.1038 12.1353 19.5373C11.2874 18.9707 10.6265 18.1654 10.2362 17.2232C9.84598 16.281 9.74387 15.2443 9.94283 14.2441C10.1418 13.2439 10.6329 12.3251 11.354 11.604C12.0751 10.8829 12.9939 10.3918 13.9941 10.1928C14.9943 9.99387 16.031 10.096 16.9732 10.4862C17.9154 10.8765 18.7207 11.5374 19.2873 12.3853C19.8538 13.2333 20.1562 14.2302 20.1562 15.25C20.1554 16.6173 19.6119 17.9283 18.6451 18.8951C17.6783 19.8619 16.3673 20.4054 15 20.4062Z" fill="#0C9447"/>
</g>
<defs>
<clipPath id="clip0_44_361">
<rect width="30" height="30" fill="white" transform="translate(60 35)"/>
</clipPath>
<clipPath id="clip1_44_361">
<rect width="30" height="30" fill="white" transform="translate(0 4)"/>
</clipPath>
</defs>
</svg>
