<svg width="40" height="40" viewBox="0 0 40 40" fill="none" xmlns="http://www.w3.org/2000/svg">
<circle cx="20" cy="20" r="20" fill="#E9EAEB"/>
<path d="M25.8751 15.069V14.5049H24.0361V17.8309H25.8751V17.2678H24.6843V16.3699H25.832V15.8068H24.6843V15.069H25.8751Z" fill="black"/>
<path d="M27.6879 16.431C28.1759 16.3314 28.4457 15.9975 28.4457 15.488C28.4457 14.8653 28.0162 14.5059 27.2684 14.5059H26.3064V17.832H26.9546V16.4955H27.0387L27.9361 17.832H28.735L27.6879 16.431ZM27.1433 16.0365H26.9546L26.9551 15.03H27.1543C27.5587 15.03 27.778 15.1992 27.778 15.5225C27.778 15.8574 27.5577 16.0365 27.1433 16.0365Z" fill="black"/>
<path d="M28.734 14.4393C28.5914 14.4393 28.4783 14.5525 28.4783 14.6941C28.4783 14.8358 28.5924 14.9489 28.734 14.9489C28.8712 14.9489 28.9853 14.8343 28.9853 14.6941C28.9853 14.5545 28.8712 14.4393 28.734 14.4393ZM28.7315 14.9033C28.6219 14.9033 28.5298 14.8102 28.5298 14.6946C28.5298 14.579 28.6209 14.4854 28.7315 14.4854C28.8422 14.4854 28.9338 14.58 28.9338 14.6946C28.9338 14.8092 28.8437 14.9033 28.7315 14.9033Z" fill="black"/>
<path d="M28.7666 14.7206C28.8077 14.7096 28.8302 14.6796 28.8302 14.6391C28.8302 14.58 28.7902 14.5485 28.7191 14.5485H28.625V14.8408H28.6946V14.7272L28.7767 14.8408H28.8618L28.7666 14.7206ZM28.7061 14.6781H28.6951V14.602H28.7071C28.7416 14.602 28.7591 14.6145 28.7591 14.6396C28.7591 14.6661 28.7406 14.6781 28.7061 14.6781Z" fill="black"/>
<path d="M11.6865 14.5049H11.0383V17.8309H11.6865V14.5049Z" fill="black"/>
<path d="M13.2706 15.7808C12.8807 15.6371 12.7661 15.5415 12.7661 15.3623C12.7661 15.1526 12.9703 14.9934 13.2501 14.9934C13.4438 14.9934 13.604 15.0735 13.7732 15.2632L14.1125 14.8183C13.8327 14.5745 13.4994 14.4499 13.135 14.4499C12.5464 14.4499 12.0989 14.8583 12.0989 15.4024C12.0989 15.8604 12.3071 16.0951 12.9163 16.3143C13.1705 16.4039 13.2997 16.4635 13.3647 16.5035C13.4949 16.5881 13.5594 16.7083 13.5594 16.8479C13.5594 17.1172 13.3452 17.3174 13.0559 17.3174C12.7471 17.3174 12.4968 17.1622 12.3482 16.8734L11.9287 17.2774C12.228 17.7163 12.5864 17.911 13.0794 17.911C13.7542 17.911 14.2272 17.4626 14.2272 16.8189C14.2267 16.2903 14.0074 16.0506 13.2706 15.7808Z" fill="black"/>
<path d="M14.3467 25.5892H31.9999V19.2204C31.9999 19.2204 25.7658 23.6196 14.3467 25.5892Z" fill="#3DA96C"/>
<path d="M8.95101 14.5059H8V17.8319H8.94751C9.45004 17.8319 9.81343 17.7118 10.1333 17.447C10.5127 17.1337 10.7364 16.6607 10.7364 16.1712C10.7364 15.1891 10.0031 14.5049 8.95101 14.5059ZM9.70882 17.0036C9.5056 17.1873 9.24082 17.2678 8.82237 17.2678H8.64819V15.0685H8.82237C9.24032 15.0685 9.49459 15.1436 9.70882 15.3373C9.93355 15.537 10.0687 15.8463 10.0687 16.1652C10.0687 16.4855 9.93405 16.8038 9.70882 17.0036Z" fill="black"/>
<path d="M23.0405 14.5059L22.1416 16.7398L21.2551 14.5059H20.5464L21.9579 17.916H22.3058L23.7428 14.5059H23.0405Z" fill="black"/>
<path d="M18.9796 14.4103C18.2473 14.4103 17.6176 14.8558 17.3498 15.491C17.2597 15.7027 17.2112 15.9354 17.2112 16.1797C17.2112 17.1562 18.003 17.9486 18.9796 17.9486C19.7734 17.9486 20.4466 17.4255 20.6689 16.7052C20.6794 16.6747 20.6854 16.6437 20.6944 16.6131C20.7004 16.5871 20.7079 16.5616 20.7129 16.5361C20.7374 16.4209 20.7489 16.3013 20.7489 16.1787C20.7489 15.2022 19.9571 14.4103 18.9796 14.4103Z" fill="black"/>
<path d="M16.1863 15.023C16.4961 15.023 16.7308 15.1336 16.9996 15.3974V14.6345C16.7153 14.4899 16.4806 14.4303 16.2018 14.4303C15.2192 14.4303 14.4314 15.2036 14.4314 16.1707C14.4309 17.1477 15.1982 17.905 16.1858 17.905C16.4656 17.905 16.7048 17.851 16.9991 17.7113V16.9475C16.7398 17.2073 16.5101 17.3124 16.2163 17.3124C15.5631 17.3124 15.1001 16.8384 15.1001 16.1652C15.1001 15.5275 15.5781 15.023 16.1863 15.023Z" fill="black"/>
</svg>
