<svg width="100" height="100" viewBox="0 0 100 100" fill="none" xmlns="http://www.w3.org/2000/svg">
<g clip-path="url(#clip0_41_97)">
<path d="M72.141 39.4501C67.3291 39.0016 66.0879 33.1217 69.1255 29.107C69.8944 28.1016 74.1075 22.2645 78.3831 27.0764C82.658 31.8875 76.9506 39.9002 72.141 39.4501Z" fill="#1D2935"/>
<path d="M26.7217 63.1876C26.7217 63.2052 26.7217 63.2052 26.7041 63.2227C25.2395 65.1015 21.5673 70.2216 22.533 73.8755C23.7047 78.3922 26.3944 84.8571 11.6376 82.3749C6.45501 81.4862 2.3144 77.5699 1.13966 72.4452C0.0869592 68.4564 -0.240292 64.3105 0.173921 60.2057C0.595 54.4327 1.47682 48.7024 2.81176 43.0704C2.96662 42.4671 3.13901 41.8637 3.31141 41.2603C5.90959 31.2101 12.1441 22.4811 20.809 16.7637C21.24 16.4884 21.671 16.2122 22.1188 15.9536C21.102 20.2803 27.4403 25.5263 29.6128 31.4221C32.8022 40.0756 29.4457 50.0694 26.7217 63.1876Z" fill="#1D2935"/>
<path d="M90.988 46.3285C90.8667 46.3972 91.5754 42.7288 91.4381 42.7806L90.6257 29.2794C90.6089 29.5548 90.5913 29.8134 90.557 30.0895C90.4838 31.9333 89.7278 33.684 88.4364 35.0029C86.6979 36.3806 84.4872 37.0183 82.2819 36.778C76.8346 36.5537 75.0244 34.3476 74.6972 31.9859V31.9684C65.6981 31.0896 71.4216 42.2604 80.3344 18.6426C80.265 18.574 80.1788 18.5053 80.1102 18.4359C78.0933 16.5395 76.6454 13.9192 77.6966 11.1441C78.7485 8.31705 81.6099 5.12769 84.8336 4.98962C85.0235 4.98962 85.2302 4.98962 85.4194 5.00716C87.1777 2.36932 72.2493 1.00768 73.9038 0.335634L73.5941 0.283762C66.94 -0.646882 56.3032 0.800956 44.0637 5.2833C39.3746 13.3509 24.1411 27.8499 29.4679 46.1386C30.6403 50.1381 36.2371 60.2897 37.0824 63.4272C41.0643 78.5631 42.6845 84.3553 57.3208 87.1312C74.9901 90.4579 71.8701 79.046 67.7669 75.3738C63.6645 71.7023 62.5957 59.221 62.5957 59.221C64.0359 58.044 65.3739 56.7464 66.5952 55.3428C66.5952 55.3428 71.0082 61.9107 69.4909 68.1682C67.9744 74.4256 71.3354 77.6493 81.024 77.322C90.0566 77.0131 96.9182 63.3952 90.988 46.3285V46.3285Z" fill="#1D2935"/>
<path d="M66.1658 21.6733C65.1581 21.6809 64.1626 21.4445 63.2663 20.9837C62.6491 20.6527 62.0793 20.2423 61.5697 19.7617L61.3508 19.5603C58.5612 17.2329 57.5001 13.4234 58.684 9.98915C59.9968 6.21776 63.3586 3.53491 67.3275 3.09399H67.519C67.7395 3.09399 67.9775 3.09399 68.2086 3.11459C69.0401 3.16723 69.8601 3.33428 70.6458 3.61043C74.6163 4.77831 77.1008 8.71448 76.4471 12.8009C75.8322 15.6051 74.199 18.0819 71.8633 19.7518C70.4856 20.7465 68.8814 21.3827 67.1963 21.6031C66.8546 21.6474 66.5106 21.6703 66.1658 21.6733V21.6733Z" fill="#0C9447"/>
<path d="M97.5216 33.5047C97.5216 28.229 94.1942 23.9526 90.0894 23.9526C85.9854 23.9526 82.658 28.229 82.658 33.5047C82.658 38.7796 85.9854 43.0568 90.0894 43.0568C94.1942 43.0568 97.5216 38.7796 97.5216 33.5047V33.5047Z" fill="#1D2935"/>
<path d="M99.1243 25.4867C98.5781 23.2852 97.8153 21.1432 96.8488 19.0912C96.4521 19.2293 95.3666 14.9193 94.8662 14.9712C87.1777 15.7646 92.1086 11.0236 92.1086 11.0236C92.1086 11.0236 86.437 7.79992 88.7293 5.40389C84.5849 2.80953 79.9263 1.14505 75.0763 0.524873C74.6972 0.438674 74.3005 0.387565 73.9038 0.335693C71.5704 1.28312 69.5763 2.91098 68.1811 5.00722C68.8189 5.04155 67.5434 7.55886 68.1811 7.78237C70.8876 8.71378 69.7152 7.78237 69.1461 10.6613C68.6465 13.161 68.8707 11.7819 66.8187 13.2472C65.6295 14.1092 66.9911 15.4365 65.5265 15.6265C64.647 15.7295 64.9056 17.9882 64.3708 17.712C64.0093 17.5229 63.4921 19.005 63.0954 18.6427C55.1826 39.6226 63.3883 46.7596 71.6283 48.7071C72.6398 48.9382 73.6651 49.1053 74.6972 49.2075V49.2243C74.7666 49.7209 74.9115 50.2037 75.1282 50.6553C75.9383 52.4136 77.9727 53.8447 82.2819 54.0171C84.4872 54.2566 86.6979 53.6189 88.4364 52.2412C89.7278 50.9231 90.4838 49.1724 90.557 47.3286C90.5738 47.1387 90.5914 46.9838 90.6089 46.7939V46.7764C90.6089 46.6902 90.6257 46.6215 90.6257 46.5353V46.501C90.7508 46.4537 90.8721 46.3965 90.988 46.3286C91.9583 45.8236 92.8859 45.2408 93.7632 44.5871C98.1075 41.3634 101.728 35.6925 99.1243 25.4867V25.4867ZM72.4392 38.071C68.5603 37.7094 67.5602 32.9685 70.0081 29.7273C70.629 28.9171 74.0251 24.2113 77.4723 28.0902C80.9203 31.9684 76.3174 38.4334 72.4392 38.071ZM94.5565 35.1403C93.9783 36.2364 93.2338 37.2373 92.3497 38.1053C91.2466 39.2092 90.0742 39.9331 89.6256 39.123C89.5745 38.9849 89.5394 38.8644 89.4883 38.7263C89.4708 38.6569 89.4532 38.6058 89.4364 38.5539C89.3502 38.3472 89.2808 38.1229 89.2122 37.9162C88.505 35.9504 87.6781 34.0372 86.8161 32.1408C86.6956 31.8822 86.54 31.6069 86.4019 31.3307C87.1892 30.1552 88.1282 29.088 89.1946 28.1589C92.9874 25.7453 95.832 32.2446 94.5565 35.1403Z" fill="#0C9447"/>
<path d="M34.1516 52.7583C35.324 56.7578 36.2371 60.2919 37.0824 63.4294C33.9868 63.8512 30.847 63.8337 27.7561 63.3775C27.377 63.3257 27.0489 63.257 26.7392 63.1876H26.7217C29.4457 50.0693 25.4981 41.8293 22.3088 33.1751C20.1362 27.2792 21.102 20.2803 22.1188 15.9536C29.0628 11.6795 36.4141 8.10489 44.0637 5.2832C39.3746 13.3508 28.8248 34.4681 34.1516 52.7583V52.7583Z" fill="#0C9447"/>
<path d="M96.8488 19.0912C96.4132 19.2407 95.9624 19.3391 95.5047 19.3841C93.5328 19.7175 91.5128 19.1949 89.9498 17.9485C88.3868 16.7013 87.4287 14.8468 87.3158 12.8505C87.3158 12.8505 86.437 7.79988 88.7293 5.40385C89.8178 4.34429 91.3664 3.90414 92.8493 4.23139C99.5553 5.11092 102.762 16.9362 96.8488 19.0912Z" fill="#1D2935"/>
<path d="M74.5591 11.6955C73.9504 14.2815 72.4255 16.56 70.2667 18.1085C69.0721 18.9774 67.68 19.5343 66.2153 19.7288C65.5402 19.8607 64.8407 19.7761 64.216 19.4877C63.8086 19.2543 63.4318 18.9705 63.0954 18.6425C63.0267 18.5739 62.9405 18.5052 62.8711 18.4358C60.8542 16.5394 59.4064 13.9191 60.4583 11.144C61.5095 8.31694 64.3708 5.12757 67.5945 4.9895C67.7845 4.9895 67.9912 4.9895 68.1811 5.00705C68.8402 5.04748 69.4901 5.18097 70.1118 5.40371C72.8183 6.33436 75.1282 8.81659 74.5591 11.6955V11.6955Z" fill="#1D2935"/>
<path d="M74.5591 11.6955C73.9504 14.2815 72.4255 16.56 70.2667 18.1085C69.0721 18.9774 67.68 19.5343 66.2153 19.7288C65.5402 19.8607 64.8407 19.7761 64.216 19.4877C63.8086 19.2543 63.4318 18.9705 63.0954 18.6425C63.0267 18.5739 62.9405 18.5052 62.8711 18.4358C60.8542 16.5394 59.4064 13.9191 60.4583 11.144C61.5095 8.31694 64.3708 5.12757 67.5945 4.9895C67.7845 4.9895 67.9912 4.9895 68.1811 5.00705C68.8402 5.04748 69.4901 5.18097 70.1118 5.40371C72.8183 6.33436 75.1282 8.81659 74.5591 11.6955V11.6955Z" fill="#1D2935"/>
<path d="M74.6972 49.2075C73.6651 49.1053 72.6398 48.9382 71.6283 48.7071C71.7023 47.1929 71.9632 45.6932 72.4041 44.2423C72.7245 43.3726 73.6757 42.9119 74.5568 43.1995C75.4379 43.4871 75.9344 44.42 75.6797 45.3117C75.1579 46.5536 74.8268 47.8664 74.6972 49.2075Z" fill="#1D2935"/>
<path d="M93.7632 44.5869C92.8859 45.2407 91.9583 45.8235 90.988 46.3285C90.8721 46.3963 90.7508 46.4536 90.6257 46.5009C90.557 45.8456 90.4685 44.5869 90.4205 43.9629C90.3717 42.181 90.0566 40.4158 89.4883 38.7262C89.5394 38.8642 89.5745 38.9848 89.6256 39.1228C90.0742 39.9329 91.2466 39.209 92.3497 38.1052C92.4473 38.9184 92.6281 39.7194 92.8874 40.4967C93.1445 41.6806 93.4046 42.8652 93.6426 44.053C93.677 44.2254 93.7288 44.3977 93.7632 44.5869V44.5869Z" fill="#1D2935"/>
<path d="M85.6093 48.2317H85.4865L80.9187 47.9076C79.969 47.8397 79.2535 47.015 79.3214 46.0653C79.3893 45.1156 80.2139 44.4009 81.1636 44.468L85.7299 44.7907C86.6819 44.8242 87.4271 45.6229 87.3936 46.5749C87.36 47.5269 86.5613 48.2714 85.6093 48.2386V48.2317Z" fill="#1D2935"/>
<path d="M70.1118 5.40375C69.4901 5.181 68.8402 5.04751 68.1811 5.00708L70.1118 5.40375Z" fill="#1D2935"/>
</g>
<defs>
<clipPath id="clip0_41_97">
<rect width="100" height="100" fill="white"/>
</clipPath>
</defs>
</svg>
