<svg width="80" height="80" viewBox="0 0 80 80" fill="none" xmlns="http://www.w3.org/2000/svg">
<g clip-path="url(#clip0_210_850)">
<path d="M71.1751 72.3866C58.9337 82.3796 20.7106 82.3796 8.71893 72.3866C-3.52248 62.3936 -2.27338 19.6737 8.71893 8.43157C19.7112 -2.81052 60.1828 -2.81052 71.1751 8.43157C82.1674 19.6737 83.4165 62.3938 71.1751 72.3866Z" fill="#0C9447"/>
<path opacity="0.2" d="M40.25 55.0175C29.2577 63.7614 17.0163 68.2583 5.52439 68.508C-2.96972 54.0182 -1.22087 18.793 8.77213 8.55026C17.7658 -0.693204 45.9959 -2.44205 62.2346 3.30389C66.2317 19.7924 57.9876 40.7775 40.25 55.0175Z" fill="white"/>
<path d="M67.9628 30.3475C66.9225 29.3089 65.5752 28.6332 64.1207 28.4206C62.6661 28.2081 61.1818 28.4699 59.8878 29.1674C58.5938 29.8649 57.5591 30.9608 56.937 32.2927C56.315 33.6246 56.1387 35.1214 56.4344 36.5614L45.9689 44.2674C45.1504 43.7073 44.2188 43.334 43.2401 43.1739L41.4413 35.478C41.788 35.2417 42.113 34.9749 42.4122 34.6809C43.214 33.882 43.8049 32.8966 44.132 31.8131C44.459 30.7296 44.512 29.5818 44.2861 28.4727C44.0602 27.3637 43.5626 26.3281 42.8378 25.4588C42.113 24.5895 41.1837 23.9137 40.1333 23.4921C39.083 23.0705 37.9444 22.9162 36.8197 23.0431C35.695 23.17 34.6195 23.5741 33.6895 24.2192C32.7595 24.8643 32.0042 25.7301 31.4913 26.7391C30.9784 27.748 30.724 28.8685 30.751 30L21.3586 33.7508C20.0499 32.5972 18.3497 31.9874 16.6061 32.0465C14.8625 32.1055 13.2074 32.8288 11.9796 34.0682C10.7519 35.3077 10.0444 36.9696 10.002 38.7137C9.95963 40.4578 10.5855 42.1521 11.7516 43.4498C12.7078 44.4058 13.926 45.0568 15.2522 45.3205C16.5783 45.5843 17.9529 45.4489 19.2021 44.9315C20.4514 44.414 21.5191 43.5379 22.2704 42.4137C23.0217 41.2895 23.4229 39.9678 23.4231 38.6156C23.4231 38.6156 23.4231 38.5134 23.4231 38.4623L32.8155 34.7115C33.8166 35.7056 35.1026 36.3629 36.4947 36.592L38.3037 44.2776C37.9531 44.5126 37.6278 44.7832 37.3328 45.085C36.0534 46.3686 35.335 48.1069 35.335 49.9192C35.335 51.7315 36.0534 53.4698 37.3328 54.7534C38.3745 55.769 39.7135 56.4253 41.1544 56.6265C42.5954 56.8278 44.0629 56.5634 45.3431 55.872C46.6232 55.1806 47.649 54.0983 48.2708 52.7829C48.8926 51.4676 49.078 49.988 48.7999 48.5599L59.3062 40.8539C60.4468 41.6258 61.7923 42.0387 63.1695 42.0394C64.5246 42.0401 65.8492 41.6375 66.9747 40.8829C68.1002 40.1283 68.9757 39.0558 69.4898 37.802C70.0038 36.5482 70.133 35.1698 69.8611 33.8423C69.5892 32.5148 68.9284 31.2982 67.9628 30.3475V30.3475Z" fill="white"/>
</g>
<defs>
<clipPath id="clip0_210_850">
<rect width="80" height="80" fill="white"/>
</clipPath>
</defs>
</svg>
