<svg width="65" height="75" viewBox="0 0 65 75" fill="none" xmlns="http://www.w3.org/2000/svg">
<path d="M17.7057 61.9142H25.1752V75H17.7057V61.9142Z" fill="#1D2935"/>
<path d="M41.8098 0H0.859375V75H13.3111V57.5197H29.5697V75H41.8098V0ZM11.4062 51.3182H7.01172V44.9764H11.4062V51.3182ZM11.4062 39.8254H7.01172V33.4837H11.4062V39.8254ZM11.4062 28.3327H7.01172V21.991H11.4062V28.3327ZM11.4062 16.84H7.01172V10.4982H11.4062V16.84ZM19.5607 51.3182H15.1662V44.9764H19.5607V51.3182ZM19.5607 39.8254H15.1662V33.4837H19.5607V39.8254ZM19.5607 28.3327H15.1662V21.991H19.5607V28.3327ZM19.5607 16.84H15.1662V10.4982H19.5607V16.84ZM27.7147 51.3182H23.3201V44.9764H27.7147V51.3182ZM27.7147 39.8254H23.3201V33.4837H27.7147V39.8254ZM27.7147 28.3327H23.3201V21.991H27.7147V28.3327ZM27.7147 16.84H23.3201V10.4982H27.7147V16.84ZM35.8691 51.3182H31.4746V44.9764H35.8691V51.3182ZM35.8691 39.8254H31.4746V33.4837H35.8691V39.8254ZM35.8691 28.3327H31.4746V21.991H35.8691V28.3327ZM35.8691 16.84H31.4746V10.4982H35.8691V16.84Z" fill="#0C9447"/>
<path d="M46.2043 18.0176V75H64.1406V18.0176H46.2043ZM57.4756 66.9188H53.081V60.577H57.4756V66.9188ZM57.4756 55.426H53.081V49.0843H57.4756V55.426ZM57.4756 43.9333H53.081V37.5916H57.4756V43.9333ZM57.4756 32.4406H53.081V26.0988H57.4756V32.4406Z" fill="#1D2935"/>
</svg>
