<svg width="46" height="60" viewBox="0 0 46 60" fill="none" xmlns="http://www.w3.org/2000/svg">
<path fill-rule="evenodd" clip-rule="evenodd" d="M8.37479 0H28.4347L45.4362 17.7212V52.1889C45.4362 56.5068 41.943 60 37.6401 60H8.37479C4.05696 60 0.563721 56.5068 0.563721 52.1889V7.81107C0.563645 3.49324 4.05689 0 8.37479 0V0Z" fill="#EC5656"/>
<path opacity="0.302" fill-rule="evenodd" clip-rule="evenodd" d="M28.4199 0V17.5862H45.4364L28.4199 0Z" fill="white"/>
<path d="M9.24438 44.7676V33.8081H13.9071C15.0615 33.8081 15.9761 34.1229 16.6657 34.7676C17.3554 35.3973 17.7002 36.2519 17.7002 37.3164C17.7002 38.3808 17.3554 39.2354 16.6657 39.8651C15.9761 40.5098 15.0615 40.8246 13.9071 40.8246H12.048V44.7676H9.24438ZM12.048 38.4408H13.5922C14.012 38.4408 14.3418 38.3509 14.5668 38.141C14.7916 37.9461 14.9116 37.6762 14.9116 37.3164C14.9116 36.9566 14.7917 36.6868 14.5668 36.4918C14.3419 36.2819 14.0121 36.192 13.5922 36.192H12.048V38.4408ZM18.8546 44.7676V33.8081H22.7376C23.5023 33.8081 24.2219 33.913 24.8965 34.138C25.5712 34.3628 26.1859 34.6777 26.7256 35.1125C27.2654 35.5322 27.7001 36.102 28.015 36.8216C28.3148 37.5413 28.4798 38.3659 28.4798 39.2954C28.4798 40.2099 28.3149 41.0345 28.015 41.7541C27.7001 42.4738 27.2654 43.0435 26.7256 43.4632C26.1858 43.898 25.5712 44.2128 24.8965 44.4378C24.2219 44.6626 23.5023 44.7676 22.7376 44.7676H18.8546ZM21.5982 42.3839H22.4078C22.8426 42.3839 23.2474 42.3389 23.6222 42.2339C23.982 42.129 24.3268 41.964 24.6567 41.7392C24.9715 41.5143 25.2264 41.1994 25.4063 40.7796C25.5862 40.3599 25.6762 39.8651 25.6762 39.2954C25.6762 38.7106 25.5862 38.2159 25.4063 37.7962C25.2264 37.3764 24.9715 37.0616 24.6567 36.8366C24.3268 36.6118 23.9821 36.4468 23.6222 36.3419C23.2474 36.237 22.8426 36.1919 22.4078 36.1919H21.5982V42.3839ZM29.8891 44.7676V33.8081H37.6852V36.1919H32.6927V37.946H36.6807V40.3149H32.6927V44.7676H29.8891Z" fill="white"/>
</svg>
