<svg width="24" height="24" viewBox="0 0 24 24" fill="none" xmlns="http://www.w3.org/2000/svg">
<path d="M10.2173 0.533401H13.6622V4.68661H10.2173V0.533401Z" fill="#0C9447"/>
<path d="M10.2173 6.28514H13.6622V8.41577H10.2173V6.28514Z" fill="#0C9447"/>
<path d="M1.27856 6.28514V13.9091C1.77409 14.003 2.24337 14.252 2.60951 14.6495L5.24842 17.5139C5.25517 17.5213 5.26239 17.5281 5.26928 17.5354V16.9525C5.26928 15.7267 6.26653 14.7295 7.49227 14.7295H11.1876C11.6465 14.7813 12.8614 14.0862 13.2803 13.9197C15.059 13.0928 17.0834 13.1255 18.8344 14.0093L19.8992 14.5502C20.1975 13.5926 21.0535 12.8988 22.061 12.8988H22.6925V6.28514H15.2605V9.21504C15.2605 9.65647 14.9027 10.0143 14.4613 10.0143H9.41785C8.97642 10.0143 8.61858 9.65647 8.61858 9.21504V6.28514H1.27856Z" fill="#0C9447"/>
<path d="M15.2607 4.68661H22.6927V1.64204C22.6927 1.02973 22.2802 0.533401 21.7714 0.533401H15.2607V4.68661Z" fill="#0C9447"/>
<path d="M22.0609 14.4974C21.6879 14.4974 21.3845 14.8554 21.3845 15.2955V22.4403C21.3845 22.8803 21.688 23.2384 22.0609 23.2384H23.3235C23.6964 23.2384 23.9999 22.8803 23.9999 22.4403V15.2955C23.9999 14.8554 23.6964 14.4974 23.3235 14.4974H22.0609Z" fill="#1D2935"/>
<path d="M8.61862 0.533401H2.04417C1.62136 0.533401 1.27856 0.945905 1.27856 1.45475V4.68661H8.61862V0.533401Z" fill="#0C9447"/>
<path d="M1.43391 15.7326C0.727704 15.0264 -0.474457 15.9495 0.197296 16.7709L3.79736 21.1352C5.01954 22.6168 6.82205 23.4665 8.74271 23.4665H12.8146C14.3267 23.4665 15.8393 23.289 17.3102 22.9387L19.7861 22.3466V16.2856L18.1123 15.4354C16.8026 14.7743 15.2864 14.7499 13.9543 15.3692L12.5307 16.0311C12.1129 16.2253 11.6485 16.328 11.1877 16.328H7.49235C7.14801 16.328 6.86786 16.6081 6.86786 16.9525V18.1633H14.0459C14.4873 18.1633 14.8452 18.5211 14.8452 18.9625C14.8452 19.404 14.4873 19.7618 14.0459 19.7618H6.7296C5.8023 19.773 4.73708 19.3386 4.07283 18.597L1.43391 15.7326Z" fill="#1D2935"/>
</svg>
