<svg width="22" height="22" viewBox="0 0 22 22" fill="none" xmlns="http://www.w3.org/2000/svg">
<path d="M9.96579 13.1001H18.5061C18.6284 13.1001 18.7326 13.0005 18.7326 12.8737V7.09108H9.73938V12.8737C9.73938 13.0005 9.84352 13.1001 9.96579 13.1001Z" fill="#3DA96C"/>
<path d="M8.95994 6.6367H19.5068C19.6322 6.6367 19.7332 6.53527 19.7332 6.41029V3.90252C19.7332 3.77754 19.6322 3.67611 19.5068 3.67611H8.95994C8.83495 3.67611 8.73352 3.77754 8.73352 3.90252V6.41029C8.73352 6.53527 8.83495 6.6367 8.95994 6.6367Z" fill="#3DA96C"/>
<path d="M11.3606 3.22413H17.107C17.116 3.21961 17.1206 3.21508 17.1251 3.21055C17.4149 2.91621 17.5779 2.52678 17.5779 2.11017C17.5779 1.69357 17.4149 1.30414 17.1251 1.01432C16.5183 0.407533 15.5311 0.407533 14.9243 1.01432C14.6255 1.31319 14.39 2.06489 14.2315 2.7215C14.0776 2.06489 13.8421 1.31319 13.5387 1.01432C12.9364 0.407533 11.9492 0.407533 11.3425 1.01432C10.7402 1.61659 10.7402 2.60376 11.3425 3.21055C11.347 3.21508 11.356 3.22413 11.3606 3.22413Z" fill="#3DA96C"/>
<path d="M3.86093 13.8504C3.83919 13.6313 3.73368 13.4338 3.56297 13.2944C3.39271 13.1549 3.1758 13.0906 2.95935 13.1119L0.528564 13.3134L1.56961 21.4408L3.76358 21.2234C3.98275 21.2017 4.18063 21.0957 4.32011 20.9254C4.45958 20.7552 4.52433 20.541 4.5026 20.3218L3.86093 13.8504ZM2.69128 19.2916C2.5663 19.2916 2.44176 19.1671 2.44176 19.0421C2.44176 18.9167 2.5663 18.7922 2.69128 18.7922C2.81625 18.7922 2.94079 18.9167 2.94079 19.0421C2.94079 19.1671 2.81625 19.2916 2.69128 19.2916Z" fill="#1D2935"/>
<path d="M21.3338 14.827C21.0549 14.2777 20.4277 14.0459 19.9042 14.2985L14.2153 16.6342C14.0097 16.8403 13.7494 16.9721 13.4609 17.0006L9.29215 17.414C9.28445 17.4145 9.27721 17.4149 9.2695 17.4149C9.15448 17.4149 9.05577 17.3275 9.04445 17.2112C9.03222 17.0866 9.12279 16.9757 9.24732 16.9635L13.4165 16.55C13.6357 16.5283 13.8336 16.4155 13.9735 16.233C14.1171 16.046 14.1827 15.8083 14.1583 15.5647C14.1089 15.067 13.6986 14.7016 13.2377 14.7441L10.9409 14.9719C9.94874 15.0706 8.94845 14.8696 8.05139 14.3918C7.23313 13.9558 6.32429 13.7724 5.41908 13.862L4.32776 13.9702L4.94225 20.1659L5.276 20.1328C6.13049 20.0481 7.00309 20.1939 7.79735 20.5544L8.55268 20.8976C9.70558 21.4211 11.0251 21.4342 12.174 20.9334L20.7809 16.4989C21.0739 16.3707 21.2881 16.1366 21.3972 15.8327C21.5149 15.5053 21.4919 15.1386 21.3338 14.827Z" fill="#1D2935"/>
</svg>
