<svg width="24" height="24" viewBox="0 0 24 24" fill="none" xmlns="http://www.w3.org/2000/svg">
<path d="M22.3636 19.6364H18.5454C16.1394 19.6364 14.1819 17.6789 14.1819 15.2728C14.1819 12.8668 16.1394 10.9093 18.5454 10.9093H22.3636C22.6651 10.9093 22.909 10.6653 22.909 10.3638V8.7275C22.909 7.5837 22.0218 6.6535 20.9009 6.56329L17.7683 1.09179C17.478 0.585758 17.0093 0.224076 16.4484 0.0738913C15.8901 -0.075271 15.3063 0.00306863 14.8067 0.293876L4.06808 6.5457H2.18204C0.978774 6.5457 0.000244141 7.52418 0.000244141 8.7275V21.8182C0.000244141 23.0215 0.978723 24 2.18204 24H20.7272C21.9305 24 22.909 23.0215 22.909 21.8182V20.1819C22.909 19.8804 22.6651 19.6364 22.3636 19.6364ZM18.4448 4.46981L19.6333 6.5457H14.8792L18.4448 4.46981ZM6.23622 6.5457L15.3558 1.23666C15.6025 1.09231 15.8906 1.05395 16.166 1.12749C16.4446 1.20204 16.6769 1.38209 16.8212 1.63404L16.8224 1.63603L8.38959 6.5457H6.23622Z" fill="#1D2935"/>
<path d="M22.3635 12.0002H18.5454C16.7407 12.0002 15.2727 13.4682 15.2727 15.2728C15.2727 17.0775 16.7407 18.5455 18.5454 18.5455H22.3635C23.2658 18.5455 23.9998 17.8115 23.9998 16.9092V13.6365C23.9998 12.7342 23.2658 12.0002 22.3635 12.0002ZM18.5454 16.3637C17.944 16.3637 17.4545 15.8742 17.4545 15.2728C17.4545 14.6715 17.944 14.182 18.5454 14.182C19.1467 14.182 19.6362 14.6715 19.6362 15.2728C19.6363 15.8742 19.1468 16.3637 18.5454 16.3637Z" fill="#3DA96C"/>
</svg>
