<svg width="75" height="63" viewBox="0 0 75 63" fill="none" xmlns="http://www.w3.org/2000/svg">
<path d="M59.1188 26.6232C58.576 25.5378 59.0159 24.2181 60.1014 23.6752C61.187 23.1324 62.5066 23.5726 63.0492 24.6579L65.3716 29.3027H74.1606L67.5984 16.1782C66.225 13.4312 63.4638 11.7246 60.3923 11.7246H51.5625V29.3027H60.4585L59.1188 26.6232Z" fill="#0C9447"/>
<path d="M15.3809 62.9941C19.0214 62.9941 21.9727 60.0429 21.9727 56.4023C21.9727 52.7618 19.0214 49.8105 15.3809 49.8105C11.7403 49.8105 8.78906 52.7618 8.78906 56.4023C8.78906 60.0429 11.7403 62.9941 15.3809 62.9941Z" fill="#1D2935"/>
<path d="M59.6191 62.9941C63.2597 62.9941 66.2109 60.0429 66.2109 56.4023C66.2109 52.7618 63.2597 49.8105 59.6191 49.8105C55.9786 49.8105 53.0273 52.7618 53.0273 56.4023C53.0273 60.0429 55.9786 62.9941 59.6191 62.9941Z" fill="#1D2935"/>
<path d="M15.5273 22.2567V36.627H21.3867V32.9648C21.3867 31.7514 22.3705 30.7676 23.584 30.7676C24.7975 30.7676 25.7812 31.7514 25.7812 32.9648V36.627H31.6406V22.2567L23.584 15.351L15.5273 22.2567ZM27.2461 24.1758C27.2461 25.3893 26.2623 26.373 25.0488 26.373H22.1191C20.9057 26.373 19.9219 25.3893 19.9219 24.1758C19.9219 22.9623 20.9057 21.9785 22.1191 21.9785H25.0488C26.2623 21.9785 27.2461 22.9623 27.2461 24.1758Z" fill="#1D2935"/>
<path d="M39.1113 0.00585938H8.05664C3.61421 0.00585938 0 3.62007 0 8.0625V54.9375C0 56.151 0.983789 57.1348 2.19727 57.1348H4.42163C4.40552 56.8923 4.39453 56.6487 4.39453 56.4023C4.39453 50.3445 9.323 45.416 15.3809 45.416C21.4387 45.416 26.3672 50.3445 26.3672 56.4023C26.3672 56.6487 26.3561 56.8923 26.3401 57.1348H44.9707C46.1842 57.1348 47.168 56.151 47.168 54.9375V8.0625C47.168 3.62007 43.5538 0.00585938 39.1113 0.00585938ZM39.1683 25.8149C38.7337 26.3219 38.1182 26.5822 37.499 26.5824C36.9929 26.5824 36.4844 26.4085 36.07 26.0533L36.0352 26.0234V38.8242C36.0352 40.0377 35.0514 41.0215 33.8379 41.0215H13.3301C12.1166 41.0215 11.1328 40.0377 11.1328 38.8242V26.0234L11.0979 26.0533C10.1769 26.8431 8.7895 26.7365 7.9998 25.8149C7.20996 24.8936 7.31675 23.5065 8.23813 22.7168L22.1542 10.7887C22.977 10.0834 24.1912 10.0834 25.014 10.7887L38.93 22.7168C39.8514 23.5065 39.958 24.8937 39.1683 25.8149Z" fill="#1D2935"/>
<path d="M66.9434 38.0918H75V33.6973H51.5625V48.9435C53.5705 46.776 56.4384 45.416 59.6191 45.416C65.677 45.416 70.6055 50.3445 70.6055 56.4023C70.6055 56.6487 70.5943 56.8923 70.5784 57.1348H72.8027C74.0162 57.1348 75 56.151 75 54.9375V42.4863H66.9434C65.7299 42.4863 64.7461 41.5025 64.7461 40.2891C64.7461 39.0756 65.7299 38.0918 66.9434 38.0918Z" fill="#0C9447"/>
</svg>
