<svg width="40" height="40" viewBox="0 0 40 40" fill="none" xmlns="http://www.w3.org/2000/svg">
<circle cx="20" cy="20" r="20" fill="#E9EAEB"/>
<g clip-path="url(#clip0_131_2489)">
<path d="M17.6096 16.4286L16.3899 23.5864H18.3406L19.5614 16.4286H17.6096Z" fill="#1D2935"/>
<path d="M14.7544 16.4367L12.8438 21.3181L12.6401 20.581C12.2633 19.693 11.1936 18.4175 9.93774 17.6138L11.6848 23.5829L13.7489 23.5794L16.8211 16.4352L14.7544 16.4367Z" fill="#1D2935"/>
<path d="M11.8995 16.9489C11.7861 16.5129 11.4575 16.383 11.0495 16.3674H8.02509L8 16.5099C10.3536 17.0809 11.911 18.4567 12.5573 20.1109L11.8995 16.9489Z" fill="#3DA96C"/>
<path d="M23.5152 17.8009C24.1534 17.7909 24.616 17.9303 24.9753 18.0748L25.1514 18.1576L25.4153 16.6063C25.0289 16.4613 24.4233 16.3057 23.6677 16.3057C21.7401 16.3057 20.3814 17.2766 20.3708 18.6679C20.3583 19.6959 21.3387 20.2699 22.0792 20.6126C22.8394 20.9638 23.0942 21.1871 23.0907 21.5007C23.0847 21.9798 22.4846 22.1996 21.9242 22.1996C21.143 22.1996 20.7281 22.0917 20.0873 21.8248L19.836 21.7104L19.5615 23.3125C20.0181 23.5126 20.8605 23.6847 21.735 23.6938C23.7856 23.6938 25.1182 22.7345 25.1323 21.2478C25.1408 20.4345 24.6205 19.8139 23.4931 19.3046C22.8108 18.9724 22.3933 18.7517 22.3973 18.4165C22.3973 18.119 22.7516 17.8009 23.5152 17.8009Z" fill="#1D2935"/>
<path d="M30.4216 16.4367H28.9144C28.4463 16.4367 28.0981 16.5641 27.8924 17.0307L24.9958 23.5904H27.0444C27.0444 23.5904 27.3786 22.7084 27.4544 22.5152C27.6786 22.5152 29.669 22.5182 29.9525 22.5182C30.0107 22.7681 30.1903 23.5904 30.1903 23.5904H32.0001L30.4216 16.4367ZM28.0158 21.0501C28.1764 20.6392 28.793 19.0497 28.793 19.0497C28.7825 19.0693 28.952 18.6358 29.0529 18.3663L29.1843 18.9835C29.1843 18.9835 29.5581 20.6924 29.6364 21.0501H28.0158Z" fill="#1D2935"/>
</g>
<defs>
<clipPath id="clip0_131_2489">
<rect width="24" height="24" fill="white" transform="translate(8 8)"/>
</clipPath>
</defs>
</svg>
