<?xml version="1.0" encoding="utf-8"?>
<!-- Generator: Adobe Illustrator 24.3.0, SVG Export Plug-In . SVG Version: 6.00 Build 0)  -->
<svg version="1.1" id="Capa_1" xmlns="http://www.w3.org/2000/svg" xmlns:xlink="http://www.w3.org/1999/xlink" x="0px" y="0px"
	 viewBox="0 0 20 20" style="enable-background:new 0 0 20 20;" xml:space="preserve">
<style type="text/css">
	.st0{fill:#0C9447;}
</style>
<path class="st0" d="M19.5,14.7l-2.8-2.8c-0.7-0.7-1.9-0.8-2.6,0c-0.2,0.2-0.4,0.5-0.5,0.7c-0.3,0.9-1.3,1.4-2.2,1.2
	C9,12.9,7.1,11,6.2,8.6C5.9,7.7,6.5,6.7,7.4,6.4c1-0.3,1.5-1.4,1.2-2.4C8.5,3.8,8.3,3.5,8.1,3.3L5.3,0.5c-0.8-0.7-1.9-0.7-2.7,0
	L0.7,2.4c-1.9,2,0.2,7.3,4.9,12s10,6.9,12,4.9l1.9-1.9C20.2,16.6,20.2,15.5,19.5,14.7z"/>
</svg>
