<svg width="24" height="20" viewBox="0 0 24 20" fill="none" xmlns="http://www.w3.org/2000/svg">
<path d="M19.7812 8.59375V10H23.7328L23.0297 8.59375H19.7812Z" fill="#1D2935"/>
<path d="M6.375 9.2969C6.375 8.90784 6.68906 8.59377 7.07812 8.59377C7.46719 8.59377 7.78125 8.90784 7.78125 9.2969V11.4063H9.1875V6.77502L7.07812 4.66565L4.96875 6.77502V11.4063H6.375V9.2969ZM7.07812 5.78127C7.46719 5.78127 7.78125 6.09534 7.78125 6.4844C7.78125 6.87346 7.46719 7.18752 7.07812 7.18752C6.68906 7.18752 6.375 6.87346 6.375 6.4844C6.375 6.09534 6.68906 5.78127 7.07812 5.78127Z" fill="#0C9447"/>
<path d="M23.2969 12.8125H24V11.4062H19.0781C18.6891 11.4062 18.375 11.0922 18.375 10.7031V7.89062C18.375 7.50156 18.6891 7.1875 19.0781 7.1875H22.3266L21.1125 4.76406C20.9906 4.525 20.7516 4.375 20.4844 4.375H15.5625V15.6484C16.2047 14.7859 17.2219 14.2188 18.375 14.2188C20.0719 14.2188 21.4922 15.4281 21.8203 17.0312H21.8906C23.0531 17.0312 24 16.0844 24 14.9219V14.2188H23.2969C22.9078 14.2188 22.5938 13.9047 22.5938 13.5156C22.5938 13.1266 22.9078 12.8125 23.2969 12.8125Z" fill="#1D2935"/>
<path d="M0.703125 17.0312H2.22656C2.55469 15.4281 3.975 14.2188 5.67188 14.2188C7.36875 14.2188 8.78906 15.4281 9.11719 17.0312H13.4531C13.8422 17.0312 14.1562 16.7172 14.1562 16.3281V2.26562C14.1562 1.10313 13.1625 0.15625 12 0.15625H2.15625C0.99375 0.15625 0 1.10313 0 2.26562V16.3281C0 16.7172 0.314062 17.0312 0.703125 17.0312ZM2.3625 7.39375C2.52188 7.23437 6.83437 2.92188 6.58125 3.175C6.85781 2.89844 7.30313 2.89844 7.575 3.175L11.7938 7.39375C12.0703 7.67031 12.0703 8.11563 11.7938 8.3875C11.5172 8.65938 11.0719 8.66406 10.8 8.3875L10.5938 8.18125V12.1094C10.5938 12.4984 10.2797 12.8125 9.89062 12.8125H4.26562C3.87656 12.8125 3.5625 12.4984 3.5625 12.1094V8.18125L3.35625 8.3875C3.07969 8.66406 2.63438 8.66406 2.3625 8.3875C2.09063 8.11094 2.08594 7.67031 2.3625 7.39375Z" fill="#0C9447"/>
<path d="M7.78125 17.7344C7.78125 18.9016 6.83906 19.8438 5.67188 19.8438C4.50469 19.8438 3.5625 18.9016 3.5625 17.7344C3.5625 16.5672 4.50469 15.625 5.67188 15.625C6.83906 15.625 7.78125 16.5672 7.78125 17.7344Z" fill="#0C9447"/>
<path d="M20.4844 17.7344C20.4844 18.9016 19.5422 19.8438 18.375 19.8438C17.2078 19.8438 16.2656 18.9016 16.2656 17.7344C16.2656 16.5672 17.2078 15.625 18.375 15.625C19.5422 15.625 20.4844 16.5672 20.4844 17.7344Z" fill="#1D2935"/>
</svg>
