<svg width="100" height="100" viewBox="0 0 100 100" fill="none" xmlns="http://www.w3.org/2000/svg">
<path fill-rule="evenodd" clip-rule="evenodd" d="M49.25 27.7778L40.5 29.9722V5.55554H59.5556V30.0555L50.8056 27.7778C50.2948 27.6507 49.7607 27.6507 49.25 27.7778V27.7778Z" fill="#0C9447"/>
<path fill-rule="evenodd" clip-rule="evenodd" d="M75.3889 56.3611C71.6189 56.3611 67.9336 57.4794 64.7993 59.5745C61.665 61.6695 59.2227 64.6473 57.7812 68.1308C56.3397 71.6144 55.964 75.4473 56.7015 79.1444C57.439 82.8416 59.2567 86.2369 61.9244 88.9008C64.5922 91.5646 67.9901 93.3773 71.6884 94.1094C75.3866 94.8416 79.2189 94.4602 82.7004 93.0137C86.1819 91.5672 89.156 89.1204 91.2465 85.9831C93.337 82.8458 94.45 79.1589 94.4445 75.3889C94.4371 70.3398 92.4262 65.5001 88.8534 61.9325C85.2806 58.3649 80.4379 56.3611 75.3889 56.3611V56.3611ZM76.0556 82.4166C75.4523 83.0016 74.6459 83.3301 73.8056 83.3333C72.9731 83.3317 72.1748 83.0024 71.5833 82.4166L65.2222 76.0555L69.6944 71.5555L73.7778 75.6944L81.0833 68.3889L85.5556 72.8889L76.0556 82.4166Z" fill="#0C9447"/>
<path fill-rule="evenodd" clip-rule="evenodd" d="M90.7222 9.27776C88.3415 6.89917 85.1153 5.56076 81.75 5.55554H65.8611V34.1389C65.8625 34.6185 65.7558 35.0923 65.549 35.5251C65.3423 35.9579 65.0407 36.3386 64.6667 36.6389C64.2751 36.9346 63.8231 37.1401 63.343 37.241C62.8628 37.3418 62.3663 37.3354 61.8889 37.2222L50 34.2222L38.0833 37.1944C37.6135 37.3124 37.1229 37.3219 36.6488 37.2223C36.1747 37.1228 35.7295 36.9166 35.3468 36.6196C34.9641 36.3225 34.654 35.9423 34.4399 35.5077C34.2258 35.0731 34.1134 34.5955 34.1111 34.1111V5.55554H18.25C14.8855 5.56288 11.6609 6.90268 9.28178 9.28176C6.9027 11.6608 5.5629 14.8855 5.55556 18.25V81.75C5.5629 85.1145 6.9027 88.3391 9.28178 90.7182C11.6609 93.0973 14.8855 94.4371 18.25 94.4444H58.6389C56.0586 92.1477 53.9747 89.348 52.515 86.2171C51.0553 83.0862 50.2506 79.6901 50.1503 76.2371C50.05 72.7841 50.6562 69.347 51.9317 66.1367C53.2072 62.9263 55.1251 60.0104 57.5677 57.5677C60.0104 55.1251 62.9263 53.2072 66.1367 51.9317C69.347 50.6562 72.7841 50.05 76.2371 50.1503C79.6901 50.2506 83.0862 51.0553 86.2171 52.515C89.348 53.9746 92.1477 56.0586 94.4445 58.6389V18.25C94.4392 14.8847 93.1008 11.6585 90.7222 9.27776V9.27776ZM21.4167 81.75C20.7904 81.75 20.1781 81.5643 19.6574 81.2163C19.1366 80.8684 18.7307 80.3738 18.4911 79.7952C18.2514 79.2165 18.1887 78.5798 18.3108 77.9655C18.433 77.3513 18.7346 76.787 19.1775 76.3442C19.6204 75.9013 20.1846 75.5997 20.7989 75.4775C21.4132 75.3553 22.0499 75.418 22.6285 75.6577C23.2071 75.8974 23.7017 76.3033 24.0497 76.824C24.3976 77.3448 24.5833 77.957 24.5833 78.5833C24.5761 79.4209 24.2401 80.2222 23.6478 80.8145C23.0555 81.4068 22.2543 81.7427 21.4167 81.75V81.75ZM34.1111 81.75C33.4848 81.75 32.8726 81.5643 32.3518 81.2163C31.8311 80.8684 31.4252 80.3738 31.1855 79.7952C30.9458 79.2165 30.8831 78.5798 31.0053 77.9655C31.1275 77.3513 31.4291 76.787 31.8719 76.3442C32.3148 75.9013 32.8791 75.5997 33.4933 75.4775C34.1076 75.3553 34.7443 75.418 35.3229 75.6577C35.9016 75.8974 36.3961 76.3033 36.7441 76.824C37.0921 77.3448 37.2778 77.957 37.2778 78.5833C37.2707 79.4162 36.9385 80.2133 36.3522 80.8049C35.7659 81.3964 34.9717 81.7355 34.1389 81.75H34.1111Z" fill="#1D2935"/>
</svg>
