<svg width="100" height="100" viewBox="0 0 100 100" fill="none" xmlns="http://www.w3.org/2000/svg">
<rect x="30" y="10" width="39" height="78" fill="white"/>
<rect x="30" y="27" width="39" height="46" fill="#0C9447"/>
<path d="M50 45.8234C52.5725 45.8234 54.6578 43.7381 54.6578 41.1656C54.6578 38.5932 52.5725 36.5078 50 36.5078C47.4276 36.5078 45.3422 38.5932 45.3422 41.1656C45.3422 43.7381 47.4276 45.8234 50 45.8234Z" fill="#1D2935"/>
<path d="M68.6305 6.21716H64.9039H35.0961H31.3695C25.7102 6.21716 21.1219 10.8062 21.1219 16.464V83.5351C21.1219 89.1945 25.7102 93.7828 31.3695 93.7828H68.6297C74.2891 93.7828 78.8774 89.1945 78.8774 83.5351V16.464C78.8782 10.8062 74.2899 6.21716 68.6305 6.21716V6.21716ZM36.0266 61.1797C36.0266 55.5211 40.6149 50.9328 46.2727 50.9328H46.8977C42.7555 49.6179 39.7516 45.7429 39.7516 41.1664C39.7516 35.5086 44.3414 30.9195 49.9992 30.9195C55.6586 30.9195 60.2453 35.5086 60.2453 41.1664C60.2453 45.7429 57.243 49.6179 53.1 50.9328H53.725C59.3844 50.9328 63.9711 55.5211 63.9711 61.1797V64.9062C63.9711 66.4492 62.7196 67.7008 61.1774 67.7008C59.6352 67.7008 58.3836 66.4484 58.3836 64.9062V61.1797C58.3836 58.6062 56.2977 56.5219 53.725 56.5219H46.2727C43.7 56.5219 41.6156 58.6062 41.6156 61.1797V64.9062C41.6156 66.4492 40.3625 67.7008 38.8203 67.7008C37.2781 67.7008 36.0266 66.4484 36.0266 64.9062V61.1797ZM60.2469 79.8086C60.2469 81.3515 58.9938 82.6031 57.4516 82.6031H42.5485C41.0039 82.6031 39.7531 81.3508 39.7531 79.8086C39.7531 78.2664 41.0047 77.0148 42.5485 77.0148H57.4516C58.9946 77.0148 60.2469 78.2664 60.2469 79.8086ZM60.386 11.8062L59.7086 13.1554C59.5516 13.4695 59.2281 13.6695 58.8758 13.6695H41.125C40.7727 13.6695 40.4492 13.4695 40.2922 13.1554L39.6195 11.8062H60.386Z" fill="#1D2935"/>
</svg>
