<svg width="13" height="14" viewBox="0 0 13 14" fill="none" xmlns="http://www.w3.org/2000/svg">
<path d="M12.9234 5.44293C12.8183 5.12041 12.5394 4.88594 12.2033 4.837L8.79917 4.34235L7.27804 1.26877C6.97685 0.66106 5.9814 0.66106 5.68021 1.26877L4.15908 4.34235L0.762984 4.837C0.427886 4.88594 0.14898 5.12123 0.0438433 5.44389C-0.0612933 5.76559 0.0260699 6.11942 0.269293 6.35635L2.73242 8.75713L2.15136 12.1443C2.09435 12.4785 2.23162 12.8171 2.50601 13.0167C2.78136 13.2154 3.14585 13.2414 3.44527 13.0836L6.47878 11.484L9.52118 13.0836C9.65134 13.1522 9.79394 13.1861 9.93558 13.1861C10.12 13.1861 10.3044 13.1282 10.4604 13.0169C10.735 12.8163 10.8721 12.4786 10.8151 12.1445L10.235 8.75727L12.6981 6.35649C12.9413 6.12024 13.0286 5.76559 12.9234 5.44293Z" fill="#EC5656"/>
</svg>
