<svg width="40" height="40" viewBox="0 0 40 40" fill="none" xmlns="http://www.w3.org/2000/svg">
<circle cx="20" cy="20" r="20" fill="#E9EAEB"/>
<path d="M31.4802 23.8723C31.4599 23.8346 31.4307 23.8064 31.3925 23.7861C31.3559 23.7658 31.3182 23.7553 31.279 23.7553C31.2394 23.7553 31.2017 23.7658 31.1651 23.7861C31.1284 23.8064 31.0982 23.8346 31.0778 23.8723C31.0575 23.9085 31.0471 23.9471 31.0471 23.9873C31.0471 24.0274 31.0575 24.0661 31.0778 24.1023C31.0992 24.1389 31.1279 24.1687 31.1641 24.189C31.2007 24.2093 31.2394 24.2197 31.28 24.2197C31.3192 24.2197 31.3578 24.2093 31.3945 24.189C31.4307 24.1687 31.4594 24.1389 31.4802 24.1023C31.5006 24.0661 31.511 24.0269 31.511 23.9873C31.511 23.9471 31.5011 23.9085 31.4802 23.8723ZM31.3583 24.0735H31.3078L31.2771 23.9972H31.2468V24.0735H31.2062V23.8792H31.2875C31.2974 23.8792 31.3177 23.8797 31.338 23.8901C31.3484 23.9001 31.3583 23.9194 31.3583 23.9387C31.3583 23.96 31.3484 23.9803 31.3281 23.9893L31.3583 24.0735Z" fill="#1D2935"/>
<path d="M31.2979 23.9189C31.2979 23.9149 31.2775 23.9149 31.2671 23.9149H31.2468V23.965H31.2775C31.2775 23.965 31.2879 23.965 31.2979 23.961C31.3083 23.9565 31.3083 23.9471 31.3083 23.9382C31.3083 23.9308 31.3083 23.9228 31.2979 23.9189Z" fill="#1D2935"/>
<path d="M24.8168 12.8149C22.962 12.8154 21.2721 13.5186 19.9985 14.6722C18.7239 13.5191 17.0351 12.8164 15.1827 12.8164C15.1673 12.8164 15.1519 12.8164 15.1366 12.8164C11.1929 12.8421 8 16.0504 8 19.9995C8 23.965 11.2182 27.1822 15.1827 27.1822C17.0351 27.1822 18.7234 26.4794 19.998 25.3263C19.7319 25.0859 19.4911 24.8198 19.2636 24.5413H20.7473C20.5233 24.8159 20.279 25.0726 20.0178 25.3104H20.0164C20.0168 25.3114 20.0168 25.3114 20.0168 25.3114C20.0109 25.3169 20.0045 25.3208 19.9985 25.3268C21.2726 26.4819 22.9644 27.1851 24.8198 27.1846C28.7873 27.1836 32.001 23.9665 32 20C32 19.9985 32 19.9975 32 19.9965C31.999 16.0301 28.7823 12.8149 24.8168 12.8149ZM19.3454 15.4146H20.7101C20.9123 15.6579 21.0992 15.9151 21.2676 16.1837H18.833C18.9886 15.9265 19.161 15.6633 19.3454 15.4146ZM18.4078 16.9384H21.6809C21.7984 17.1877 21.9015 17.4444 21.9907 17.708H18.0197C18.0589 17.6337 18.1976 17.3344 18.4078 16.9384ZM14.7882 21.7221H13.9358L14.4433 19.0609L13.2762 21.7221H12.5051L12.3629 19.0787L11.8555 21.7221H11.0839L11.744 18.2621H13.0735L13.1345 20.4049L14.0785 18.2621H15.4592L14.7882 21.7221ZM17.8032 20.227L17.6203 21.2265L17.5901 21.4054L17.5698 21.5481L17.5594 21.6443L17.5495 21.7206H16.8393L16.8596 21.4297C16.647 21.6616 16.3522 21.7691 15.9666 21.7691C15.5097 21.7691 15.195 21.4555 15.195 21.0015C15.195 20.3167 15.7431 19.9162 16.6867 19.9162C16.7779 19.9162 16.8998 19.9247 17.0316 19.938C17.0519 19.8454 17.0623 19.8067 17.0623 19.7552C17.0623 19.5694 16.9097 19.5 16.5142 19.5C16.2704 19.5 15.9964 19.5292 15.814 19.5778L15.6921 19.6085L15.6212 19.6268L15.7327 18.993C16.1589 18.885 16.433 18.8448 16.7476 18.8448C17.4781 18.8448 17.8641 19.1308 17.8641 19.67C17.8641 19.8097 17.8542 19.9143 17.8032 20.227ZM19.499 18.8384C20.1987 18.8384 20.6457 19.2363 20.6457 19.8602C20.6457 20.0689 20.615 20.2706 20.5431 20.556H18.8592C18.8488 20.5991 18.8488 20.6185 18.8488 20.6452C18.8488 20.9708 19.1025 21.1368 19.5897 21.1368C19.8944 21.1368 20.1685 21.0823 20.4728 20.9584L20.331 21.6631C20.0466 21.7394 19.7626 21.7766 19.4683 21.7766C18.5143 21.7766 18.0168 21.344 18.0168 20.5149C18.0168 19.55 18.6461 18.8394 19.499 18.8384ZM21.2766 23.8024H18.7279C18.5733 23.5546 18.4281 23.3004 18.3037 23.0333H21.6948C21.5704 23.2994 21.4312 23.5551 21.2766 23.8024ZM22.8381 19.554C22.6146 19.5282 22.3916 19.5129 22.2186 19.5129C21.9441 19.5129 21.8024 19.5902 21.8024 19.7413C21.8024 19.8731 21.843 19.9048 22.1983 20.0476C22.6339 20.2185 22.8074 20.445 22.8074 20.831C22.8074 21.4733 22.3911 21.7701 21.4773 21.7701C21.3663 21.7701 21.2141 21.7617 21.0109 21.7468C20.9094 21.7394 20.8286 21.7315 20.777 21.7211L20.6249 21.6933L20.5843 21.6854L20.7062 21.0362C20.9802 21.1135 21.2146 21.1472 21.4778 21.1472C21.8128 21.1472 21.9649 21.0689 21.9649 20.8935C21.9649 20.7646 21.9139 20.723 21.5689 20.5828C21.1125 20.3989 20.9094 20.1531 20.9094 19.7983C20.9094 19.2785 21.2444 18.8458 22.1988 18.8458C22.402 18.8458 22.737 18.8706 22.9595 18.9013L22.8381 19.554ZM24.1687 21.0922C24.2593 21.0922 24.3302 21.0833 24.3912 21.065L24.2797 21.6894C24.0463 21.7533 23.8639 21.7815 23.6706 21.7815C23.234 21.7815 23.0006 21.562 23.0006 21.1631C23.0006 21.0838 23.0105 20.9995 23.0209 20.9103L23.072 20.6333L23.1121 20.4108L23.5081 18.2621H24.35L24.2286 18.9083H24.6647L24.5428 19.5931H24.1062L23.8832 20.7671C23.8728 20.8182 23.8728 20.8568 23.8728 20.8831C23.8728 21.0293 23.9645 21.0912 24.1687 21.0922ZM26.2446 19.7002C25.8387 19.7002 25.7074 20.0025 25.4026 21.7236H24.5497L25.0676 18.9088H25.8392L25.7579 19.3359C26.0221 19.0034 26.2242 18.8785 26.4988 18.8785C26.5295 18.8785 26.5602 18.8815 26.5905 18.8855C26.5905 18.887 26.6217 18.8924 26.6628 18.9023C26.6727 18.9053 26.6826 18.9053 26.754 18.9331L26.4507 19.7284L26.3491 19.7076C26.3085 19.7027 26.2783 19.7002 26.2446 19.7002ZM27.7506 21.7974C26.7842 21.7974 26.3997 21.2136 26.3997 20.4995C26.3997 19.5029 27.0593 18.8265 28.0742 18.8265C28.9582 18.8265 29.4251 19.3825 29.4251 20.0961C29.4251 20.2711 29.4251 20.283 29.4047 20.4465C29.2724 21.3826 28.6228 21.7984 27.7506 21.7974ZM29.4959 21.7221C29.374 21.7221 29.2724 21.6235 29.2724 21.5015C29.2724 21.3816 29.374 21.283 29.4959 21.283C29.6178 21.283 29.7194 21.3816 29.7194 21.5015C29.7194 21.6239 29.6178 21.7221 29.4959 21.7221Z" fill="#1D2935"/>
<path d="M29.4959 21.335C29.4048 21.335 29.3235 21.4099 29.3235 21.5015C29.3235 21.5957 29.4048 21.67 29.4959 21.67C29.5876 21.67 29.6585 21.5947 29.6585 21.5015C29.6585 21.4104 29.5876 21.335 29.4959 21.335ZM29.5767 21.5997H29.5257L29.495 21.5238H29.4642V21.5997H29.4236V21.4049H29.5049C29.5158 21.4049 29.5361 21.4059 29.5564 21.4163C29.5663 21.4257 29.5767 21.445 29.5767 21.4649C29.5767 21.4857 29.5663 21.5065 29.546 21.5154L29.5767 21.5997Z" fill="#1D2935"/>
<path d="M29.5156 21.4446C29.5161 21.4401 29.4958 21.4401 29.4859 21.4401H29.4646V21.4902H29.4953C29.4953 21.4902 29.5057 21.4902 29.5156 21.4862C29.526 21.4817 29.526 21.4723 29.526 21.4639C29.526 21.4564 29.526 21.4485 29.5156 21.4446Z" fill="#1D2935"/>
<path d="M19.4885 19.4831C19.2145 19.4831 19.0217 19.662 18.9404 19.9881L19.8845 19.9901C19.8845 19.9286 19.8845 19.8811 19.8845 19.8444C19.8845 19.6159 19.7422 19.4831 19.4885 19.4831Z" fill="#1D2935"/>
<path d="M16.7371 20.4579C16.2609 20.4574 16.0171 20.6016 16.0171 20.8861C16.0171 21.061 16.1291 21.173 16.3214 21.173C16.6668 21.173 16.9101 20.8846 16.9304 20.4683C16.8387 20.4589 16.7981 20.4579 16.7371 20.4579Z" fill="#1D2935"/>
<path d="M28.0542 19.5153C27.6176 19.5153 27.354 20.0282 27.354 20.4802C27.354 20.8628 27.5364 21.1195 27.8411 21.1135C28.0245 21.1135 28.4194 20.8613 28.4908 20.4237C28.5106 20.3211 28.521 20.2086 28.521 20.0862C28.521 19.7929 28.3996 19.5143 28.0542 19.5153Z" fill="#1D2935"/>
</svg>
