<svg xmlns="http://www.w3.org/2000/svg" version="1.1" xmlns:xlink="http://www.w3.org/1999/xlink" xmlns:svgjs="http://svgjs.com/svgjs" width="512" height="512" x="0" y="0" viewBox="0 0 512 512" style="enable-background:new 0 0 512 512" xml:space="preserve" class=""><g><path fill="#fcb424" d="m49.8 470.2 206.4-84.9c5.7-2.3 7.6-9.2 4.2-15-9.6-16.2-29.8-47.7-55.4-73.3-24.8-24.8-54.9-43.8-70.6-52.9-5.7-3.3-12.5-1.3-14.8 4.3L34.6 455c-3.7 9 6.3 18.9 15.2 15.2z" data-original="#fcb424"></path><path fill="#d67909" d="M261.4 379.2c-6.1 6.1-42.5-17.2-80.5-55.2s-61.3-74.5-55.3-80.6c6.1-6.1 42.7 17 80.8 55.1s61 74.7 55 80.7z" data-original="#d67909"></path><path fill="#ed3f03" d="m135.6 434.9-48.2 19.9-37.3-37.4 19.8-48.2zM223 399l-48.2 19.8L86 330l19.8-48.2z" data-original="#ed3f03"></path><g fill="#fcb424"><circle cx="108.8" cy="116.7" r="14.8" fill="#fcb424" data-original="#fcb424"></circle><path d="M108.8 39c8.2 0 14.8 6.6 14.8 14.8V81c0 8.2-6.6 14.8-14.8 14.8-8.1 0-14.8-6.6-14.8-14.8V53.8c0-8.2 6.7-14.8 14.8-14.8zM45.9 101.9h27.2c8.2 0 14.8 6.6 14.8 14.8 0 8.2-6.6 14.8-14.8 14.8H45.9c-8.2 0-14.8-6.6-14.8-14.8 0-8.2 6.6-14.8 14.8-14.8zM108.8 137.6c8.2 0 14.8 6.6 14.8 14.8v27.2c0 8.2-6.6 14.8-14.8 14.8-8.2 0-14.8-6.6-14.8-14.8v-27.2c0-8.2 6.7-14.8 14.8-14.8zM144.5 101.9h27.2c8.2 0 14.8 6.6 14.8 14.8 0 8.2-6.6 14.8-14.8 14.8h-27.2c-8.2 0-14.8-6.6-14.8-14.8 0-8.2 6.6-14.8 14.8-14.8z" fill="#fcb424" data-original="#fcb424"></path></g><circle cx="425" cy="387.4" r="14.8" fill="#00c853" data-original="#00c853"></circle><path fill="#00c853" d="M425 309.7c8.2 0 14.8 6.6 14.8 14.8v27.2c0 8.2-6.6 14.8-14.8 14.8-8.2 0-14.8-6.6-14.8-14.8v-27.2c0-8.2 6.6-14.8 14.8-14.8zM362.1 372.6h27.2c8.2 0 14.8 6.6 14.8 14.8 0 8.2-6.6 14.8-14.8 14.8h-27.2c-8.2 0-14.8-6.6-14.8-14.8 0-8.2 6.6-14.8 14.8-14.8zM425 408.3c8.2 0 14.8 6.6 14.8 14.8v27.2c0 8.2-6.6 14.8-14.8 14.8-8.2 0-14.8-6.6-14.8-14.8v-27.2c0-8.2 6.6-14.8 14.8-14.8zM460.7 372.6h27.2c8.2 0 14.8 6.6 14.8 14.8 0 8.2-6.6 14.8-14.8 14.8h-27.2c-8.2 0-14.8-6.6-14.8-14.8 0-8.2 6.6-14.8 14.8-14.8z" data-original="#00c853"></path><circle cx="404.1" cy="95.8" r="14.8" fill="#07b7ee" data-original="#07b7ee" class=""></circle><path fill="#07b7ee" d="M404.1 18.1c8.2 0 14.8 6.6 14.8 14.8v27.2c0 8.2-6.6 14.8-14.8 14.8-8.2 0-14.8-6.6-14.8-14.8V32.9c0-8.2 6.7-14.8 14.8-14.8zM326.4 95.8c0-8.2 6.6-14.8 14.8-14.8h27.2c8.2 0 14.8 6.6 14.8 14.8 0 8.2-6.6 14.8-14.8 14.8h-27.2c-8.1 0-14.8-6.6-14.8-14.8zM404.1 173.5c-8.2 0-14.8-6.6-14.8-14.8v-27.2c0-8.2 6.6-14.8 14.8-14.8 8.2 0 14.8 6.6 14.8 14.8v27.2c.1 8.2-6.6 14.8-14.8 14.8zM481.9 95.8c0 8.2-6.6 14.8-14.8 14.8h-27.2c-8.2 0-14.8-6.6-14.8-14.8 0-8.2 6.6-14.8 14.8-14.8h27.2c8.1 0 14.8 6.6 14.8 14.8z" data-original="#07b7ee" class=""></path><path fill="#00c853" d="M167.7 303.7c-7.6-2.9-11.5-11.4-8.6-19.1 1.4-3.6 4-6.5 7.5-8.1 12.9-6.1 28.7-16.1 30.7-29.2 1.9-12.1-8.4-24.9-12.8-29-4.7-3.9-30.9-27.6-24.8-54 4.1-17.6 20.7-30.1 49.4-37 19-4.6 26.8-10.6 27.7-14.8 1.4-6.2-7.9-17.8-15-23.6-6.3-5.2-7.2-14.5-2-20.8 5.1-6.2 14.3-7.2 20.6-2.2 3.2 2.6 31.2 26.2 25.2 53-4 17.6-20.6 30-49.6 37-18.8 4.5-26.6 10.7-27.6 14.9-1.5 6.5 8.1 18.9 15.3 25l.5.4c1.1 1 26.8 24.9 22.2 55.3-3.1 20.9-19.1 38.2-47.3 51.6-3.5 1.9-7.7 2-11.4.6z" data-original="#00c853"></path><path fill="#fcb424" d="M353.8 511c-3.5 1.3-7.3 1.4-10.9.2-7.2-2.5-10-10-6.3-16.6 6.4-11.5 12.7-27.3 6.5-36.7-5.8-8.7-21.5-10.6-27.4-10.6-6 .3-40.7 1.1-51.8-19.1-7.4-13.5-1.9-31.3 16.3-52.8 12-14.2 14.5-22.7 12.8-25.8-2.6-4.7-16.9-6.5-25.8-5.9-8 .6-14.4-4.7-14.2-11.7s6.9-13.2 14.9-13.8c4.1-.3 40-2.2 51.5 18.2 7.5 13.4 1.9 31.2-16.5 52.9-11.9 14.1-14.3 22.6-12.5 25.8 2.7 5 17.6 7 26.9 6.5h.7c1.5 0 35.8-.4 50.5 21.4 10.1 15 8.1 35.4-5.9 60.7-2.1 3.5-5.2 6-8.8 7.3z" data-original="#fcb424"></path><path fill="#9266cc" d="M273.4 297.9c-7.9-.3-14-7-13.7-14.9.1-3.4 1.5-6.7 3.8-9.2.8-.9 20.3-21.6 56.5-39.8 21.2-10.6 43.7-18.2 67-22.6 29.9-5.5 60.5-6 90.5-1.5 7.8 1.1 13.2 8.4 12.1 16.2s-8.4 13.2-16.2 12.1c-50-7.3-96.9-.3-139.4 20.8-32 15.8-49.3 34.1-49.5 34.2-2.8 3.3-6.9 4.9-11.1 4.7zM70.4 324c-1.4 0-2.8-.2-4.1-.6-7.6-2.3-11.9-10.2-9.6-17.8 5.1-17.8 8.9-36 11.6-54.4 5.2-37.6.3-56.4-5.9-61.5-5-4.1-16.7-1.7-31.9 6.5-7 3.8-15.7 1.2-19.4-5.8-3.8-7-1.2-15.7 5.8-19.4 27.1-14.7 48.5-15.9 63.6-3.6 17.1 13.9 22.4 42.7 16.1 88-2.8 19.7-7 39.2-12.5 58.3-1.8 6.1-7.4 10.3-13.7 10.3z" data-original="#9266cc"></path><circle cx="308.3" cy="183.6" r="18.1" fill="#fcb424" data-original="#fcb424"></circle><circle cx="290.2" cy="18.1" r="18.1" fill="#ed3f03" data-original="#ed3f03"></circle><circle cx="212.3" cy="454.8" r="20.4" fill="#9266cc" data-original="#9266cc"></circle><circle cx="383.3" cy="290.5" r="14.2" fill="#07b7ee" data-original="#07b7ee" class=""></circle><circle cx="474.3" cy="36.2" r="15.5" fill="#9266cc" data-original="#9266cc"></circle></g></svg>