<svg width="60" height="60" viewBox="0 0 60 60" fill="none" xmlns="http://www.w3.org/2000/svg">
<g clip-path="url(#clip0_517_2)">
<path d="M0 0H60V60H0V30V0Z" fill="#0C9447"/>
<path d="M29.7391 2.08694C29.9478 2.11303 35.7652 5.71303 42.6522 10.0956C49.5391 14.4782 55.6696 18.4174 56.2956 18.8348C57 19.3043 57.3391 19.6956 57.2609 19.9565C57.1565 20.2435 56.6348 20.3739 53.0869 20.4782L53.0087 38.6087C52.9565 52.3826 52.8522 56.8174 52.6174 57.0782C52.3826 57.3391 51.0261 57.4174 47.0869 57.4174C43.1478 57.4174 41.7913 57.3391 41.5565 57.0782C41.3217 56.8435 41.2174 54.9913 41.0869 45H29.8696L29.6087 57.2609H6.65216L6.3913 20.4782L4.30434 20.3478C2.73912 20.2435 2.19129 20.113 2.13912 19.8261C2.08695 19.5652 3.65216 18.4174 11.6869 13.2782L11.8696 4.04347H17.8696L17.9478 6.65216C18 8.08694 18.1043 9.36521 18.2087 9.46955C18.313 9.59999 20.8435 7.9826 23.8696 5.89564C26.8696 3.80868 29.5304 2.08694 29.7391 2.08694V2.08694Z" fill="#FAFCFB"/>
<path d="M12.2608 19.3044C12.6261 19.3044 13.3304 19.4348 13.8261 19.5913C14.3217 19.7739 15.1304 20.1652 15.6 20.5044C16.0435 20.8435 16.6174 21.4696 16.8261 21.913C17.0348 22.3565 17.2174 22.7478 17.2174 22.8261C17.2174 22.9044 16.5652 22.9565 15.7826 22.9565C15 22.9565 14.3478 22.8261 14.3478 22.6957C14.3478 22.5652 13.9826 22.2522 13.5652 22.0435C13.1478 21.8348 12.5217 21.6522 12.1826 21.6522C11.8695 21.6261 11.3217 21.8609 10.9565 22.1217C10.5913 22.3826 10.1478 22.9565 9.96519 23.3739C9.73041 23.8174 9.67823 24.5217 9.7565 25.0957C9.83476 25.6435 10.2 26.3739 10.5652 26.7391C11.0608 27.2348 11.4782 27.3913 12.3913 27.3913C13.2261 27.3913 13.7217 27.2348 14.0869 26.8696C14.3739 26.5826 14.6087 26.2174 14.6087 26.087C14.6087 25.9565 13.9565 25.8261 11.7391 25.8261V24H17.6087L17.4782 25.2261C17.4 25.9304 17.0348 26.9478 16.6695 27.5217C16.2261 28.2 15.5739 28.7739 14.713 29.1913C13.6956 29.687 13.1217 29.7913 11.9739 29.713C11.0087 29.6348 10.2 29.4 9.49563 28.9304C8.89563 28.5391 8.24345 27.7826 7.90432 27.1044C7.51302 26.3478 7.30432 25.487 7.30432 24.5739C7.30432 23.8435 7.46084 22.8261 7.66954 22.3565C7.85215 21.913 8.3478 21.2087 8.76519 20.7913C9.18258 20.4 9.99128 19.9044 10.5652 19.6957C11.1391 19.487 11.8956 19.3304 12.2608 19.3044V19.3044ZM41.7391 19.5652H43.8261V29.4783H42.5739C41.8956 29.4783 40.7478 29.5565 40.0435 29.6348C39.0521 29.7652 38.5304 29.687 37.8521 29.3217C37.3826 29.0348 36.7565 28.3826 36.4956 27.8348C36.2087 27.313 36 26.4 36 25.8261C36 25.2522 36.2348 24.313 36.5217 23.7391C36.8348 23.113 37.3826 22.513 37.8782 22.2783C38.4261 22.0174 39.1304 21.887 39.7826 21.9652C40.3565 22.0435 41.0348 22.1739 41.2695 22.2522C41.6869 22.4087 41.7391 22.2522 41.7391 21V19.5652ZM22.3565 21.913C22.8261 21.913 23.6348 22.1217 24.1565 22.3565C24.7043 22.6174 25.3565 23.1652 25.6435 23.6087C25.9565 24.0522 26.2435 24.913 26.2956 25.5652C26.3478 26.3478 26.2174 27.0522 25.9043 27.6522C25.6435 28.1478 25.0174 28.8261 24.5217 29.1652C23.9217 29.5565 23.2174 29.7391 22.4869 29.7391C21.8869 29.7391 21.0782 29.5826 20.6608 29.3739C20.2695 29.1652 19.6695 28.6957 19.3043 28.3044C18.8087 27.7565 18.6261 27.2609 18.5739 26.1391C18.4956 24.913 18.5739 24.4957 19.0956 23.7391C19.4348 23.2435 20.113 22.6174 20.6087 22.3826C21.1043 22.1217 21.913 21.913 22.3565 21.913V21.913ZM31.0956 21.913C31.6435 21.913 32.5043 22.1217 33.0261 22.3565C33.5739 22.6174 34.2261 23.1652 34.513 23.6087C34.8261 24.0522 35.113 24.913 35.1652 25.5652C35.2174 26.3478 35.0869 27.0522 34.7739 27.6261C34.513 28.1217 34.0174 28.7478 33.6521 29.0348C33.2869 29.2957 32.4 29.5826 31.6956 29.6609C30.7304 29.7652 30.1304 29.687 29.3739 29.3217C28.8261 29.0348 28.1478 28.4087 27.8348 27.913C27.4695 27.287 27.313 26.5826 27.3391 25.6957C27.3391 24.8348 27.5217 24.1565 27.8608 23.7391C28.1217 23.3739 28.7478 22.8261 29.2174 22.487C29.7391 22.1478 30.4956 21.913 31.0956 21.913V21.913ZM17.2174 30.1826C17.713 30.2609 18.6 30.5739 19.1739 30.913C19.7478 31.2261 20.4782 31.8783 20.7913 32.3739C21.1043 32.8696 21.3913 33.3391 21.3913 33.4435C21.3913 33.5739 20.7913 33.6522 20.0869 33.6522C19.0695 33.6522 18.6 33.4957 18 33C17.5565 32.6348 16.9826 32.3478 16.6956 32.3478C16.4087 32.3478 15.8869 32.4783 15.5217 32.6087C15.1565 32.7391 14.6348 33.2609 14.3478 33.7304C14.0608 34.1739 13.8261 34.9044 13.8261 35.3478C13.8261 35.7913 14.0608 36.5217 14.3478 36.9913C14.6869 37.5131 15.2087 37.9304 15.7826 38.087C16.513 38.2957 16.8782 38.2435 17.6087 37.8783C18.1304 37.6435 18.6 37.2783 18.6521 37.0957C18.7565 36.8609 18.3913 36.7826 15.913 36.7826V34.6957H21.7826L21.6521 35.9217C21.5739 36.6261 21.2087 37.6435 20.8435 38.2174C20.4521 38.8435 19.7217 39.4957 19.0174 39.8348C18.2348 40.2261 17.4 40.4348 16.4348 40.4348C15.4435 40.4348 14.6869 40.2522 13.9565 39.8348C13.4087 39.5217 12.6521 38.8435 12.313 38.3478C12 37.8522 11.6087 36.9913 11.4782 36.4435C11.3217 35.9217 11.2956 35.0348 11.3739 34.487C11.4782 33.9652 11.6869 33.2348 11.8695 32.8696C12.0521 32.5044 12.6 31.8783 13.0435 31.4348C13.513 30.9913 14.4261 30.5217 15.1043 30.3391C15.7565 30.1826 16.7217 30.1044 17.2174 30.1826V30.1826ZM26.4 32.6087C26.7652 32.6087 26.8695 32.8174 26.8695 33.7044C26.8695 34.7478 26.8174 34.8522 25.3043 35.2174V37.2261C25.3043 38.3478 25.2521 39.5217 25.1739 39.8348C25.0695 40.3304 24.8608 40.4348 22.9565 40.4348V32.8696H24C24.6782 32.8696 25.0174 32.9739 24.9913 33.1826C24.9652 33.3652 25.1478 33.313 25.4348 33.0522C25.7217 32.8174 26.1391 32.6087 26.4 32.6087ZM31.1739 32.6087C31.7478 32.6087 32.5826 32.8435 33.0521 33.1304C33.5217 33.4174 34.1478 34.0435 34.4348 34.487C34.7217 34.9565 34.9565 35.7913 34.9565 37.3044H32.2174C29.5565 37.3044 29.4782 37.3304 29.7391 37.8261C29.8695 38.113 30.313 38.4261 30.7043 38.5304C31.1739 38.6348 31.6956 38.5304 32.1391 38.2696C32.5565 38.0087 33.2869 37.8261 33.7826 37.8261C34.2782 37.8261 34.6956 37.9304 34.6956 38.087C34.6956 38.2435 34.4087 38.6609 34.0956 39.0522C33.7565 39.4696 33.0782 39.9391 32.5826 40.1478C32.0087 40.3826 31.2782 40.4609 30.5217 40.3565C29.6348 40.2522 29.113 39.9652 28.4348 39.2609C27.6261 38.4522 27.5217 38.1391 27.4435 36.8348C27.3913 35.687 27.4956 35.1652 27.8869 34.487C28.2 34.0435 28.8261 33.4174 29.2695 33.1304C29.7652 32.8435 30.6 32.6087 31.1739 32.6087V32.6087ZM39.6 32.6087C40.4608 32.6087 41.113 32.7652 41.7391 33.1826C42.2348 33.5217 42.8608 34.2 43.0956 34.6957C43.3565 35.1913 43.5652 36 43.5652 37.3044H40.8261C39.1826 37.3044 38.0869 37.4087 38.0869 37.5652C38.0869 37.7217 38.3478 38.0087 38.6608 38.2174C39 38.4261 39.4956 38.6087 39.7826 38.6348C40.0695 38.6348 40.4869 38.4522 40.6956 38.2174C40.9304 37.9565 41.5043 37.8 42.1826 37.8261C42.8087 37.8261 43.3043 37.8783 43.3043 37.9565C43.3043 38.0348 43.0695 38.4261 42.7826 38.8696C42.4956 39.313 41.9217 39.8348 41.4782 40.0435C41.0348 40.2522 40.2 40.4348 39.5739 40.4348C38.9478 40.4348 38.1391 40.2261 37.6174 39.913C37.1739 39.6261 36.6261 39.0783 36.4174 38.6609C36.2348 38.2696 36 37.6435 35.8956 37.2261C35.8174 36.8348 35.8434 36.0783 35.9739 35.5304C36.1304 34.9304 36.6261 34.2 37.2782 33.5739C38.1913 32.7391 38.5304 32.6087 39.6 32.6087V32.6087ZM48.8348 32.6087C49.5913 32.6087 50.0087 32.7913 51.3913 34.1739V40.4348H49.3043V38.087C49.3043 36.8087 49.2 35.5044 49.0435 35.2174C48.8869 34.9304 48.5217 34.6957 48.1826 34.6957C47.8435 34.6957 47.4521 34.8522 47.2695 35.0087C47.0608 35.2435 46.9565 36.2348 46.9565 40.4348H44.6087V32.8696H45.6521C46.2261 32.8696 46.6695 33 46.6695 33.1565C46.6434 33.287 46.9043 33.2348 47.2435 33C47.5826 32.7913 48.313 32.6087 48.8348 32.6087Z" fill="#0C9447"/>
<path d="M22.3565 24C22.6174 23.9739 23.1131 24.1826 23.4522 24.4435C23.8957 24.7826 24.0783 25.1739 24.0783 25.8261C24.0783 26.4783 23.8957 26.8696 23.4522 27.2087C23.1131 27.4696 22.5652 27.6783 22.2261 27.6522C21.9131 27.6522 21.4174 27.3391 21.1304 26.9478C20.8174 26.5304 20.6087 26.0087 20.6087 25.7478C20.6348 25.487 20.9217 24.9913 21.2609 24.6522C21.6 24.287 22.0957 24 22.3565 24ZM31.3565 24C31.6174 24 32.0609 24.2348 32.3478 24.5217C32.6609 24.8348 32.8696 25.3826 32.8696 25.9565C32.8696 26.6087 32.7131 26.9739 32.2696 27.2609C31.9565 27.4696 31.4609 27.6522 31.1739 27.6522C30.887 27.6522 30.3913 27.4174 30.0522 27.1304C29.7391 26.8435 29.4783 26.2957 29.4522 25.8522C29.4261 25.3044 29.6348 24.9391 30.1565 24.5478C30.5478 24.2348 31.0696 24 31.3565 24ZM40.0174 24C40.4609 24 41.0348 24.2087 41.2957 24.4696C41.5826 24.7304 41.7652 25.2783 41.7391 25.9044C41.7391 26.6087 41.5826 26.9739 41.1391 27.2609C40.8261 27.4696 40.3304 27.6522 40.0435 27.6783C39.7565 27.6783 39.2348 27.4696 38.8957 27.2087C38.5044 26.8957 38.2696 26.4522 38.2435 25.9304C38.2174 25.4348 38.4261 24.8609 38.7131 24.5478C39.0261 24.2087 39.5217 24 40.0174 24ZM30.9652 34.4348C31.2261 34.4087 31.7217 34.6435 32.087 34.9304C32.4522 35.1913 32.6348 35.5044 32.4783 35.6087C32.3478 35.687 31.5913 35.7391 29.3478 35.6087L29.9217 35.0348C30.2609 34.6957 30.7304 34.4348 30.9652 34.4348ZM39.5739 34.4348C39.8348 34.4087 40.3304 34.6435 40.6957 34.9304C41.0609 35.1913 41.2435 35.5044 41.087 35.6087C40.9565 35.687 40.2 35.7391 37.9565 35.6087L38.5304 35.0348C38.8696 34.6957 39.3391 34.4348 39.5739 34.4348Z" fill="#FAFCFB"/>
</g>
<defs>
<clipPath id="clip0_517_2">
<rect width="60" height="60" rx="5" fill="white"/>
</clipPath>
</defs>
</svg>
