<svg xmlns="http://www.w3.org/2000/svg" version="1.1" xmlns:xlink="http://www.w3.org/1999/xlink" xmlns:svgjs="http://svgjs.com/svgjs" width="512" height="512" x="0" y="0" viewBox="0 0 512 512" style="enable-background:new 0 0 512 512" xml:space="preserve" class=""><g><path d="M308.376 352.87 512 488.941V201.886zM50.453 149.584l-34.588 25.618 34.588 25.807zM256 391.706l-26.701-19.913L19.446 512h473.065l-209.73-140.152zM0 200.789v288.123l203.781-136.15zM461.547 149.584v52.368l35.33-26.199zM176.949 223.432c9.853-9.646 21.177-17.278 33.454-22.693-9.685-10.828-15.587-25.106-15.587-40.741 0-33.737 27.447-61.185 61.185-61.185s61.185 27.447 61.185 61.185c0 15.639-5.905 29.92-15.594 40.749 12.041 5.311 23.171 12.75 32.887 22.129 14.646 14.138 25.015 31.629 30.363 50.788l66.707-49.466V0H80.453v223.393l66.821 49.857c5.303-18.732 15.415-35.857 29.675-49.818z" fill="#0c9447" data-original="#000000" class=""></path><circle cx="256" cy="159.997" r="31.185" fill="#0c9447" data-original="#000000" class=""></circle><path d="M256 221.182c-21.84 0-42.461 8.412-58.064 23.688-13.345 13.065-21.733 29.901-24.179 48.14L256 354.373l82.301-61.029c-2.416-18.571-11.007-35.707-24.658-48.885-15.551-15.011-36.022-23.277-57.643-23.277z" fill="#0c9447" data-original="#000000" class=""></path></g></svg>