<svg id="Layer_3" data-name="Layer 3" xmlns="http://www.w3.org/2000/svg" viewBox="0 0 23.98 23"><defs><style>.cls-1{fill:#f39200;}</style></defs><path class="cls-1" d="M17.71,23a2,2,0,0,1-.9-.22l-5.18-2.72a.24.24,0,0,0-.26,0L6.19,22.78A1.94,1.94,0,0,1,3.57,22a1.88,1.88,0,0,1-.19-1.23l1-5.76a.25.25,0,0,0-.08-.25L.1,10.63A1.94,1.94,0,0,1,1.18,7.32L7,6.48a.27.27,0,0,0,.21-.15L9.76,1.08a1.95,1.95,0,0,1,3.48,0l2.58,5.25a.29.29,0,0,0,.22.15l5.78.84a1.94,1.94,0,0,1,1.08,3.31l-4.19,4.08a.33.33,0,0,0-.08.25l1,5.77A1.94,1.94,0,0,1,18,23a1.73,1.73,0,0,1-.32,0ZM11.5,18.36a1.88,1.88,0,0,1,.9.23l5.18,2.72a.26.26,0,0,0,.29,0A.26.26,0,0,0,18,21l-1-5.76a1.93,1.93,0,0,1,.56-1.72l4.18-4.08a.28.28,0,0,0,0-.4A.35.35,0,0,0,21.59,9L15.8,8.13a1.93,1.93,0,0,1-1.46-1.07L11.75,1.82a.29.29,0,0,0-.38-.13.3.3,0,0,0-.12.13L8.66,7.06A2,2,0,0,1,7.2,8.13L1.41,9a.28.28,0,0,0-.24.31.28.28,0,0,0,.09.17l4.18,4.08A1.93,1.93,0,0,1,6,15.25L5,21a.28.28,0,0,0,.23.32.36.36,0,0,0,.18,0l5.18-2.73a2,2,0,0,1,.9-.22Z" transform="translate(0.49)"/></svg>