<?xml version="1.0" encoding="utf-8"?>
<!-- Generator: Adobe Illustrator 24.3.0, SVG Export Plug-In . SVG Version: 6.00 Build 0)  -->
<svg version="1.1" id="Layer_1" xmlns="http://www.w3.org/2000/svg" xmlns:xlink="http://www.w3.org/1999/xlink" x="0px" y="0px"
	 viewBox="0 0 13 14" style="enable-background:new 0 0 13 14;" xml:space="preserve">
<style type="text/css">
	.st0{fill:none;stroke:#0C9447;}
</style>
<path class="st0" d="M8.4,4.6l0.1,0.2l0.3,0l3.4,0.5c0.1,0,0.3,0.1,0.3,0.3c0,0.1,0,0.3-0.1,0.4l0,0L9.9,8.4L9.7,8.6l0,0.3l0.6,3.4
	c0,0.1,0,0.3-0.2,0.4c-0.1,0.1-0.3,0.1-0.4,0l0,0l-3-1.6l-0.2-0.1L6.3,11l-3,1.6c0,0,0,0,0,0c-0.1,0-0.1,0-0.2,0
	c-0.1,0-0.2,0-0.2-0.1c-0.1-0.1-0.2-0.2-0.2-0.4c0,0,0,0,0,0l0.6-3.4l0-0.3L3.1,8.4L0.7,6l0,0C0.5,5.9,0.5,5.7,0.6,5.6l0,0
	c0-0.1,0.2-0.2,0.3-0.3c0,0,0,0,0,0c0,0,0,0,0,0l3.4-0.5l0.3,0l0.1-0.2l1.5-3.1c0,0,0,0,0,0c0-0.1,0.2-0.2,0.4-0.2
	c0.2,0,0.3,0.1,0.4,0.2L8.4,4.6z"/>
</svg>
