<svg id="Capa_1" data-name="Capa 1" xmlns="http://www.w3.org/2000/svg" viewBox="0 0 19.32 16"><defs><style>.cls-1{fill:#1d2935;}</style></defs><g id="arrow-1-e"><path class="cls-1" d="M9.63,16a1.22,1.22,0,0,1-1.16-1.26,1.25,1.25,0,0,1,.3-.74l6-6-6-6a1.22,1.22,0,0,1,0-1.7,1.2,1.2,0,0,1,1.71,0h0L17.3,7.17a1.21,1.21,0,0,1,0,1.71h0L10.49,15.7A1.24,1.24,0,0,1,9.63,16Z" transform="translate(1.66)"/><path class="cls-1" d="M16.43,9.17H-.45A1.21,1.21,0,0,1-1.66,8,1.21,1.21,0,0,1-.45,6.76H16.43a1.21,1.21,0,1,1,0,2.41Z" transform="translate(1.66)"/></g></svg>