<svg width="16" height="16" viewBox="0 0 16 16" fill="none" xmlns="http://www.w3.org/2000/svg">
<path d="M3.55531 7.37568L10.6755 0.255608C10.8402 0.090796 11.06 0 11.2944 0C11.5288 0 11.7487 0.090796 11.9134 0.255608L12.4377 0.779831C12.7789 1.12142 12.7789 1.6766 12.4377 2.01767L6.4587 7.99668L12.4443 13.9823C12.609 14.1471 12.7 14.3668 12.7 14.6011C12.7 14.8357 12.609 15.0554 12.4443 15.2203L11.92 15.7444C11.7552 15.9092 11.5355 16 11.3011 16C11.0667 16 10.8468 15.9092 10.6821 15.7444L3.55531 8.61782C3.39024 8.45248 3.29957 8.23174 3.30009 7.99707C3.29957 7.7615 3.39024 7.54088 3.55531 7.37568Z" fill="#1D2935"/>
</svg>
