<?xml version="1.0" encoding="utf-8"?>
<!-- Generator: Adobe Illustrator 24.3.0, SVG Export Plug-In . SVG Version: 6.00 Build 0)  -->
<svg version="1.1" id="Layer_1" xmlns="http://www.w3.org/2000/svg" xmlns:xlink="http://www.w3.org/1999/xlink" x="0px" y="0px"
	 viewBox="0 0 8.8 15" style="enable-background:new 0 0 8.8 15;" xml:space="preserve">
<style type="text/css">
	.st0{fill:#0C9447;}
</style>
<path class="st0" d="M8.6,6.9L1.9,0.2C1.8,0.1,1.5,0,1.3,0C1.1,0,0.9,0.1,0.7,0.2L0.2,0.7c-0.3,0.3-0.3,0.8,0,1.2c0,0,0,0,0,0
	l5.6,5.6l-5.6,5.6C0.1,13.3,0,13.5,0,13.7c0,0.2,0.1,0.4,0.2,0.6l0.5,0.5C0.9,14.9,1.1,15,1.3,15c0.2,0,0.4-0.1,0.6-0.2l6.7-6.7
	c0.2-0.2,0.2-0.4,0.2-0.6C8.8,7.3,8.7,7.1,8.6,6.9z"/>
</svg>
