<svg width="9" height="15" viewBox="0 0 9 15" fill="none" xmlns="http://www.w3.org/2000/svg">
<path d="M8.66692 6.9147L1.99173 0.239632C1.83734 0.0851213 1.63124 0 1.41149 0C1.19173 0 0.985639 0.0851213 0.83125 0.239632L0.339669 0.731092C0.0197931 1.05133 0.0197931 1.57182 0.339669 1.89157L5.94499 7.49689L0.333449 13.1084C0.17906 13.2629 0.0938168 13.4689 0.0938168 13.6885C0.0938168 13.9084 0.17906 14.1144 0.333449 14.269L0.82503 14.7604C0.979541 14.9149 1.18552 15 1.40527 15C1.62502 15 1.83112 14.9149 1.98551 14.7604L8.66692 8.0792C8.82167 7.9242 8.90667 7.71725 8.90619 7.49726C8.90667 7.2764 8.82167 7.06958 8.66692 6.9147Z" fill="#1D2935"/>
</svg>
