<svg width="9" height="15" viewBox="0 0 9 15" fill="none" xmlns="http://www.w3.org/2000/svg">
<path d="M8.66691 6.9147L1.99172 0.239632C1.83733 0.0851213 1.63124 0 1.41148 0C1.19173 0 0.985633 0.0851213 0.831244 0.239632L0.339663 0.731092C0.0197873 1.05133 0.0197873 1.57182 0.339663 1.89157L5.94498 7.49689L0.333443 13.1084C0.179054 13.2629 0.093811 13.4689 0.093811 13.6885C0.093811 13.9084 0.179054 14.1144 0.333443 14.269L0.825025 14.7604C0.979536 14.9149 1.18551 15 1.40526 15C1.62502 15 1.83111 14.9149 1.9855 14.7604L8.66691 8.0792C8.82167 7.9242 8.90667 7.71725 8.90618 7.49726C8.90667 7.2764 8.82167 7.06958 8.66691 6.9147Z" fill="white"/>
</svg>
