<svg width="14" height="14" viewBox="0 0 14 14" fill="none" xmlns="http://www.w3.org/2000/svg">
<path d="M8.98409 4.7994L8.86765 4.56413L7.34664 1.49081C7.3001 1.3969 7.17862 1.31299 6.99573 1.31299C6.81293 1.31299 6.69147 1.39681 6.64488 1.49067C6.64485 1.49071 6.64483 1.49076 6.64481 1.49081L5.1238 4.56413L5.00741 4.79931L4.74774 4.83713L1.35185 5.33175C1.35181 5.33175 1.35176 5.33176 1.35172 5.33176C1.3517 5.33177 1.35167 5.33177 1.35165 5.33178C1.20506 5.35326 1.0822 5.45653 1.03584 5.5988L1.03571 5.59921C0.99002 5.73901 1.02766 5.89385 1.13479 5.9982L1.13489 5.9983L3.59801 8.39908L3.78627 8.58257L3.74182 8.84167L3.16084 12.2284C3.16082 12.2285 3.16081 12.2286 3.1608 12.2287C3.13584 12.3756 3.19624 12.5243 3.31595 12.6118C3.43786 12.6993 3.59828 12.7099 3.72864 12.6413C3.72869 12.6413 3.72873 12.6413 3.72878 12.6413L6.76202 11.0417L6.9949 10.9189L7.22793 11.0414L10.2703 12.641L10.2709 12.6413C10.3277 12.6713 10.39 12.6861 10.452 12.6861C10.5314 12.6861 10.6134 12.6613 10.6842 12.6115C10.8044 12.5224 10.8635 12.3745 10.8387 12.2287C10.8387 12.2287 10.8387 12.2286 10.8387 12.2286L10.2586 8.84167L10.2143 8.58264L10.4025 8.39921L12.8656 5.99843L12.8663 5.99773C12.9722 5.89491 13.0108 5.73975 12.9646 5.5979L8.98409 4.7994ZM8.98409 4.7994L9.24387 4.83715M8.98409 4.7994L9.24387 4.83715M9.24387 4.83715L12.6479 5.33178M9.24387 4.83715L12.6479 5.33178M12.6479 5.33178C12.7964 5.35341 12.9186 5.45665 12.9646 5.59784L12.6479 5.33178Z" stroke="#EC5656"/>
</svg>
