<svg id="Layer_1" data-name="Layer 1" xmlns="http://www.w3.org/2000/svg" viewBox="0 0 12.19 14"><defs><style>.cls-1{fill:#3da96c;}</style></defs><path class="cls-1" d="M9.93,13.34a.65.65,0,0,1-.65.66H3.09A2.2,2.2,0,0,1,.9,11.81V2.19A2.2,2.2,0,0,1,3.09,0H9.28a.65.65,0,0,1,.65.66.65.65,0,0,1-.65.65H3.09a.87.87,0,0,0-.87.88v9.62a.87.87,0,0,0,.87.88H9.28a.65.65,0,0,1,.65.65Zm3-6.8L9.78,3.42a.64.64,0,0,0-.92,0,.65.65,0,0,0,0,.93h0l2,2H5.69a.66.66,0,0,0,0,1.32h5.16l-2,2a.66.66,0,0,0,.92.94h0L12.9,7.46A.64.64,0,0,0,12.9,6.54Z" transform="translate(-0.9)"/></svg>