<svg width="56" height="80" viewBox="0 0 56 80" fill="none" xmlns="http://www.w3.org/2000/svg">
<path d="M27.9998 55.3833C32.2311 55.3833 35.8522 53.8768 38.8649 50.8653C41.877 47.8538 43.3833 44.2309 43.3833 39.9999V15.385C43.3833 11.154 41.8782 7.53263 38.8649 4.51961C35.8522 1.50727 32.2311 0 27.9998 0C23.7689 0 20.1474 1.50727 17.1345 4.51961C14.1215 7.53213 12.6152 11.154 12.6152 15.385V39.9999C12.6152 44.2307 14.1222 47.8538 17.1345 50.8653C20.1469 53.8768 23.7689 55.3833 27.9998 55.3833Z" fill="#0C9447"/>
<path d="M54.7776 31.6827C54.1704 31.0737 53.4477 30.769 52.6143 30.769C51.7818 30.769 51.0607 31.0737 50.451 31.6827C49.8426 32.2916 49.5381 33.0127 49.5381 33.8457V39.9999C49.5381 45.9296 47.4302 51.0014 43.2154 55.216C39.0019 59.4309 33.9295 61.5383 27.9996 61.5383C22.0699 61.5383 16.9979 59.4309 12.7829 55.216C8.56845 51.0026 6.46137 45.9298 6.46137 39.9999V33.8457C6.46137 33.0127 6.15675 32.2916 5.54802 31.6827C4.93895 31.0737 4.21857 30.769 3.3847 30.769C2.55083 30.769 1.82961 31.0737 1.22088 31.6827C0.611641 32.2916 0.30719 33.0127 0.30719 33.8457V39.9999C0.30719 47.0833 2.6714 53.2454 7.39847 58.4852C12.1257 63.7252 17.967 66.7298 24.9226 67.4985V73.8453H12.6151C11.7817 73.8453 11.0606 74.1503 10.4517 74.7593C9.84266 75.3679 9.53804 76.0893 9.53804 76.9226C9.53804 77.7547 9.84266 78.4774 10.4517 79.086C11.0606 79.6945 11.7817 80 12.6151 80H43.3833C44.2165 80 44.9385 79.6947 45.5466 79.086C46.1563 78.4776 46.4611 77.7548 46.4611 76.9226C46.4611 76.0894 46.1563 75.3681 45.5466 74.7593C44.9387 74.1503 44.2166 73.8453 43.3833 73.8453H31.0773V67.4985C38.0316 66.7298 43.8724 63.7252 48.6002 58.4852C53.3279 53.2454 55.6928 47.0833 55.6928 39.9999V33.8457C55.6928 33.0129 55.3875 32.2923 54.7776 31.6827Z" fill="#1D2935"/>
</svg>
