<svg width="60" height="70" viewBox="0 0 60 70" fill="none" xmlns="http://www.w3.org/2000/svg">
<path d="M57.8125 18.25H26.5625C26.2313 18.251 25.9139 18.383 25.6797 18.6172C25.4455 18.8514 25.3135 19.1688 25.3125 19.5V50.5C25.3164 50.7429 25.3906 50.9795 25.5262 51.1812C25.6618 51.3828 25.8529 51.5408 26.0765 51.636C26.3 51.7313 26.5464 51.7596 26.7857 51.7178C27.025 51.6759 27.2471 51.5655 27.425 51.4L34.8125 44.2625H57.8125C57.9768 44.2631 58.1396 44.2311 58.2915 44.1685C58.4434 44.1059 58.5815 44.0138 58.6977 43.8977C58.8138 43.7815 58.9059 43.6434 58.9685 43.4915C59.0311 43.3396 59.0631 43.1768 59.0625 43.0125V19.5C59.0615 19.1688 58.9295 18.8514 58.6953 18.6172C58.4611 18.383 58.1437 18.251 57.8125 18.25V18.25Z" fill="#0C9447"/>
<path d="M29.1625 53.2C28.6286 53.6988 27.9615 54.032 27.242 54.159C26.5224 54.286 25.7815 54.2014 25.1092 53.9155C24.4368 53.6296 23.8619 53.1546 23.4542 52.5483C23.0465 51.942 22.8236 51.2304 22.8125 50.4998V19.5C22.8154 18.5063 23.2114 17.5542 23.9141 16.8516C24.6167 16.1489 25.5688 15.7529 26.5625 15.75H43.4375V5C43.4377 4.34334 43.3085 3.69308 43.0573 3.08636C42.8061 2.47965 42.4378 1.92838 41.9734 1.46405C41.5091 0.999722 40.9578 0.631433 40.3511 0.380225C39.7444 0.129017 39.0942 -0.000185386 38.4375 1.99646e-07H34.0375L30.8375 7.9875C30.742 8.21359 30.582 8.40651 30.3775 8.54213C30.1729 8.67775 29.9329 8.75006 29.6875 8.75H14.6875C14.4421 8.75006 14.2021 8.67775 13.9975 8.54213C13.793 8.40651 13.633 8.21359 13.5375 7.9875C12.8966 6.38288 10.9606 1.56555 10.3375 1.99646e-07H5.9375C5.28084 -0.000185386 4.63058 0.129017 4.02386 0.380225C3.41715 0.631433 2.86588 0.999722 2.40155 1.46405C1.93722 1.92838 1.56893 2.47965 1.31772 3.08636C1.06652 3.69308 0.937315 4.34334 0.9375 5V65C0.937321 65.6567 1.06653 66.3069 1.31774 66.9136C1.56895 67.5203 1.93724 68.0716 2.40157 68.5359C2.8659 69.0003 3.41716 69.3686 4.02387 69.6198C4.63058 69.871 5.28084 70.0002 5.9375 70H38.4375C39.0942 70.0002 39.7444 69.871 40.3511 69.6198C40.9578 69.3686 41.5091 69.0003 41.9734 68.5359C42.4378 68.0716 42.8061 67.5203 43.0573 66.9136C43.3085 66.3069 43.4377 65.6567 43.4375 65V46.7625H35.825L29.1625 53.2Z" fill="#1D2935"/>
<path d="M15.5375 6.25H28.8375C29.4218 4.74778 30.7595 1.475 31.3375 0H13.0375C13.6134 1.46625 14.9481 4.7575 15.5375 6.25Z" fill="#1D2935"/>
</svg>
