<svg width="80" height="74" viewBox="0 0 80 74" fill="none" xmlns="http://www.w3.org/2000/svg">
<path d="M73.0434 17.8697H62.0173L55.6521 10.9131H31.3043V21.3479H20.8696V31.7826H10.4348V66.5652C10.4348 70.3913 13.5652 73.5217 17.3914 73.5217H73.0434C76.8696 73.5217 80 70.3913 80 66.5652V24.8261C80 21.0001 76.8696 17.8697 73.0434 17.8697ZM45.2173 63.087C35.6173 63.087 27.826 55.2956 27.826 45.6956C27.826 36.0956 35.6173 28.3044 45.2173 28.3044C54.8173 28.3044 62.6087 36.0958 62.6087 45.6958C62.6087 55.2958 54.8173 63.087 45.2173 63.087Z" fill="#1D2935"/>
<path d="M10.4348 28.3044H17.3913V17.8696H27.8261V10.913H17.3913V0.478271H10.4348V10.913H0V17.8696H10.4348V28.3044Z" fill="#0C9447"/>
<path d="M45.2173 34.5652C39.0608 34.5652 34.0868 39.5391 34.0868 45.6957C34.0868 51.8522 39.0608 56.8261 45.2173 56.8261C51.3738 56.8261 56.3478 51.8522 56.3478 45.6957C56.3478 39.5391 51.3738 34.5652 45.2173 34.5652Z" fill="#1D2935"/>
</svg>
