<svg id="Capa_1" data-name="Capa 1" xmlns="http://www.w3.org/2000/svg" viewBox="0 0 25 20"><defs><style>.cls-1{fill:#3da96c;}</style></defs><path class="cls-1" d="M22,3.48H19.4L18,1.3A3,3,0,0,0,15.49,0h-6A3,3,0,0,0,7,1.3L5.6,3.48H3a3,3,0,0,0-3,3V17a3,3,0,0,0,3,3H22a3,3,0,0,0,3-3V6.47A3,3,0,0,0,22,3.48ZM12.5,17.55a6.73,6.73,0,1,1,6.74-6.71A6.73,6.73,0,0,1,12.5,17.55Zm9.13-9.86h-1.2a.89.89,0,0,1,0-1.77h1.09a.9.9,0,0,1,.93.85A.87.87,0,0,1,21.63,7.69Z" transform="translate(0)"/><path class="cls-1" d="M12.5,7.09a3.74,3.74,0,1,0,3.75,3.73A3.76,3.76,0,0,0,12.5,7.09Z" transform="translate(0)"/></svg>