<svg width="56" height="68" viewBox="0 0 56 68" fill="none" xmlns="http://www.w3.org/2000/svg">
<path d="M25.4267 15.4001H33.2C35.36 15.4001 37.3867 16.4534 38.6267 18.2401L39.9467 20.1201H44.3467V4.66675C44.3467 2.46675 42.56 0.666748 40.3467 0.666748H4.34668C2.14668 0.666748 0.34668 2.46675 0.34668 4.66675V63.3334C0.34668 65.5334 2.14668 67.3334 4.34668 67.3334H40.3467C42.56 67.3334 44.3467 65.5334 44.3467 63.3334V46.6001H25.4267C21.7867 46.6001 18.8133 43.6268 18.8133 39.9734V22.0268C18.8 18.3734 21.7733 15.4001 25.4267 15.4001ZM30.64 59.2668H33.8267C34.56 59.2668 35.16 59.8668 35.16 60.6001C35.16 61.3334 34.56 61.9334 33.8267 61.9334H30.64C29.9067 61.9334 29.3067 61.3334 29.3067 60.6001C29.3067 59.8668 29.9067 59.2668 30.64 59.2668ZM20.2667 59.2668H23.4533C24.1867 59.2668 24.7867 59.8668 24.7867 60.6001C24.7867 61.3334 24.1867 61.9334 23.4533 61.9334H20.2667C19.52 61.9334 18.9333 61.3334 18.9333 60.6001C18.9333 59.8668 19.52 59.2668 20.2667 59.2668ZM32.1733 6.69342C32.24 6.53342 32.3333 6.38675 32.4533 6.25341C32.8267 5.88008 33.4267 5.76008 33.9067 5.97341C34.08 6.04008 34.2267 6.13341 34.3467 6.25341C34.4667 6.38675 34.56 6.53342 34.64 6.69342C34.7067 6.85342 34.7333 7.02675 34.7333 7.20008C34.7333 7.54675 34.6 7.89341 34.3467 8.14675C34.0933 8.40008 33.76 8.53342 33.4 8.53342C33.2267 8.53342 33.0533 8.49342 32.8933 8.42675C32.7333 8.36008 32.5867 8.26675 32.4533 8.14675C32.2133 7.89341 32.0667 7.54675 32.0667 7.20008C32.0533 7.02675 32.0933 6.85342 32.1733 6.69342ZM13.0667 61.9334H9.88001C9.14668 61.9334 8.54668 61.3334 8.54668 60.6001C8.54668 59.8668 9.14668 59.2668 9.88001 59.2668H13.0667C13.8133 59.2668 14.4 59.8668 14.4 60.6001C14.4 61.3334 13.8133 61.9334 13.0667 61.9334ZM17.12 8.53342C16.3733 8.53342 15.7867 7.93341 15.7867 7.20008C15.7867 6.46675 16.3733 5.86675 17.12 5.86675H27.56C28.2933 5.86675 28.8933 6.46675 28.8933 7.20008C28.8933 7.93341 28.2933 8.53342 27.56 8.53342H17.12Z" fill="#1D2935"/>
<path d="M51.6933 22.7867H39.2C38.7867 22.7867 38.3867 22.5733 38.1467 22.2267L36.4267 19.76C35.6933 18.7067 34.48 18.0667 33.1867 18.0667H25.4133C23.24 18.0667 21.4667 19.84 21.4667 22.0267V39.9733C21.4667 42.16 23.24 43.9333 25.4133 43.9333H51.6933C53.8667 43.9333 55.6533 42.16 55.6533 39.9733V26.7467C55.6533 24.56 53.8667 22.7867 51.6933 22.7867Z" fill="#0C9447"/>
</svg>
