<svg width="110" height="110" viewBox="0 0 110 110" fill="none" xmlns="http://www.w3.org/2000/svg">
<circle cx="55" cy="55" r="55" fill="white"/>
<path d="M43.1645 74.5314H49.1402V85H43.1645V74.5314Z" fill="#1D2935"/>
<path d="M62.4478 25H29.6875V85H39.6489V71.0158H52.6558V85H62.4478V25ZM38.125 66.0545H34.6094V60.9811H38.125V66.0545ZM38.125 56.8604H34.6094V51.787H38.125V56.8604ZM38.125 47.6662H34.6094V42.5928H38.125V47.6662ZM38.125 38.472H34.6094V33.3986H38.125V38.472ZM44.6486 66.0545H41.133V60.9811H44.6486V66.0545ZM44.6486 56.8604H41.133V51.787H44.6486V56.8604ZM44.6486 47.6662H41.133V42.5928H44.6486V47.6662ZM44.6486 38.472H41.133V33.3986H44.6486V38.472ZM51.1717 66.0545H47.6561V60.9811H51.1717V66.0545ZM51.1717 56.8604H47.6561V51.787H51.1717V56.8604ZM51.1717 47.6662H47.6561V42.5928H51.1717V47.6662ZM51.1717 38.472H47.6561V33.3986H51.1717V38.472ZM57.6953 66.0545H54.1797V60.9811H57.6953V66.0545ZM57.6953 56.8604H54.1797V51.787H57.6953V56.8604ZM57.6953 47.6662H54.1797V42.5928H57.6953V47.6662ZM57.6953 38.472H54.1797V33.3986H57.6953V38.472Z" fill="#0C9447"/>
<path d="M65.9634 39.4141V85H80.3125V39.4141H65.9634ZM74.9805 78.535H71.4648V73.4616H74.9805V78.535ZM74.9805 69.3408H71.4648V64.2674H74.9805V69.3408ZM74.9805 60.1466H71.4648V55.0732H74.9805V60.1466ZM74.9805 50.9525H71.4648V45.8791H74.9805V50.9525Z" fill="#1D2935"/>
</svg>
