<svg xmlns="http://www.w3.org/2000/svg" version="1.1" xmlns:xlink="http://www.w3.org/1999/xlink" xmlns:svgjs="http://svgjs.com/svgjs" width="512" height="512" x="0" y="0" viewBox="0 0 512 512" style="enable-background:new 0 0 512 512" xml:space="preserve" class=""><g><g><g id="Page-1_18_"><g id="_x30_19---Moving-House"><path id="Shape_45_" d="m475.554 126.988c-6.209-10.009-17.166-16.082-28.945-16.043h-62.609v-34.133c0-14.138-11.462-25.6-25.6-25.6h-256c-14.138 0-25.6 11.462-25.6 25.6v34.133h-42.667c-4.713 0-8.533 3.821-8.533 8.533s3.821 8.533 8.533 8.533h102.4c4.713 0 8.533-3.821 8.533-8.533s-3.821-8.533-8.533-8.533h-42.666v-34.133c0-4.713 3.821-8.533 8.533-8.533h256c4.713 0 8.533 3.821 8.533 8.533v238.933h-273.066v-51.2h42.667c4.713 0 8.533-3.82 8.533-8.533s-3.821-8.533-8.533-8.533h-102.4c-4.713 0-8.533 3.821-8.533 8.533 0 4.713 3.821 8.533 8.533 8.533h42.666v119.467c0 14.138 11.462 25.6 25.6 25.6h26.283c4.218 29.37 29.379 51.176 59.051 51.176s54.833-21.806 59.051-51.176h95.232c4.218 29.37 29.379 51.176 59.051 51.176s54.833-21.806 59.051-51.176h26.281c14.138 0 25.6-11.462 25.6-25.6v-186.479c.003-7.996-2.247-15.83-6.494-22.605zm19.379 154.624h-25.6v-17.067h25.6zm-33.851-145.579 29.961 47.94c2.541 4.066 3.89 8.764 3.891 13.559v7.279h-68.267c-4.713 0-8.533-3.821-8.533-8.533v-68.267h28.476c5.888-.015 11.365 3.02 14.472 8.022zm-77.082-8.021h17.067v68.267c0 14.139 11.462 25.6 25.6 25.6h68.267v25.6h-25.6c-9.426 0-17.067 7.641-17.067 17.067v17.067c0 9.426 7.641 17.067 17.067 17.067h25.6v17.067h-110.934zm-196.267 315.733c-23.564 0-42.667-19.103-42.667-42.667s19.103-42.667 42.667-42.667 42.667 19.103 42.667 42.667c-.028 23.553-19.114 42.639-42.667 42.667zm213.334 0c-23.564 0-42.667-19.103-42.667-42.667s19.103-42.667 42.667-42.667 42.667 19.103 42.667 42.667c-.029 23.553-19.115 42.639-42.667 42.667zm93.866-59.733c0 4.713-3.82 8.533-8.533 8.533h-26.283c-4.218-29.37-29.379-51.176-59.051-51.176s-54.833 21.806-59.051 51.176h-95.232c-4.218-29.37-29.379-51.176-59.051-51.176s-54.833 21.806-59.051 51.176h-26.281c-4.713 0-8.533-3.821-8.533-8.533v-17.067h17.067c4.713 0 8.533-3.821 8.533-8.533 0-4.713-3.821-8.533-8.533-8.533h-17.067v-17.067h401.067v51.2z" fill="#3da96c" data-original="#000000" class=""></path><path id="Path_44_" clip-rule="evenodd" d="m426.667 247.479h-17.067c-4.713 0-8.533 3.821-8.533 8.533 0 4.713 3.821 8.533 8.533 8.533h17.067c4.713 0 8.533-3.82 8.533-8.533s-3.82-8.533-8.533-8.533z" fill-rule="evenodd" fill="#3da96c" data-original="#000000" class=""></path><path id="Shape_44_" d="m187.733 375.479c-10.354 0-19.689 6.237-23.651 15.803s-1.772 20.577 5.549 27.899c7.322 7.322 18.333 9.512 27.899 5.549 9.566-3.962 15.803-13.297 15.803-23.651 0-14.139-11.461-25.6-25.6-25.6zm0 34.133c-4.713 0-8.533-3.82-8.533-8.533s3.821-8.533 8.533-8.533c4.713 0 8.533 3.82 8.533 8.533s-3.82 8.533-8.533 8.533z" fill="#3da96c" data-original="#000000" class=""></path><path id="Shape_43_" d="m401.067 375.479c-10.354 0-19.689 6.237-23.651 15.803s-1.772 20.577 5.549 27.899c7.322 7.322 18.333 9.512 27.899 5.549 9.566-3.962 15.803-13.297 15.803-23.651 0-14.139-11.462-25.6-25.6-25.6zm0 34.133c-4.713 0-8.533-3.82-8.533-8.533s3.82-8.533 8.533-8.533 8.533 3.82 8.533 8.533-3.82 8.533-8.533 8.533z" fill="#3da96c" data-original="#000000" class=""></path><path id="Shape_42_" d="m315.733 93.879h-17.067c-9.035.036-16.476 7.107-16.973 16.128l-22.443-20.164c-6.702-6.023-16.867-6.023-23.569 0l-84.855 76.228c-5.352 4.752-7.186 12.33-4.599 19.004 2.532 6.611 8.828 11.019 15.906 11.136v85.402c0 9.426 7.641 17.067 17.067 17.067h136.533c9.426 0 17.067-7.641 17.067-17.067v-85.403c7.068-.11 13.361-4.499 15.906-11.093 2.587-6.675.749-14.255-4.608-19.004l-11.298-10.188v-44.979c0-9.426-7.641-17.067-17.067-17.067zm-17.066 17.066h17.067v29.645l-17.067-15.36zm-50.816-8.405 84.463 76.672h-84.847l-85.231-.444zm-8.918 179.072v-25.6c0-4.713 3.821-8.533 8.533-8.533 4.713 0 8.533 3.821 8.533 8.533v25.6zm34.134 0v-25.6c0-14.138-11.462-25.6-25.6-25.6s-25.6 11.462-25.6 25.6v25.6h-42.667v-85.333h136.533v85.333z" fill="#3da96c" data-original="#000000" class=""></path><g clip-rule="evenodd" fill-rule="evenodd"><path id="Path_43_" d="m8.533 230.412h93.867c4.713 0 8.533-3.821 8.533-8.533s-3.821-8.533-8.533-8.533h-93.867c-4.713 0-8.533 3.82-8.533 8.533s3.821 8.533 8.533 8.533z" fill="#3da96c" data-original="#000000" class=""></path><path id="Path_42_" d="m102.4 145.079h-93.867c-4.713 0-8.533 3.821-8.533 8.533 0 4.713 3.821 8.533 8.533 8.533h93.867c4.713 0 8.533-3.821 8.533-8.533 0-4.713-3.82-8.533-8.533-8.533z" fill="#3da96c" data-original="#000000" class=""></path><path id="Path_41_" d="m25.6 187.745c0 4.713 3.821 8.533 8.533 8.533h85.333c4.713 0 8.533-3.82 8.533-8.533s-3.821-8.533-8.533-8.533h-85.333c-4.712 0-8.533 3.821-8.533 8.533z" fill="#3da96c" data-original="#000000" class=""></path></g></g></g></g></g></svg>