<svg width="320" height="213" viewBox="0 0 320 213" fill="none" xmlns="http://www.w3.org/2000/svg">
<rect width="320" height="213" rx="15" fill="#E5E5E5" fill-opacity="0.3"/>
<g clip-path="url(#clip0_2342_236)">
<path d="M130.478 138.295C130.478 138.295 151 147.057 153 163.505C153 163.505 118.5 190.305 83.75 163.505C83.75 163.505 88.626 141.387 105.688 138.295C105.688 138.295 107.25 155.453 118.375 155.203C129.5 154.953 130.478 138.295 130.478 138.295Z" fill="#E1E8ED"/>
<path d="M137.348 141.755C138.561 142.403 139.703 143.178 140.754 144.065H235.688V143.755H231.648C231.648 143.595 231.688 143.435 231.688 143.275V65.055C231.686 63.6501 231.126 62.3034 230.133 61.31C229.14 60.3165 227.793 59.7574 226.388 59.755H211.188C211.268 60.4186 211.308 61.0865 211.308 61.755C211.325 61.8944 211.331 62.0347 211.328 62.175C211.326 63.3737 211.232 64.5705 211.048 65.755C210.842 67.1151 210.514 68.4538 210.068 69.755H221.688V141.755H137.348Z" fill="#E1E8ED"/>
<path d="M131.608 65.755C131.424 64.5705 131.33 63.3737 131.328 62.175C131.325 62.0347 131.331 61.8944 131.348 61.755C131.348 61.0865 131.388 60.4186 131.468 59.755L112.988 59.755C111.583 59.7574 110.236 60.3165 109.243 61.31C108.25 62.3034 107.69 63.6501 107.688 65.055V78.935C108.335 78.5401 109.003 78.1796 109.688 77.855C109.868 77.775 110.068 77.675 110.248 77.595C111.364 77.0791 112.513 76.6381 113.688 76.275C114.997 75.8569 116.334 75.5294 117.688 75.295V69.755H132.588C132.142 68.4538 131.814 67.1151 131.608 65.755Z" fill="#E1E8ED"/>
<path d="M140.754 144.065C143.873 146.46 146.856 149.028 149.689 151.755H228.689C228.929 151.755 229.149 151.735 229.389 151.715H229.409C231.131 151.536 232.725 150.725 233.885 149.44C235.044 148.155 235.687 146.486 235.689 144.755V144.065H140.754Z" fill="#E1E8ED"/>
<path d="M109.688 77.855V65.055C109.688 64.1798 110.036 63.3404 110.655 62.7216C111.273 62.1027 112.113 61.755 112.988 61.755H131.348C131.348 61.0865 131.388 60.4186 131.468 59.755C131.521 59.0833 131.614 58.4154 131.748 57.755H112.988C111.053 57.759 109.199 58.5293 107.831 59.8975C106.462 61.2657 105.692 63.1201 105.688 65.055V80.195C106.33 79.7377 106.998 79.317 107.688 78.935C108.335 78.5401 109.003 78.1796 109.688 77.855Z" fill="#647787"/>
<path d="M116.228 65.755C115.555 65.7561 114.909 66.024 114.433 66.5001C113.957 66.9762 113.689 67.6217 113.688 68.295V76.275C114.997 75.8569 116.334 75.5294 117.688 75.295V69.755H132.588C132.142 68.4538 131.814 67.1151 131.608 65.755H116.228Z" fill="#647787"/>
<path d="M213.688 117.755C213.688 117.225 213.477 116.716 213.102 116.341C212.727 115.966 212.218 115.755 211.688 115.755H161.688C161.158 115.755 160.649 115.966 160.274 116.341C159.899 116.716 159.688 117.225 159.688 117.755C159.688 118.285 159.899 118.794 160.274 119.169C160.649 119.544 161.158 119.755 161.688 119.755H211.688C212.218 119.755 212.727 119.544 213.102 119.169C213.477 118.794 213.688 118.285 213.688 117.755Z" fill="#647787"/>
<path d="M161.688 111.755H201.688C202.218 111.755 202.727 111.544 203.102 111.169C203.477 110.794 203.688 110.285 203.688 109.755C203.688 109.225 203.477 108.716 203.102 108.341C202.727 107.966 202.218 107.755 201.688 107.755H161.688C161.158 107.755 160.649 107.966 160.274 108.341C159.899 108.716 159.688 109.225 159.688 109.755C159.688 110.285 159.899 110.794 160.274 111.169C160.649 111.544 161.158 111.755 161.688 111.755Z" fill="#647787"/>
<path d="M161.688 123.755C161.158 123.755 160.649 123.966 160.274 124.341C159.899 124.716 159.688 125.225 159.688 125.755C159.688 126.285 159.899 126.794 160.274 127.169C160.649 127.544 161.158 127.755 161.688 127.755H177.688C178.218 127.755 178.727 127.544 179.102 127.169C179.477 126.794 179.688 126.285 179.688 125.755C179.688 125.225 179.477 124.716 179.102 124.341C178.727 123.966 178.218 123.755 177.688 123.755H161.688Z" fill="#647787"/>
<path d="M183.688 123.755C183.158 123.755 182.649 123.966 182.274 124.341C181.899 124.716 181.688 125.225 181.688 125.755C181.688 126.285 181.899 126.794 182.274 127.169C182.649 127.544 183.158 127.755 183.688 127.755H195.688C196.218 127.755 196.727 127.544 197.102 127.169C197.477 126.794 197.688 126.285 197.688 125.755C197.688 125.225 197.477 124.716 197.102 124.341C196.727 123.966 196.218 123.755 195.688 123.755H183.688Z" fill="#647787"/>
<path d="M118.168 177.755C110.783 177.74 103.475 176.258 96.668 173.395C96.4697 173.355 96.28 173.28 96.108 173.174C91.2885 171.127 86.7837 168.407 82.728 165.095C82.4781 164.892 82.2818 164.631 82.1563 164.335C82.0308 164.038 81.9798 163.716 82.008 163.395C82.4647 156.996 85.0312 150.928 89.3055 146.144C93.5797 141.359 99.3203 138.128 105.628 136.955H105.688C105.791 136.938 105.896 136.93 106 136.93C106.518 136.929 107.015 137.132 107.384 137.495C107.501 137.608 107.602 137.735 107.684 137.875C107.944 138.27 108.044 138.749 107.964 139.215C107.902 139.639 107.868 140.067 107.864 140.495C107.867 140.917 107.901 141.338 107.964 141.755C108.181 143.169 108.67 144.527 109.404 145.755C109.462 145.867 109.527 145.976 109.598 146.081C109.626 146.125 109.655 146.169 109.684 146.215C110.514 147.476 111.502 148.626 112.624 149.635C112.644 149.655 112.67 149.675 112.694 149.695C112.718 149.715 112.744 149.735 112.764 149.755C113.581 150.483 114.45 151.152 115.364 151.755C116.183 152.364 117.124 152.787 118.123 152.995C119.117 152.767 120.056 152.345 120.888 151.755C121.805 151.166 122.669 150.497 123.468 149.755C123.512 149.728 123.553 149.694 123.587 149.655C124.149 149.143 124.677 148.596 125.167 148.015C125.779 147.316 126.322 146.559 126.788 145.755C127.536 144.53 128.039 143.172 128.268 141.755C128.398 140.913 128.398 140.057 128.268 139.215C128.228 138.936 128.248 138.653 128.326 138.382C128.403 138.112 128.537 137.861 128.718 137.646C128.9 137.431 129.124 137.256 129.377 137.134C129.631 137.011 129.907 136.943 130.188 136.935L130.302 136.926H130.308L130.428 136.916C133.528 136.916 138.083 138.816 142.028 141.755H221.688V69.755H210.068C210.514 68.4537 210.842 67.115 211.048 65.755H223.148C223.821 65.7558 224.467 66.0237 224.943 66.4998C225.419 66.976 225.687 67.6216 225.688 68.295V141.755H229.688V65.055C229.688 64.1798 229.34 63.3404 228.721 62.7216C228.103 62.1027 227.263 61.755 226.388 61.755H211.308C211.308 61.0865 211.268 60.4186 211.187 59.755C211.135 59.0832 211.042 58.4152 210.907 57.755H226.387C228.322 57.7571 230.178 58.5269 231.547 59.8955C232.915 61.264 233.685 63.1196 233.687 65.055V141.755H235.687C236.217 141.755 236.726 141.966 237.101 142.341C237.476 142.716 237.687 143.225 237.687 143.755V144.755C237.684 147.141 236.735 149.429 235.048 151.116C233.361 152.803 231.073 153.752 228.687 153.755H151.887C153.266 156.798 154.092 160.062 154.327 163.395C154.35 163.715 154.296 164.036 154.171 164.331C154.046 164.627 153.853 164.889 153.607 165.095C149.572 168.385 145.095 171.091 140.307 173.135C140.086 173.276 139.842 173.377 139.587 173.435C132.803 176.278 125.523 177.746 118.168 177.755ZM97.128 157.555C97.6584 157.555 98.1671 157.766 98.5422 158.141C98.9173 158.516 99.128 159.025 99.128 159.555V170.075C111.354 174.982 125.002 174.982 137.228 170.075V159.555C137.228 159.025 137.439 158.516 137.814 158.141C138.189 157.766 138.698 157.555 139.228 157.555C139.758 157.555 140.267 157.766 140.642 158.141C141.017 158.516 141.228 159.025 141.228 159.555V168.315C144.418 166.738 147.44 164.842 150.248 162.656C149.896 159.537 148.945 156.515 147.448 153.756C147.077 153.068 146.67 152.401 146.228 151.756C145.773 151.062 145.279 150.394 144.748 149.756C144.737 149.744 144.728 149.731 144.719 149.717C144.71 149.702 144.7 149.689 144.688 149.676C143.505 148.231 142.17 146.917 140.708 145.755C138.663 144.066 136.36 142.715 133.888 141.755C133.386 141.55 132.872 141.377 132.348 141.236C132.338 141.326 132.333 141.412 132.328 141.496C132.323 141.58 132.318 141.665 132.308 141.756C132.168 143.135 131.817 144.484 131.268 145.756C130.677 147.148 129.911 148.458 128.988 149.656C128.978 149.675 128.964 149.692 128.948 149.707C128.932 149.721 128.919 149.738 128.908 149.756C128.647 150.097 128.385 150.42 128.128 150.716C127.828 151.081 127.48 151.424 127.148 151.755C126.461 152.485 125.712 153.154 124.909 153.755C122.419 155.755 119.821 156.995 118.128 156.995C116.463 156.995 113.778 155.723 111.288 153.755C110.384 153.047 109.534 152.272 108.748 151.435C107.549 150.175 106.52 148.763 105.688 147.235C105.08 146.139 104.616 144.97 104.308 143.755C104.126 143.101 104.006 142.431 103.948 141.755C103.924 141.657 103.91 141.556 103.907 141.455C92.239 144.761 87.015 154.955 86.088 162.675C88.9053 164.853 91.9341 166.742 95.129 168.314V159.555C95.129 159.025 95.3396 158.516 95.7144 158.141C96.0893 157.766 96.5977 157.555 97.128 157.555ZM146.528 145.755C147.675 146.996 148.713 148.334 149.628 149.755L228.689 149.835C229.467 149.83 230.233 149.639 230.922 149.277C231.611 148.915 232.203 148.393 232.649 147.755C233.128 147.18 233.452 146.491 233.589 145.755H177.348C176.785 146.381 176.098 146.882 175.33 147.227C174.562 147.571 173.731 147.751 172.889 147.755H166.489C165.65 147.754 164.82 147.575 164.055 147.23C163.289 146.885 162.605 146.383 162.048 145.755H146.528Z" fill="#647787"/>
<path d="M203.005 62.185C203.005 71.547 194.359 79.924 181.491 83.031C181.411 83.0501 181.332 83.0742 181.255 83.103C180.755 83.293 180.243 83.479 179.724 83.644C179.457 83.7273 179.21 83.8659 179 84.0508C178.79 84.2357 178.622 84.4627 178.505 84.717C177.159 87.7008 175.176 90.354 172.696 92.4908C170.216 94.6277 167.299 96.1964 164.149 97.087C164.503 95.6044 164.638 94.0778 164.549 92.556C164.249 87.356 162.949 84.356 160.705 83.643C159.119 83.1376 157.58 82.4959 156.105 81.725C156.032 81.6878 155.958 81.6544 155.882 81.625C145.472 77.738 139.005 70.293 139.005 62.185C139.005 50.003 153.36 40.093 171.005 40.093C188.65 40.093 203.005 50.003 203.005 62.185Z" fill="#009543"/>
<path d="M158.845 59.506C158.233 59.5058 157.635 59.687 157.126 60.0268C156.618 60.3665 156.221 60.8495 155.987 61.4146C155.752 61.9798 155.691 62.6017 155.81 63.2018C155.93 63.8018 156.224 64.353 156.657 64.7857C157.089 65.2184 157.64 65.5131 158.24 65.6325C158.84 65.7519 159.462 65.6907 160.027 65.4566C160.593 65.2226 161.076 64.8261 161.416 64.3175C161.756 63.8088 161.937 63.2108 161.937 62.599C161.935 61.7794 161.609 60.9939 161.029 60.4143C160.45 59.8347 159.665 59.5081 158.845 59.506Z" fill="white"/>
<path d="M170.846 59.506C170.234 59.5058 169.636 59.687 169.127 60.0268C168.619 60.3665 168.222 60.8495 167.988 61.4146C167.753 61.9798 167.692 62.6017 167.811 63.2018C167.931 63.8018 168.225 64.353 168.658 64.7857C169.09 65.2184 169.641 65.5131 170.241 65.6325C170.841 65.7519 171.463 65.6907 172.028 65.4566C172.594 65.2226 173.077 64.8261 173.417 64.3175C173.757 63.8088 173.938 63.2108 173.938 62.599C173.936 61.7794 173.61 60.9939 173.03 60.4143C172.451 59.8347 171.666 59.5081 170.846 59.506Z" fill="white"/>
<path d="M182.53 59.506C181.918 59.5062 181.32 59.6877 180.812 60.0277C180.303 60.3677 179.907 60.8508 179.673 61.416C179.439 61.9812 179.378 62.6031 179.498 63.203C179.617 63.8029 179.912 64.354 180.344 64.7864C180.777 65.2189 181.328 65.5134 181.928 65.6326C182.528 65.7519 183.15 65.6906 183.715 65.4564C184.28 65.2223 184.763 64.8259 185.103 64.3173C185.443 63.8086 185.624 63.2107 185.624 62.599C185.622 61.7791 185.296 60.9933 184.716 60.4136C184.136 59.8339 183.35 59.5076 182.53 59.506" fill="white"/>
<path d="M177.53 32.186C177.944 32.1862 178.349 32.0636 178.693 31.8338C179.037 31.6039 179.306 31.2771 179.464 30.8947C179.623 30.5122 179.665 30.0914 179.584 29.6853C179.503 29.2792 179.304 28.9062 179.011 28.6134C178.719 28.3206 178.346 28.1211 177.94 28.0403C177.534 27.9595 177.113 28.0008 176.73 28.1592C176.348 28.3176 176.021 28.5859 175.791 28.9301C175.561 29.2743 175.438 29.679 175.438 30.093C175.44 30.6474 175.661 31.1785 176.053 31.5706C176.445 31.9627 176.976 32.1839 177.53 32.186Z" fill="#647787"/>
<path d="M131.536 51.518C132.004 51.7683 132.551 51.8227 133.059 51.6691C133.567 51.5155 133.993 51.1666 134.243 50.699C140.294 39.393 154.848 32.093 171.323 32.093C171.853 32.093 172.362 31.8823 172.737 31.5072C173.112 31.1322 173.323 30.6235 173.323 30.093C173.323 29.5626 173.112 29.0539 172.737 28.6788C172.362 28.3037 171.853 28.093 171.323 28.093C153.393 28.093 137.454 36.225 130.716 48.81C130.592 49.0416 130.515 49.2955 130.489 49.5569C130.463 49.8184 130.489 50.0824 130.565 50.3339C130.641 50.5854 130.766 50.8194 130.933 51.0226C131.099 51.2258 131.304 51.3941 131.536 51.518Z" fill="#647787"/>
<path d="M116.157 111.755C116.157 111.225 115.946 110.716 115.571 110.341C115.196 109.966 114.687 109.755 114.157 109.755H109.557C109.027 109.755 108.518 109.966 108.143 110.341C107.768 110.716 107.557 111.225 107.557 111.755C107.557 112.285 107.768 112.794 108.143 113.169C108.518 113.544 109.027 113.755 109.557 113.755H114.157C114.687 113.755 115.196 113.544 115.571 113.169C115.946 112.794 116.157 112.285 116.157 111.755Z" fill="#647787"/>
<path d="M122.389 124.895C121.744 125.442 120.995 125.851 120.187 126.099C119.379 126.346 118.529 126.427 117.689 126.335L115.411 125.555C115.061 125.361 114.727 125.14 114.411 124.895C114.203 124.734 113.965 124.617 113.711 124.549C113.457 124.481 113.192 124.464 112.932 124.5C112.671 124.535 112.42 124.622 112.194 124.755C111.967 124.888 111.769 125.065 111.611 125.275C111.518 125.397 111.444 125.532 111.391 125.675C111.204 126.086 111.164 126.548 111.276 126.985C111.389 127.421 111.649 127.806 112.011 128.075C112.537 128.486 113.099 128.847 113.691 129.155C114.923 129.837 116.287 130.246 117.691 130.355C117.929 130.388 118.17 130.402 118.411 130.395C120.741 130.344 122.99 129.529 124.811 128.075C125.021 127.917 125.198 127.719 125.331 127.492C125.464 127.266 125.551 127.015 125.586 126.754C125.622 126.494 125.605 126.229 125.537 125.975C125.469 125.721 125.352 125.483 125.191 125.275C125.033 125.065 124.835 124.888 124.608 124.755C124.382 124.622 124.131 124.535 123.87 124.5C123.61 124.464 123.345 124.481 123.091 124.549C122.837 124.617 122.599 124.734 122.391 124.895" fill="#647787"/>
<path d="M118.408 138.295C118.172 138.295 117.927 138.295 117.688 138.274C116.333 138.215 114.99 137.994 113.688 137.614C112.369 137.223 111.096 136.694 109.888 136.035C109.855 136.045 109.822 136.051 109.788 136.055C109.754 136.059 109.721 136.065 109.688 136.075C109.077 136.205 108.441 136.307 107.688 136.395C107.338 136.456 106.984 136.496 106.629 136.515H106.574C106.274 136.534 105.99 136.551 105.688 136.551C105.388 136.572 105.088 136.572 104.788 136.572C100.358 136.542 96.0039 135.423 92.108 133.315C91.8558 133.181 91.6357 132.993 91.4631 132.765C91.2904 132.538 91.1693 132.275 91.108 131.996C91.0366 131.718 91.0305 131.427 91.0899 131.145C91.1494 130.864 91.273 130.601 91.451 130.375C92.9993 128.25 94.2321 125.913 95.111 123.435C95.9828 120.989 96.4883 118.428 96.611 115.835C95.0668 113.292 93.9051 110.536 93.163 107.655C92.1279 103.76 92.193 99.6549 93.351 95.795C93.833 94.0839 94.5178 92.4365 95.391 90.888C96.6412 88.6704 98.4908 86.8499 100.728 85.635C102.273 84.832 103.956 84.3298 105.688 84.155C106.146 84.0979 106.607 84.0712 107.069 84.075C107.138 84.019 107.207 83.962 107.278 83.903C107.41 83.793 107.545 83.68 107.689 83.575C108.319 83.0582 108.988 82.5902 109.689 82.175C110.945 81.3538 112.286 80.6699 113.689 80.135C114.983 79.6324 116.322 79.2573 117.689 79.015C117.82 78.9787 117.954 78.952 118.089 78.935C119.32 78.7483 120.563 78.6547 121.808 78.655C126.539 78.581 131.157 80.1107 134.908 82.995C138.224 85.6754 140.668 89.2817 141.928 93.355C142.662 95.5843 143.066 97.9088 143.128 100.255C143.306 105.167 142.347 110.054 140.328 114.535C140.306 114.577 140.28 114.617 140.251 114.655C140.221 114.692 140.194 114.731 140.171 114.773C140.17 114.793 140.17 114.812 140.171 114.832C140.18 114.879 140.18 114.927 140.171 114.974V115.033C140.217 117.897 140.731 120.734 141.691 123.433C142.585 125.908 143.824 128.244 145.371 130.373C145.54 130.603 145.657 130.867 145.716 131.146C145.775 131.426 145.773 131.714 145.711 131.993C145.649 132.269 145.527 132.529 145.355 132.754C145.182 132.978 144.962 133.162 144.711 133.293C140.829 135.423 136.478 136.551 132.051 136.575C131.464 136.575 130.838 136.555 130.191 136.515C129.096 136.421 128.007 136.261 126.931 136.035C124.327 137.497 121.394 138.274 118.408 138.295ZM109.551 98.775C108.138 100.065 106.865 101.499 105.751 103.055C103.144 106.74 101.445 110.989 100.791 115.455C101.521 119.656 103.196 123.637 105.691 127.095L107.691 129.435C108.308 130.082 108.977 130.677 109.691 131.215C110.912 132.141 112.259 132.889 113.691 133.435C114.975 133.914 116.323 134.198 117.691 134.275C117.93 134.295 118.175 134.295 118.411 134.295C126.774 134.295 134.027 126.482 136.051 115.295C133.874 114.838 131.734 114.216 129.651 113.435C129.347 113.634 128.994 113.744 128.631 113.755H124.031C123.501 113.755 122.992 113.544 122.617 113.169C122.242 112.794 122.031 112.285 122.031 111.755C122.032 111.472 122.095 111.193 122.216 110.937C122.337 110.681 122.513 110.455 122.731 110.274L122.702 110.257C121.669 109.657 120.602 109.029 119.611 108.357C115.781 105.704 112.387 102.472 109.551 98.775ZM137.631 123.795C136.201 127.078 134.158 130.058 131.611 132.575C131.711 132.575 131.83 132.575 131.972 132.575C135.009 132.563 138.013 131.944 140.808 130.755C139.638 128.87 138.672 126.865 137.928 124.775C137.852 124.575 137.791 124.356 137.728 124.148C137.695 124.031 137.661 123.911 137.628 123.796L137.631 123.795ZM99.191 123.795C99.142 123.961 99.091 124.122 99.045 124.283C98.999 124.444 98.945 124.622 98.892 124.795C98.1436 126.877 97.1783 128.875 96.012 130.755C98.7706 131.934 101.74 132.541 104.74 132.539C104.883 132.539 105.028 132.539 105.172 132.539C102.63 130.039 100.598 127.07 99.188 123.795H99.191ZM131.67 105.385C131.844 105.385 132.017 105.419 132.177 105.486C132.338 105.552 132.484 105.65 132.607 105.774L137.527 110.694C138.714 107.409 139.257 103.925 139.127 100.434V100.428C139.077 98.4518 138.74 96.4934 138.127 94.614C137.115 91.2821 135.13 88.329 132.427 86.134C129.38 83.8125 125.638 82.5867 121.808 82.655C120.777 82.6516 119.746 82.7319 118.728 82.895C115.151 83.4984 111.825 85.1237 109.151 87.575C108.787 87.9149 108.306 88.1018 107.808 88.097H107.731C107.558 88.0802 107.385 88.0735 107.211 88.077C105.61 88.0594 104.03 88.4373 102.611 89.177C98.999 91.092 97.811 94.912 97.176 96.963V96.977C95.676 101.8 96.816 106.556 98.035 109.697C99.0408 106.484 100.553 103.453 102.515 100.717C103.89 98.7884 105.481 97.023 107.257 95.455C107.216 95.361 107.172 95.266 107.129 95.175C107.053 95.012 106.974 94.843 106.912 94.675C106.552 93.6924 106.297 92.6744 106.152 91.638C106.114 91.3537 106.136 91.0644 106.219 90.7896C106.301 90.5148 106.441 90.2608 106.63 90.0446C106.819 89.8284 107.051 89.655 107.312 89.5361C107.574 89.4172 107.857 89.3554 108.144 89.355C108.624 89.3589 109.087 89.535 109.449 89.8514C109.81 90.1678 110.046 90.6034 110.114 91.079C110.221 91.8368 110.407 92.5812 110.67 93.3C110.802 93.6472 110.951 93.9873 111.118 94.319L111.169 94.36C111.306 94.459 111.427 94.5792 111.527 94.716C114.315 98.7639 117.82 102.268 121.868 105.055C125.492 107.525 129.49 109.395 133.708 110.595L130.751 107.635C130.626 107.511 130.527 107.363 130.46 107.2C130.393 107.036 130.359 106.861 130.361 106.685C130.369 106.341 130.51 106.013 130.755 105.771C131 105.528 131.329 105.39 131.673 105.385H131.67Z" fill="#647787"/>
<path d="M156.139 168.188C145.427 176.953 132.015 181.746 118.174 181.755C117.644 181.755 117.135 181.966 116.76 182.341C116.385 182.716 116.174 183.225 116.174 183.755C116.174 184.285 116.385 184.794 116.76 185.169C117.135 185.544 117.644 185.755 118.174 185.755C132.94 185.746 147.248 180.632 158.674 171.28C158.886 171.116 159.062 170.912 159.194 170.679C159.325 170.446 159.408 170.189 159.438 169.923C159.469 169.657 159.445 169.388 159.369 169.132C159.294 168.875 159.167 168.636 158.998 168.429C158.828 168.222 158.619 168.052 158.382 167.927C158.145 167.803 157.886 167.727 157.619 167.704C157.353 167.682 157.084 167.713 156.83 167.796C156.576 167.879 156.341 168.012 156.139 168.188Z" fill="#647787"/>
<path d="M161.846 163.505C161.432 163.505 161.027 163.627 160.683 163.857C160.339 164.087 160.07 164.414 159.912 164.796C159.753 165.179 159.711 165.6 159.792 166.006C159.873 166.412 160.072 166.785 160.365 167.078C160.657 167.37 161.03 167.57 161.436 167.651C161.842 167.732 162.263 167.69 162.646 167.532C163.028 167.373 163.355 167.105 163.585 166.761C163.815 166.417 163.938 166.012 163.938 165.598C163.936 165.044 163.715 164.513 163.323 164.12C162.931 163.728 162.4 163.507 161.846 163.505Z" fill="#647787"/>
</g>
<defs>
<clipPath id="clip0_2342_236">
<rect width="155.688" height="157.755" fill="white" transform="translate(82 28)"/>
</clipPath>
</defs>
</svg>
