<svg width="230" height="48" viewBox="0 0 230 48" fill="none" xmlns="http://www.w3.org/2000/svg">
<g clip-path="url(#clip0_2341_124)">
<path d="M0 5C0 2.23858 2.23858 0 5 0H42.099C44.8604 0 47.099 2.23858 47.099 5V42.1795C47.099 44.9409 44.8604 47.1795 42.099 47.1795H5C2.23858 47.1795 0 44.9409 0 42.1795V23.5897V5Z" fill="#0C9447"/>
<path d="M23.3447 1.64102C23.5085 1.66154 28.0751 4.49231 33.4812 7.93843C38.8873 11.3846 43.6997 14.4821 44.1911 14.8103C44.744 15.1795 45.0102 15.4871 44.9488 15.6923C44.8669 15.918 44.4573 16.0205 41.6723 16.1025L41.6109 30.359C41.5699 41.1897 41.4881 44.6769 41.3038 44.882C41.1194 45.0872 40.0546 45.1487 36.9624 45.1487C33.8703 45.1487 32.8055 45.0872 32.6211 44.882C32.4368 44.6975 32.3549 43.241 32.2525 35.3846H23.4471L23.2423 45.0257H5.22183L5.01706 16.1025L3.37883 16C2.15016 15.918 1.72012 15.8154 1.67917 15.5898C1.63821 15.3846 2.86688 14.4821 9.17401 10.441L9.31743 3.17949H14.0273L14.0887 5.23077C14.1297 6.35897 14.2116 7.36411 14.2935 7.44615C14.3754 7.54872 16.3618 6.27693 18.7372 4.6359C21.0922 2.99487 23.1809 1.64102 23.3447 1.64102Z" fill="#FAFCFB"/>
<path d="M9.62452 15.1795C9.91127 15.1795 10.4641 15.2821 10.8533 15.4051C11.2423 15.5487 11.8771 15.8564 12.2457 16.1231C12.5939 16.3898 13.0444 16.8821 13.2082 17.2307C13.372 17.5795 13.5154 17.8872 13.5154 17.9487C13.5154 18.0103 13.0034 18.0513 12.3891 18.0513C11.7747 18.0513 11.2628 17.9487 11.2628 17.8462C11.2628 17.7436 10.9761 17.4975 10.6484 17.3334C10.3208 17.1693 9.82932 17.0257 9.56313 17.0257C9.31735 17.0051 8.88734 17.1898 8.60066 17.3948C8.31399 17.6 7.96585 18.0513 7.8225 18.3795C7.6382 18.7282 7.59724 19.282 7.65868 19.7334C7.72012 20.1641 8.00682 20.7385 8.2935 21.0256C8.68254 21.4154 9.01019 21.5385 9.72696 21.5385C10.3823 21.5385 10.7713 21.4154 11.058 21.1282C11.2833 20.9026 11.4676 20.6154 11.4676 20.5129C11.4676 20.4102 10.9556 20.3077 9.21499 20.3077V18.8718H13.8225L13.7201 19.8359C13.6587 20.3897 13.372 21.1897 13.0853 21.641C12.7372 22.1744 12.2252 22.6256 11.5495 22.9538C10.7508 23.3436 10.3003 23.4256 9.39931 23.3641C8.64164 23.3026 8.00682 23.118 7.45391 22.7487C6.98292 22.441 6.47097 21.8462 6.20475 21.3129C5.89759 20.7179 5.73376 20.0411 5.73376 19.3231C5.73376 18.7487 5.85663 17.9487 6.02046 17.5795C6.1638 17.2307 6.55288 16.6769 6.88052 16.3487C7.20817 16.041 7.84298 15.6513 8.2935 15.4872C8.744 15.3231 9.33784 15.2 9.62452 15.1795ZM32.7645 15.3846H34.4027V23.1795H33.4198C32.8873 23.1795 31.9863 23.241 31.4335 23.3026C30.6552 23.4051 30.2457 23.3436 29.7133 23.0564C29.3447 22.8308 28.8532 22.3179 28.6484 21.8872C28.4232 21.4769 28.2594 20.759 28.2594 20.3077C28.2594 19.8564 28.4437 19.1179 28.6689 18.6666C28.9147 18.1743 29.3447 17.7025 29.7337 17.518C30.1638 17.3128 30.7167 17.2103 31.2287 17.2718C31.6792 17.3334 32.2116 17.4359 32.3959 17.4975C32.7235 17.6205 32.7645 17.4975 32.7645 16.5128V15.3846ZM17.5495 17.2307C17.9181 17.2307 18.5529 17.3948 18.9624 17.5795C19.3925 17.7846 19.9044 18.2154 20.1297 18.5641C20.3754 18.9128 20.6007 19.5897 20.6416 20.1026C20.6826 20.7179 20.5802 21.2718 20.3344 21.7436C20.1297 22.1333 19.6382 22.6667 19.2491 22.9333C18.7781 23.241 18.2253 23.3846 17.6518 23.3846C17.1808 23.3846 16.546 23.2615 16.2184 23.0974C15.9112 22.9333 15.4402 22.5641 15.1535 22.2565C14.7645 21.8256 14.6212 21.4359 14.5802 20.5538C14.5187 19.5897 14.5802 19.2616 14.9897 18.6666C15.256 18.2769 15.7884 17.7846 16.1775 17.6C16.5665 17.3948 17.2013 17.2307 17.5495 17.2307ZM24.4095 17.2307C24.8396 17.2307 25.5153 17.3948 25.9249 17.5795C26.3549 17.7846 26.8669 18.2154 27.0921 18.5641C27.3379 18.9128 27.5631 19.5897 27.6041 20.1026C27.6451 20.7179 27.5426 21.2718 27.2969 21.7231C27.0921 22.1128 26.7031 22.6051 26.4163 22.8308C26.1297 23.0359 25.4335 23.2615 24.8805 23.3231C24.1228 23.4051 23.6519 23.3436 23.058 23.0564C22.628 22.8308 22.0955 22.3385 21.8498 21.9487C21.5631 21.4565 21.4402 20.9026 21.4607 20.2052C21.4607 19.5282 21.6041 18.9949 21.8703 18.6666C22.0751 18.3795 22.5665 17.9487 22.9352 17.6821C23.3447 17.4154 23.9385 17.2307 24.4095 17.2307ZM13.5154 23.7333C13.9044 23.7949 14.6007 24.041 15.0512 24.3077C15.5017 24.5539 16.075 25.0667 16.3208 25.4564C16.5665 25.8462 16.7918 26.2154 16.7918 26.2975C16.7918 26.4 16.3208 26.4616 15.7679 26.4616C14.9692 26.4616 14.6007 26.3385 14.1297 25.9487C13.7816 25.6616 13.3311 25.4359 13.1058 25.4359C12.8805 25.4359 12.4709 25.5385 12.1843 25.641C11.8976 25.7436 11.4881 26.1539 11.2628 26.5231C11.0375 26.8718 10.8533 27.4462 10.8533 27.7949C10.8533 28.1436 11.0375 28.7179 11.2628 29.0872C11.529 29.4975 11.9386 29.8256 12.3891 29.9488C12.9624 30.1129 13.2491 30.0718 13.8225 29.7847C14.2321 29.6 14.6007 29.3129 14.6416 29.1693C14.7235 28.9846 14.4369 28.9231 12.4914 28.9231V27.2821H17.099L16.9965 28.2461C16.9351 28.8 16.6485 29.6 16.3618 30.0513C16.0546 30.5436 15.4812 31.0565 14.9283 31.3231C14.314 31.6308 13.6587 31.7949 12.901 31.7949C12.1229 31.7949 11.529 31.6513 10.9556 31.3231C10.5256 31.0769 9.93168 30.5436 9.66549 30.1538C9.41979 29.7641 9.11263 29.0872 9.01019 28.6564C8.88734 28.2461 8.86685 27.5487 8.92832 27.118C9.01019 26.7077 9.17402 26.1334 9.31735 25.8462C9.46069 25.559 9.89078 25.0667 10.2389 24.718C10.6075 24.3692 11.3242 24 11.8566 23.8564C12.3686 23.7333 13.1262 23.6718 13.5154 23.7333ZM20.7236 25.641C21.0102 25.641 21.0921 25.8051 21.0921 26.5026C21.0921 27.3231 21.0512 27.4052 19.8634 27.6923V29.2718C19.8634 30.1538 19.8225 31.0769 19.7611 31.3231C19.6791 31.7128 19.5153 31.7949 18.0205 31.7949V25.8462H18.8396C19.372 25.8462 19.6382 25.9282 19.6177 26.0923C19.5973 26.2359 19.7406 26.1948 19.9659 25.9898C20.1911 25.8051 20.5187 25.641 20.7236 25.641ZM24.471 25.641C24.9215 25.641 25.5768 25.8257 25.9453 26.0513C26.314 26.2769 26.8054 26.7693 27.0307 27.118C27.2559 27.4872 27.4403 28.1436 27.4403 29.3334H25.2901C23.2013 29.3334 23.1399 29.3538 23.3447 29.7436C23.4471 29.9692 23.7952 30.2154 24.1024 30.2974C24.471 30.3795 24.8805 30.2974 25.2286 30.0923C25.5563 29.8872 26.1297 29.7436 26.5188 29.7436C26.9078 29.7436 27.2355 29.8256 27.2355 29.9488C27.2355 30.0718 27.0102 30.4 26.7645 30.7077C26.4983 31.0359 25.9658 31.4051 25.5768 31.5692C25.1263 31.7538 24.5529 31.8154 23.959 31.7333C23.2628 31.6513 22.8532 31.4256 22.3208 30.8718C21.686 30.2359 21.6041 29.9897 21.5427 28.9641C21.5017 28.0616 21.5836 27.6513 21.8907 27.118C22.1365 26.7693 22.628 26.2769 22.9761 26.0513C23.3652 25.8257 24.0205 25.641 24.471 25.641ZM31.0853 25.641C31.761 25.641 32.273 25.7641 32.7645 26.0923C33.1536 26.3589 33.645 26.8923 33.8293 27.2821C34.0341 27.6718 34.1979 28.3077 34.1979 29.3334H32.0478C30.7577 29.3334 29.8976 29.4154 29.8976 29.5385C29.8976 29.6615 30.1024 29.8872 30.3481 30.0513C30.6143 30.2154 31.0034 30.359 31.2287 30.3795C31.4539 30.3795 31.7815 30.2359 31.9454 30.0513C32.1297 29.8461 32.5802 29.7231 33.1126 29.7436C33.6041 29.7436 33.9931 29.7847 33.9931 29.8461C33.9931 29.9077 33.8088 30.2154 33.5836 30.5641C33.3583 30.9128 32.9078 31.3231 32.5597 31.4872C32.2116 31.6513 31.5563 31.7949 31.0648 31.7949C30.5734 31.7949 29.9385 31.6308 29.529 31.3846C29.1809 31.159 28.7509 30.7282 28.587 30.4C28.4437 30.0923 28.2594 29.6 28.1774 29.2718C28.1161 28.9641 28.1365 28.3693 28.2389 27.9384C28.3618 27.4666 28.7509 26.8923 29.2628 26.4C29.9795 25.7436 30.2457 25.641 31.0853 25.641ZM38.3345 25.641C38.9283 25.641 39.256 25.7846 40.3413 26.8718V31.7949H38.703V29.9488C38.703 28.9436 38.6212 27.918 38.4983 27.6923C38.3754 27.4666 38.0887 27.2821 37.8225 27.2821C37.5563 27.2821 37.2491 27.4052 37.1058 27.5282C36.9419 27.7128 36.8601 28.4923 36.8601 31.7949H35.0171V25.8462H35.8361C36.2867 25.8462 36.6348 25.9487 36.6348 26.0718C36.6143 26.1744 36.8191 26.1334 37.0853 25.9487C37.3515 25.7846 37.9249 25.641 38.3345 25.641Z" fill="#0C9447"/>
<path d="M17.5495 18.8718C17.7543 18.8513 18.1434 19.0154 18.4096 19.2205C18.7577 19.4872 18.9011 19.7949 18.9011 20.3077C18.9011 20.8205 18.7577 21.1282 18.4096 21.3949C18.1434 21.6 17.7133 21.7641 17.4471 21.7436C17.2014 21.7436 16.8123 21.4974 16.587 21.1897C16.3413 20.8615 16.1775 20.4513 16.1775 20.2461C16.198 20.0411 16.4232 19.6513 16.6894 19.3846C16.9556 19.0975 17.3448 18.8718 17.5495 18.8718ZM24.6143 18.8718C24.8191 18.8718 25.1673 19.0564 25.3925 19.282C25.6383 19.5282 25.8021 19.959 25.8021 20.4102C25.8021 20.9231 25.6792 21.2102 25.3311 21.4359C25.0853 21.6 24.6963 21.7436 24.471 21.7436C24.2458 21.7436 23.8567 21.559 23.5905 21.3333C23.3447 21.1077 23.14 20.677 23.1195 20.3282C23.099 19.8975 23.2628 19.6102 23.6723 19.3025C23.9795 19.0564 24.3891 18.8718 24.6143 18.8718ZM31.413 18.8718C31.7611 18.8718 32.2116 19.0359 32.4164 19.2411C32.6416 19.4461 32.785 19.877 32.7645 20.3693C32.7645 20.9231 32.6416 21.2102 32.2935 21.4359C32.0478 21.6 31.6587 21.7436 31.4335 21.7641C31.2082 21.7641 30.7986 21.6 30.5325 21.3949C30.2253 21.1488 30.041 20.8 30.0205 20.3897C30 20 30.1638 19.5487 30.3891 19.3025C30.6348 19.0359 31.0239 18.8718 31.413 18.8718ZM24.3072 27.0769C24.512 27.0564 24.901 27.241 25.1878 27.4666C25.4744 27.6718 25.6178 27.918 25.4949 28C25.3925 28.0616 24.7986 28.1025 23.0375 28L23.488 27.5487C23.7543 27.2821 24.1228 27.0769 24.3072 27.0769ZM31.0648 27.0769C31.2696 27.0564 31.6587 27.241 31.9454 27.4666C32.2321 27.6718 32.3754 27.918 32.2526 28C32.1502 28.0616 31.5563 28.1025 29.7952 28L30.2457 27.5487C30.512 27.2821 30.8805 27.0769 31.0648 27.0769Z" fill="#FAFCFB"/>
<path d="M67.7939 11.9792C67.6769 11.5715 67.5125 11.2113 67.3006 10.8985C67.0887 10.5802 66.8294 10.3121 66.5228 10.0944C66.2218 9.87097 65.8762 9.70057 65.4859 9.58333C65.1011 9.46609 64.6747 9.40743 64.2063 9.40743C63.3311 9.40743 62.5617 9.62524 61.8983 10.0608C61.2404 10.4964 60.7274 11.1303 60.3595 11.9624C59.9915 12.7889 59.8075 13.7998 59.8075 14.9949C59.8075 16.19 59.9888 17.2064 60.3511 18.0441C60.7136 18.8819 61.2265 19.5213 61.8899 19.9625C62.5533 20.3981 63.3367 20.6159 64.2398 20.6159C65.0594 20.6159 65.759 20.4707 66.3388 20.1803C66.9243 19.8843 67.3703 19.4682 67.6769 18.9321C67.9891 18.396 68.1452 17.7621 68.1452 17.0305L68.8811 17.1394H64.4656V14.4085H71.6325V16.5697C71.6325 18.0777 71.3147 19.3733 70.6792 20.4567C70.0436 21.5346 69.1682 22.3667 68.0532 22.9531C66.9382 23.5339 65.6615 23.8243 64.2231 23.8243C62.6175 23.8243 61.2069 23.4697 59.9915 22.7604C58.7761 22.0456 57.8284 21.032 57.1482 19.7195C56.4736 18.4016 56.1363 16.8379 56.1363 15.0284C56.1363 13.6378 56.337 12.398 56.7384 11.309C57.1454 10.2144 57.7141 9.28736 58.4444 8.52785C59.1748 7.7683 60.025 7.19029 60.9951 6.79377C61.9651 6.39726 63.0161 6.19901 64.1479 6.19901C65.1179 6.19901 66.0211 6.34142 66.8574 6.62624C67.6936 6.90547 68.4351 7.30198 69.0819 7.81578C69.7341 8.32954 70.2666 8.94106 70.6792 9.65033C71.0917 10.354 71.3565 11.1303 71.4736 11.9792H67.7939ZM80.0894 23.8411C78.7903 23.8411 77.6669 23.5646 76.7191 23.0117C75.7769 22.4533 75.0494 21.677 74.5364 20.6829C74.0235 19.6833 73.767 18.5244 73.767 17.2064C73.767 15.8773 74.0235 14.7157 74.5364 13.7216C75.0494 12.7219 75.7769 11.9457 76.7191 11.3927C77.6669 10.8343 78.7903 10.5551 80.0894 10.5551C81.3886 10.5551 82.5088 10.8343 83.4507 11.3927C84.399 11.9457 85.129 12.7219 85.6424 13.7216C86.155 14.7157 86.4117 15.8773 86.4117 17.2064C86.4117 18.5244 86.155 19.6833 85.6424 20.6829C85.129 21.677 84.399 22.4533 83.4507 23.0117C82.5088 23.5646 81.3886 23.8411 80.0894 23.8411ZM80.1059 21.0767C80.697 21.0767 81.1908 20.9091 81.5864 20.574C81.982 20.2333 82.2803 19.7698 82.4813 19.1834C82.687 18.5971 82.7906 17.9296 82.7906 17.1813C82.7906 16.4329 82.687 15.7656 82.4813 15.1792C82.2803 14.5928 81.982 14.1292 81.5864 13.7886C81.1908 13.448 80.697 13.2776 80.1059 13.2776C79.5093 13.2776 79.0077 13.448 78.6011 13.7886C78.1993 14.1292 77.8955 14.5928 77.6892 15.1792C77.4885 15.7656 77.3882 16.4329 77.3882 17.1813C77.3882 17.9296 77.4885 18.5971 77.6892 19.1834C77.8955 19.7698 78.1993 20.2333 78.6011 20.574C79.0077 20.9091 79.5093 21.0767 80.1059 21.0767ZM94.5316 23.8411C93.2324 23.8411 92.1091 23.5646 91.1616 23.0117C90.2197 22.4533 89.492 21.677 88.9786 20.6829C88.466 19.6833 88.2093 18.5244 88.2093 17.2064C88.2093 15.8773 88.466 14.7157 88.9786 13.7216C89.492 12.7219 90.2197 11.9457 91.1616 11.3927C92.1091 10.8343 93.2324 10.5551 94.5316 10.5551C95.8307 10.5551 96.9517 10.8343 97.8936 11.3927C98.8411 11.9457 99.5719 12.7219 100.085 13.7216C100.598 14.7157 100.854 15.8773 100.854 17.2064C100.854 18.5244 100.598 19.6833 100.085 20.6829C99.5719 21.677 98.8411 22.4533 97.8936 23.0117C96.9517 23.5646 95.8307 23.8411 94.5316 23.8411ZM94.5488 21.0767C95.1391 21.0767 95.6329 20.9091 96.0285 20.574C96.4242 20.2333 96.7225 19.7698 96.9234 19.1834C97.1299 18.5971 97.2327 17.9296 97.2327 17.1813C97.2327 16.4329 97.1299 15.7656 96.9234 15.1792C96.7225 14.5928 96.4242 14.1292 96.0285 13.7886C95.6329 13.448 95.1391 13.2776 94.5488 13.2776C93.9522 13.2776 93.4499 13.448 93.0432 13.7886C92.6421 14.1292 92.3383 14.5928 92.1319 15.1792C91.9309 15.7656 91.8304 16.4329 91.8304 17.1813C91.8304 17.9296 91.9309 18.5971 92.1319 19.1834C92.3383 19.7698 92.6421 20.2333 93.0432 20.574C93.4499 20.9091 93.9522 21.0767 94.5488 21.0767ZM107.904 23.7991C106.928 23.7991 106.044 23.5478 105.253 23.0452C104.466 22.537 103.842 21.7915 103.38 20.8086C102.922 19.8201 102.694 18.6082 102.694 17.1729C102.694 15.6986 102.931 14.4727 103.405 13.4954C103.878 12.5125 104.509 11.7781 105.294 11.2923C106.087 10.8008 106.953 10.5551 107.895 10.5551C108.615 10.5551 109.214 10.6779 109.694 10.9236C110.179 11.1638 110.569 11.4654 110.864 11.8284C111.165 12.1858 111.394 12.5376 111.55 12.8839H111.658V6.43357H115.213V23.5897H111.701V21.529H111.55C111.383 21.8864 111.146 22.241 110.839 22.5928C110.538 22.9391 110.145 23.2268 109.66 23.4557C109.18 23.6847 108.595 23.7991 107.904 23.7991ZM109.033 20.9593C109.607 20.9593 110.092 20.803 110.488 20.4902C110.889 20.1719 111.196 19.7279 111.408 19.1583C111.625 18.5886 111.734 17.9213 111.734 17.1562C111.734 16.3911 111.628 15.7265 111.416 15.1625C111.205 14.5984 110.898 14.1628 110.497 13.8556C110.095 13.5485 109.607 13.3949 109.033 13.3949C108.448 13.3949 107.954 13.554 107.553 13.8723C107.151 14.1907 106.847 14.6319 106.641 15.196C106.435 15.76 106.331 16.4134 106.331 17.1562C106.331 17.9045 106.435 18.5663 106.641 19.1415C106.853 19.7112 107.156 20.158 107.553 20.4819C107.954 20.8002 108.448 20.9593 109.033 20.9593Z" fill="#1D2935"/>
<path d="M135.015 11.9792C134.899 11.5715 134.734 11.2113 134.523 10.8985C134.311 10.5802 134.052 10.3121 133.745 10.0944C133.444 9.87097 133.098 9.70057 132.708 9.58333C132.323 9.46609 131.897 9.40743 131.428 9.40743C130.553 9.40743 129.784 9.62524 129.12 10.0608C128.462 10.4964 127.949 11.1303 127.582 11.9624C127.214 12.7889 127.029 13.7998 127.029 14.9949C127.029 16.19 127.21 17.2064 127.573 18.0441C127.936 18.8819 128.448 19.5213 129.112 19.9625C129.775 20.3981 130.558 20.6159 131.462 20.6159C132.281 20.6159 132.981 20.4707 133.561 20.1803C134.146 19.8843 134.592 19.4682 134.899 18.9321C135.211 18.396 135.367 17.7621 135.367 17.0305L136.103 17.1394H131.687V14.4085H138.854V16.5697C138.854 18.0777 138.536 19.3733 137.901 20.4567C137.265 21.5346 136.39 22.3667 135.275 22.9531C134.16 23.5339 132.883 23.8243 131.445 23.8243C129.839 23.8243 128.429 23.4697 127.214 22.7604C125.998 22.0456 125.05 21.032 124.37 19.7195C123.695 18.4016 123.358 16.8379 123.358 15.0284C123.358 13.6378 123.559 12.398 123.961 11.309C124.367 10.2144 124.936 9.28736 125.666 8.52785C126.396 7.7683 127.247 7.19029 128.217 6.79377C129.187 6.39726 130.238 6.19901 131.37 6.19901C132.339 6.19901 133.243 6.34142 134.079 6.62624C134.916 6.90547 135.657 7.30198 136.304 7.81578C136.956 8.32954 137.488 8.94106 137.901 9.65033C138.313 10.354 138.579 11.1303 138.695 11.9792H135.015ZM141.507 23.5897V10.7226H144.961V12.9677H145.095C145.329 12.1691 145.722 11.5659 146.275 11.1582C146.826 10.745 147.461 10.5383 148.181 10.5383C148.359 10.5383 148.552 10.5495 148.758 10.5718C148.964 10.5942 149.145 10.6249 149.301 10.664V13.8305C149.134 13.7803 148.903 13.7355 148.607 13.6964C148.312 13.6574 148.042 13.6379 147.796 13.6379C147.272 13.6379 146.804 13.7523 146.391 13.9812C145.984 14.2046 145.661 14.5174 145.421 14.9195C145.187 15.3216 145.07 15.7852 145.07 16.3101V23.5897H141.507ZM156.399 23.8411C155.078 23.8411 153.941 23.573 152.988 23.0369C152.039 22.4952 151.309 21.73 150.796 20.7415C150.283 19.7474 150.027 18.5719 150.027 17.2149C150.027 15.8912 150.283 14.7296 150.796 13.7299C151.309 12.7303 152.032 11.9513 152.963 11.3927C153.899 10.8343 154.997 10.5551 156.257 10.5551C157.105 10.5551 157.894 10.6919 158.624 10.9655C159.359 11.2336 160.001 11.6385 160.547 12.1802C161.099 12.7219 161.528 13.4033 161.835 14.2242C162.142 15.0396 162.295 15.9946 162.295 17.0892V18.0693H151.448V15.8577H158.942C158.942 15.3439 158.83 14.8888 158.607 14.4923C158.384 14.0957 158.074 13.7858 157.679 13.5625C157.289 13.3335 156.834 13.219 156.316 13.219C155.775 13.219 155.296 13.3446 154.877 13.5959C154.465 13.8417 154.142 14.174 153.907 14.5928C153.673 15.0061 153.553 15.4668 153.547 15.9751V18.0777C153.547 18.7143 153.665 19.2644 153.899 19.7279C154.138 20.1915 154.476 20.5489 154.911 20.8002C155.346 21.0515 155.861 21.1771 156.458 21.1771C156.854 21.1771 157.216 21.1213 157.545 21.0097C157.874 20.8979 158.155 20.7304 158.39 20.507C158.624 20.2836 158.802 20.0099 158.924 19.686L162.22 19.9038C162.053 20.6969 161.71 21.3894 161.192 21.9813C160.678 22.5678 160.015 23.0257 159.201 23.3552C158.392 23.6791 157.459 23.8411 156.399 23.8411ZM170.474 23.8411C169.153 23.8411 168.015 23.573 167.062 23.0369C166.114 22.4952 165.383 21.73 164.871 20.7415C164.358 19.7474 164.101 18.5719 164.101 17.2149C164.101 15.8912 164.358 14.7296 164.871 13.7299C165.383 12.7303 166.106 11.9513 167.037 11.3927C167.973 10.8343 169.072 10.5551 170.332 10.5551C171.179 10.5551 171.968 10.6919 172.699 10.9655C173.434 11.2336 174.075 11.6385 174.622 12.1802C175.174 12.7219 175.603 13.4033 175.91 14.2242C176.216 15.0396 176.37 15.9946 176.37 17.0892V18.0693H165.523V15.8577H173.016C173.016 15.3439 172.904 14.8888 172.681 14.4923C172.458 14.0957 172.149 13.7858 171.753 13.5625C171.363 13.3335 170.909 13.219 170.39 13.219C169.849 13.219 169.37 13.3446 168.952 13.5959C168.539 13.8417 168.216 14.174 167.982 14.5928C167.748 15.0061 167.628 15.4668 167.622 15.9751V18.0777C167.622 18.7143 167.739 19.2644 167.973 19.7279C168.213 20.1915 168.551 20.5489 168.986 20.8002C169.421 21.0515 169.935 21.1771 170.532 21.1771C170.928 21.1771 171.29 21.1213 171.619 21.0097C171.948 20.8979 172.23 20.7304 172.464 20.507C172.699 20.2836 172.877 20.0099 172.999 19.686L176.295 19.9038C176.127 20.6969 175.784 21.3894 175.265 21.9813C174.753 22.5678 174.09 23.0257 173.276 23.3552C172.467 23.6791 171.533 23.8411 170.474 23.8411ZM182.257 16.151V23.5897H178.694V10.7226H182.089V12.9928H182.24C182.524 12.2444 183.002 11.6525 183.67 11.2168C184.339 10.7756 185.151 10.5551 186.104 10.5551C186.996 10.5551 187.773 10.7506 188.437 11.1414C189.101 11.5324 189.617 12.0908 189.984 12.8169C190.352 13.5373 190.536 14.3974 190.536 15.397V23.5897H186.974V16.0336C186.979 15.2462 186.778 14.6319 186.371 14.1907C185.965 13.7439 185.404 13.5205 184.691 13.5205C184.211 13.5205 183.787 13.6239 183.419 13.8305C183.057 14.0372 182.772 14.3387 182.567 14.7352C182.366 15.1261 182.263 15.598 182.257 16.151Z" fill="#0C9447"/>
<path d="M57.6249 33.3116H58.9451L62.0494 40.9067H62.1564L65.2606 33.3116H66.5808V42.4615H65.5461V35.5097H65.4569L62.6024 42.4615H61.6033L58.7488 35.5097H58.6596V42.4615H57.6249V33.3116ZM71.439 42.6045C70.8205 42.6045 70.2779 42.4571 69.811 42.1622C69.3472 41.8673 68.9844 41.4548 68.7228 40.9247C68.4641 40.3945 68.3348 39.7749 68.3348 39.066C68.3348 38.3512 68.4641 37.7272 68.7228 37.194C68.9844 36.6609 69.3472 36.2469 69.811 35.952C70.2779 35.6572 70.8205 35.5097 71.439 35.5097C72.0575 35.5097 72.5987 35.6572 73.0625 35.952C73.5293 36.2469 73.8921 36.6609 74.1507 37.194C74.4125 37.7272 74.5432 38.3512 74.5432 39.066C74.5432 39.7749 74.4125 40.3945 74.1507 40.9247C73.8921 41.4548 73.5293 41.8673 73.0625 42.1622C72.5987 42.4571 72.0575 42.6045 71.439 42.6045ZM71.439 41.6574C71.9088 41.6574 72.2953 41.5367 72.5987 41.2954C72.9019 41.0542 73.1264 40.737 73.2721 40.3438C73.4178 39.9506 73.4906 39.5248 73.4906 39.066C73.4906 38.6074 73.4178 38.1799 73.2721 37.7838C73.1264 37.3876 72.9019 37.0675 72.5987 36.8232C72.2953 36.579 71.9088 36.4569 71.439 36.4569C70.9692 36.4569 70.5827 36.579 70.2794 36.8232C69.9761 37.0675 69.7516 37.3876 69.6059 37.7838C69.4602 38.1799 69.3874 38.6074 69.3874 39.066C69.3874 39.5248 69.4602 39.9506 69.6059 40.3438C69.7516 40.737 69.9761 41.0542 70.2794 41.2954C70.5827 41.5367 70.9692 41.6574 71.439 41.6574ZM81.5063 35.5991L78.9732 42.4615H77.9029L75.3695 35.5991H76.5113L78.4024 41.0676H78.4738L80.365 35.5991H81.5063ZM82.8958 42.4615V35.5991H83.9484V42.4615H82.8958ZM83.4311 34.4553C83.2262 34.4553 83.0488 34.3854 82.9005 34.2453C82.7545 34.1053 82.6822 33.9371 82.6822 33.7405C82.6822 33.5439 82.7545 33.3756 82.9005 33.2356C83.0488 33.0956 83.2262 33.0256 83.4311 33.0256C83.636 33.0256 83.8118 33.0956 83.9578 33.2356C84.1062 33.3756 84.1808 33.5439 84.1808 33.7405C84.1808 33.9371 84.1062 34.1053 83.9578 34.2453C83.8118 34.3854 83.636 34.4553 83.4311 34.4553ZM86.929 38.3333V42.4615H85.8763V35.5991H86.8937V36.6714H86.9824C87.1433 36.3229 87.3866 36.0429 87.714 35.8314C88.0413 35.617 88.4636 35.5097 88.9809 35.5097C89.4449 35.5097 89.8507 35.605 90.1985 35.7956C90.5462 35.9833 90.817 36.2692 91.0101 36.6534C91.2032 37.0347 91.2998 37.5172 91.2998 38.101V42.4615H90.2471V38.1725C90.2471 37.6334 90.1074 37.2135 89.8279 36.9126C89.5485 36.6088 89.1654 36.4569 88.6772 36.4569C88.3412 36.4569 88.0413 36.5298 87.7768 36.6758C87.5146 36.8218 87.3081 37.0347 87.1566 37.3147C87.0051 37.5947 86.929 37.9342 86.929 38.3333ZM95.9885 45.1779C95.4806 45.1779 95.0434 45.1124 94.6776 44.9813C94.3118 44.8533 94.0072 44.6835 93.7631 44.472C93.5221 44.2636 93.3305 44.0402 93.1877 43.8018L94.026 43.2121C94.121 43.3372 94.2419 43.4802 94.3871 43.641C94.5331 43.8048 94.7325 43.9464 94.9853 44.0655C95.2412 44.1876 95.5756 44.2486 95.9885 44.2486C96.5419 44.2486 96.998 44.1146 97.3583 43.8466C97.7178 43.5785 97.8976 43.1585 97.8976 42.5866V41.1927H97.8081C97.7312 41.3178 97.6213 41.4727 97.4784 41.6574C97.3387 41.839 97.1361 42.0014 96.8716 42.1443C96.6102 42.2843 96.2562 42.3543 95.8103 42.3543C95.2569 42.3543 94.7608 42.2233 94.3204 41.9611C93.8832 41.699 93.537 41.3178 93.2811 40.8174C93.0283 40.317 92.9019 39.7094 92.9019 38.9946C92.9019 38.2917 93.026 37.6796 93.2724 37.1583C93.5189 36.6341 93.8628 36.2291 94.3031 35.9431C94.7427 35.6542 95.2514 35.5097 95.8284 35.5097C96.2742 35.5097 96.6283 35.5842 96.8897 35.7331C97.1542 35.8791 97.3567 36.0458 97.4964 36.2335C97.6393 36.4182 97.7492 36.5701 97.8261 36.6892H97.9337V35.5991H98.9502V42.6581C98.9502 43.2479 98.8168 43.7274 98.5491 44.0967C98.2838 44.469 97.9274 44.7416 97.4784 44.9143C97.0325 45.0901 96.5356 45.1779 95.9885 45.1779ZM95.9532 41.4072C96.3755 41.4072 96.7319 41.3104 97.0231 41.1168C97.3151 40.9232 97.5365 40.6447 97.688 40.2813C97.8395 39.9179 97.9156 39.483 97.9156 38.9767C97.9156 38.4823 97.8411 38.0459 97.6927 37.6676C97.5435 37.2893 97.3237 36.993 97.0325 36.7785C96.7413 36.5641 96.381 36.4569 95.9532 36.4569C95.5073 36.4569 95.1352 36.5701 94.8377 36.7965C94.5433 37.0228 94.322 37.3266 94.1736 37.7078C94.0276 38.0891 93.9546 38.5121 93.9546 38.9767C93.9546 39.4532 94.0292 39.8747 94.1775 40.241C94.3298 40.6045 94.5528 40.8904 94.8471 41.0988C95.1439 41.3044 95.5128 41.4072 95.9532 41.4072ZM105.087 45.0349C104.909 45.0349 104.75 45.0201 104.61 44.9903C104.47 44.9635 104.374 44.9367 104.32 44.9098L104.588 43.9806C104.844 44.0461 105.069 44.07 105.265 44.052C105.462 44.0342 105.636 43.9464 105.787 43.7885C105.942 43.6336 106.083 43.3819 106.211 43.0334L106.408 42.4973L103.874 35.5991H105.016L106.907 41.0676H106.978L108.869 35.5991H110.011L107.103 43.4623C106.973 43.8168 106.81 44.1101 106.617 44.3424C106.424 44.5778 106.2 44.752 105.944 44.8652C105.691 44.9784 105.405 45.0349 105.087 45.0349ZM113.939 42.6045C113.32 42.6045 112.778 42.4571 112.311 42.1622C111.847 41.8673 111.484 41.4548 111.223 40.9247C110.964 40.3945 110.834 39.7749 110.834 39.066C110.834 38.3512 110.964 37.7272 111.223 37.194C111.484 36.6609 111.847 36.2469 112.311 35.952C112.778 35.6572 113.32 35.5097 113.939 35.5097C114.557 35.5097 115.098 35.6572 115.562 35.952C116.029 36.2469 116.392 36.6609 116.65 37.194C116.912 37.7272 117.043 38.3512 117.043 39.066C117.043 39.7749 116.912 40.3945 116.65 40.9247C116.392 41.4548 116.029 41.8673 115.562 42.1622C115.098 42.4571 114.557 42.6045 113.939 42.6045ZM113.939 41.6574C114.408 41.6574 114.795 41.5367 115.098 41.2954C115.401 41.0542 115.626 40.737 115.772 40.3438C115.918 39.9506 115.99 39.5248 115.99 39.066C115.99 38.6074 115.918 38.1799 115.772 37.7838C115.626 37.3876 115.401 37.0675 115.098 36.8232C114.795 36.579 114.408 36.4569 113.939 36.4569C113.468 36.4569 113.082 36.579 112.778 36.8232C112.475 37.0675 112.251 37.3876 112.105 37.7838C111.96 38.1799 111.887 38.6074 111.887 39.066C111.887 39.5248 111.96 39.9506 112.105 40.3438C112.251 40.737 112.475 41.0542 112.778 41.2954C113.082 41.5367 113.468 41.6574 113.939 41.6574ZM122.967 39.6558V35.5991H124.019V42.4615H122.967V41.2999H122.895C122.735 41.6484 122.486 41.9448 122.146 42.189C121.807 42.4302 121.379 42.5509 120.861 42.5509C120.434 42.5509 120.053 42.4571 119.72 42.2694C119.387 42.0788 119.125 41.7928 118.935 41.4116C118.744 41.0274 118.649 40.5434 118.649 39.9596V35.5991H119.702V39.8881C119.702 40.3885 119.842 40.7876 120.121 41.0855C120.404 41.3833 120.763 41.5323 121.201 41.5323C121.462 41.5323 121.728 41.4653 121.999 41.3312C122.273 41.1971 122.501 40.9917 122.686 40.7146C122.873 40.4376 122.967 40.0847 122.967 39.6558ZM132.459 35.5991V36.4926H128.909V35.5991H132.459ZM129.944 33.9549H130.996V40.4957C130.996 40.7936 131.04 41.017 131.126 41.1659C131.215 41.3119 131.328 41.4101 131.464 41.4608C131.604 41.5084 131.752 41.5323 131.906 41.5323C132.022 41.5323 132.117 41.5263 132.192 41.5144C132.266 41.4995 132.325 41.4876 132.37 41.4786L132.584 42.4258C132.513 42.4526 132.413 42.4794 132.285 42.5062C132.157 42.536 131.996 42.5509 131.799 42.5509C131.502 42.5509 131.211 42.4869 130.925 42.3588C130.642 42.2307 130.408 42.0356 130.22 41.7735C130.036 41.5114 129.944 41.1808 129.944 40.7816V33.9549ZM136.752 42.6045C136.133 42.6045 135.591 42.4571 135.124 42.1622C134.66 41.8673 134.297 41.4548 134.036 40.9247C133.777 40.3945 133.648 39.7749 133.648 39.066C133.648 38.3512 133.777 37.7272 134.036 37.194C134.297 36.6609 134.66 36.2469 135.124 35.952C135.591 35.6572 136.133 35.5097 136.752 35.5097C137.37 35.5097 137.912 35.6572 138.375 35.952C138.842 36.2469 139.205 36.6609 139.464 37.194C139.725 37.7272 139.856 38.3512 139.856 39.066C139.856 39.7749 139.725 40.3945 139.464 40.9247C139.205 41.4548 138.842 41.8673 138.375 42.1622C137.912 42.4571 137.37 42.6045 136.752 42.6045ZM136.752 41.6574C137.222 41.6574 137.608 41.5367 137.912 41.2954C138.215 41.0542 138.44 40.737 138.585 40.3438C138.731 39.9506 138.804 39.5248 138.804 39.066C138.804 38.6074 138.731 38.1799 138.585 37.7838C138.44 37.3876 138.215 37.0675 137.912 36.8232C137.608 36.579 137.222 36.4569 136.752 36.4569C136.282 36.4569 135.895 36.579 135.592 36.8232C135.289 37.0675 135.065 37.3876 134.919 37.7838C134.773 38.1799 134.701 38.6074 134.701 39.066C134.701 39.5248 134.773 39.9506 134.919 40.3438C135.065 40.737 135.289 41.0542 135.592 41.2954C135.895 41.5367 136.282 41.6574 136.752 41.6574ZM147.012 42.6223C146.577 42.6223 146.183 42.5405 145.829 42.3766C145.475 42.2098 145.194 41.9701 144.986 41.6574C144.778 41.3417 144.675 40.9604 144.675 40.5136C144.675 40.1204 144.752 39.8017 144.906 39.5575C145.061 39.3103 145.267 39.1167 145.526 38.9767C145.785 38.8367 146.07 38.7325 146.383 38.664C146.698 38.5924 147.015 38.5359 147.333 38.4941C147.749 38.4406 148.086 38.4003 148.345 38.3735C148.607 38.3438 148.797 38.2946 148.916 38.2261C149.038 38.1576 149.099 38.0385 149.099 37.8687V37.8329C149.099 37.3921 148.979 37.0496 148.738 36.8054C148.5 36.5611 148.138 36.439 147.654 36.439C147.151 36.439 146.757 36.5492 146.472 36.7696C146.187 36.9901 145.986 37.2253 145.869 37.4755L144.871 37.1181C145.049 36.7011 145.287 36.3765 145.585 36.1441C145.884 35.9089 146.212 35.745 146.566 35.6527C146.922 35.5574 147.273 35.5097 147.618 35.5097C147.838 35.5097 148.091 35.5365 148.376 35.5902C148.665 35.6408 148.943 35.7465 149.21 35.9074C149.481 36.0682 149.706 36.3109 149.884 36.6356C150.062 36.9603 150.152 37.3951 150.152 37.9402V42.4615H149.099V41.5323H149.045C148.974 41.6812 148.855 41.8405 148.688 42.0103C148.522 42.18 148.301 42.3246 148.024 42.4437C147.747 42.5628 147.41 42.6223 147.012 42.6223ZM147.172 41.6752C147.589 41.6752 147.939 41.5933 148.224 41.4295C148.513 41.2657 148.73 41.0542 148.876 40.7951C149.024 40.5359 149.099 40.2634 149.099 39.9775V39.0124C149.054 39.066 148.956 39.1152 148.804 39.1598C148.656 39.2016 148.483 39.2388 148.287 39.2716C148.094 39.3014 147.905 39.3282 147.72 39.352C147.539 39.3729 147.392 39.3907 147.279 39.4056C147.005 39.4413 146.749 39.4995 146.512 39.5798C146.277 39.6573 146.087 39.7749 145.941 39.9328C145.798 40.0877 145.727 40.2991 145.727 40.5672C145.727 40.9336 145.862 41.2106 146.133 41.3982C146.406 41.5829 146.753 41.6752 147.172 41.6752ZM155.748 42.4615V33.3116H156.8V36.6892H156.89C156.967 36.5701 157.074 36.4182 157.211 36.2335C157.351 36.0458 157.55 35.8791 157.808 35.7331C158.07 35.5842 158.424 35.5097 158.87 35.5097C159.447 35.5097 159.955 35.6542 160.396 35.9431C160.835 36.232 161.179 36.6416 161.425 37.1717C161.672 37.7019 161.796 38.3274 161.796 39.0482C161.796 39.7749 161.672 40.4049 161.425 40.938C161.179 41.4682 160.837 41.8793 160.399 42.1711C159.962 42.46 159.458 42.6045 158.888 42.6045C158.447 42.6045 158.096 42.5315 157.83 42.3856C157.566 42.2367 157.362 42.0684 157.22 41.8808C157.077 41.6901 156.967 41.5323 156.89 41.4072H156.765V42.4615H155.748ZM156.782 39.0303C156.782 39.5486 156.858 40.0058 157.01 40.4019C157.161 40.7951 157.383 41.1033 157.675 41.3267C157.966 41.5471 158.322 41.6574 158.745 41.6574C159.185 41.6574 159.552 41.5411 159.847 41.3089C160.144 41.0735 160.367 40.7578 160.516 40.3617C160.667 39.9626 160.743 39.5188 160.743 39.0303C160.743 38.5478 160.669 38.1129 160.52 37.7257C160.374 37.3356 160.153 37.0273 159.855 36.8009C159.561 36.5716 159.191 36.4569 158.745 36.4569C158.317 36.4569 157.957 36.5656 157.665 36.783C157.374 36.9974 157.154 37.2983 157.005 37.6855C156.857 38.0698 156.782 38.518 156.782 39.0303ZM166.278 42.6045C165.618 42.6045 165.049 42.4586 164.57 42.1667C164.094 41.8718 163.727 41.4608 163.468 40.9336C163.213 40.4034 163.085 39.7869 163.085 39.0839C163.085 38.381 163.213 37.7614 163.468 37.2253C163.727 36.6862 164.087 36.2662 164.547 35.9654C165.011 35.6616 165.553 35.5097 166.171 35.5097C166.528 35.5097 166.88 35.5692 167.228 35.6885C167.576 35.8076 167.893 36.0012 168.178 36.2692C168.464 36.5343 168.691 36.8858 168.861 37.3236C169.03 37.7614 169.115 38.3005 169.115 38.9409V39.3877H163.834V38.4763H168.044C168.044 38.0891 167.967 37.7436 167.812 37.4398C167.661 37.136 167.444 36.8962 167.161 36.7205C166.882 36.5448 166.551 36.4569 166.171 36.4569C165.751 36.4569 165.389 36.5611 165.083 36.7696C164.78 36.9751 164.546 37.2432 164.382 37.5738C164.219 37.9044 164.138 38.2589 164.138 38.6372V39.2448C164.138 39.763 164.226 40.2024 164.405 40.5627C164.587 40.9202 164.838 41.1927 165.159 41.3803C165.48 41.565 165.853 41.6574 166.278 41.6574C166.555 41.6574 166.804 41.6186 167.027 41.5411C167.253 41.4608 167.448 41.3417 167.612 41.1838C167.775 41.023 167.902 40.8234 167.991 40.5851L169.008 40.871C168.901 41.2166 168.721 41.5203 168.468 41.7825C168.216 42.0416 167.903 42.2441 167.531 42.3901C167.16 42.533 166.742 42.6045 166.278 42.6045ZM173.696 35.5991V36.4926H170.145V35.5991H173.696ZM171.18 33.9549H172.232V40.4957C172.232 40.7936 172.275 41.017 172.362 41.1659C172.451 41.3119 172.564 41.4101 172.701 41.4608C172.841 41.5084 172.987 41.5323 173.142 41.5323C173.258 41.5323 173.353 41.5263 173.428 41.5144C173.502 41.4995 173.561 41.4876 173.606 41.4786L173.82 42.4258C173.749 42.4526 173.649 42.4794 173.521 42.5062C173.393 42.536 173.232 42.5509 173.035 42.5509C172.738 42.5509 172.447 42.4869 172.161 42.3588C171.878 42.2307 171.644 42.0356 171.456 41.7735C171.272 41.5114 171.18 41.1808 171.18 40.7816V33.9549ZM178.258 35.5991V36.4926H174.707V35.5991H178.258ZM175.743 33.9549H176.795V40.4957C176.795 40.7936 176.839 41.017 176.924 41.1659C177.014 41.3119 177.127 41.4101 177.263 41.4608C177.403 41.5084 177.551 41.5323 177.705 41.5323C177.821 41.5323 177.916 41.5263 177.99 41.5144C178.065 41.4995 178.124 41.4876 178.169 41.4786L178.383 42.4258C178.311 42.4526 178.212 42.4794 178.084 42.5062C177.956 42.536 177.794 42.5509 177.598 42.5509C177.301 42.5509 177.009 42.4869 176.724 42.3588C176.441 42.2307 176.207 42.0356 176.019 41.7735C175.835 41.5114 175.743 41.1808 175.743 40.7816V33.9549ZM182.64 42.6045C181.98 42.6045 181.41 42.4586 180.931 42.1667C180.456 41.8718 180.089 41.4608 179.83 40.9336C179.574 40.4034 179.446 39.7869 179.446 39.0839C179.446 38.381 179.574 37.7614 179.83 37.2253C180.089 36.6862 180.449 36.2662 180.91 35.9654C181.373 35.6616 181.914 35.5097 182.533 35.5097C182.89 35.5097 183.242 35.5692 183.59 35.6885C183.938 35.8076 184.254 36.0012 184.54 36.2692C184.826 36.5343 185.053 36.8858 185.222 37.3236C185.392 37.7614 185.477 38.3005 185.477 38.9409V39.3877H180.196V38.4763H184.407C184.407 38.0891 184.329 37.7436 184.174 37.4398C184.023 37.136 183.805 36.8962 183.524 36.7205C183.244 36.5448 182.914 36.4569 182.533 36.4569C182.114 36.4569 181.751 36.5611 181.445 36.7696C181.142 36.9751 180.908 37.2432 180.745 37.5738C180.581 37.9044 180.499 38.2589 180.499 38.6372V39.2448C180.499 39.763 180.588 40.2024 180.767 40.5627C180.948 40.9202 181.199 41.1927 181.52 41.3803C181.842 41.565 182.215 41.6574 182.64 41.6574C182.917 41.6574 183.166 41.6186 183.389 41.5411C183.615 41.4608 183.81 41.3417 183.973 41.1838C184.137 41.023 184.264 40.8234 184.352 40.5851L185.37 40.871C185.263 41.2166 185.082 41.5203 184.83 41.7825C184.577 42.0416 184.265 42.2441 183.893 42.3901C183.522 42.533 183.104 42.6045 182.64 42.6045ZM187.078 42.4615V35.5991H188.094V36.6356H188.166C188.291 36.296 188.517 36.0205 188.844 35.8091C189.171 35.5976 189.54 35.4919 189.95 35.4919C190.028 35.4919 190.124 35.4934 190.24 35.4963C190.356 35.4993 190.444 35.5037 190.504 35.5097V36.582C190.467 36.5731 190.386 36.5596 190.258 36.5418C190.133 36.5209 190.001 36.5105 189.861 36.5105C189.528 36.5105 189.23 36.5805 188.969 36.7205C188.711 36.8575 188.505 37.0481 188.354 37.2923C188.205 37.5336 188.131 37.8091 188.131 38.1189V42.4615H187.078ZM198.335 35.5991V36.4926H194.641V35.5991H198.335ZM195.747 42.4615V34.6519C195.747 34.2588 195.839 33.9311 196.024 33.669C196.208 33.4069 196.447 33.2103 196.742 33.0793C197.036 32.9482 197.347 32.8827 197.674 32.8827C197.933 32.8827 198.144 32.9035 198.307 32.9452C198.471 32.987 198.593 33.0256 198.673 33.0614L198.37 33.9728C198.317 33.9549 198.242 33.9326 198.147 33.9058C198.054 33.879 197.933 33.8656 197.781 33.8656C197.433 33.8656 197.182 33.9534 197.028 34.1292C196.876 34.3049 196.8 34.5625 196.8 34.9021V42.4615H195.747ZM204.127 39.6558V35.5991H205.18V42.4615H204.127V41.2999H204.056C203.895 41.6484 203.645 41.9448 203.306 42.189C202.968 42.4302 202.539 42.5509 202.022 42.5509C201.593 42.5509 201.213 42.4571 200.879 42.2694C200.547 42.0788 200.285 41.7928 200.094 41.4116C199.905 41.0274 199.81 40.5434 199.81 39.9596V35.5991H200.862V39.8881C200.862 40.3885 201.002 40.7876 201.281 41.0855C201.564 41.3833 201.924 41.5323 202.361 41.5323C202.622 41.5323 202.888 41.4653 203.159 41.3312C203.432 41.1971 203.661 40.9917 203.846 40.7146C204.033 40.4376 204.127 40.0847 204.127 39.6558ZM210.087 35.5991V36.4926H206.536V35.5991H210.087ZM207.571 33.9549H208.623V40.4957C208.623 40.7936 208.667 41.017 208.753 41.1659C208.842 41.3119 208.955 41.4101 209.092 41.4608C209.232 41.5084 209.379 41.5323 209.534 41.5323C209.649 41.5323 209.744 41.5263 209.819 41.5144C209.893 41.4995 209.953 41.4876 209.997 41.4786L210.211 42.4258C210.14 42.4526 210.04 42.4794 209.913 42.5062C209.785 42.536 209.623 42.5509 209.426 42.5509C209.129 42.5509 208.838 42.4869 208.553 42.3588C208.27 42.2307 208.035 42.0356 207.848 41.7735C207.663 41.5114 207.571 41.1808 207.571 40.7816V33.9549ZM215.987 39.6558V35.5991H217.04V42.4615H215.987V41.2999H215.916C215.756 41.6484 215.506 41.9448 215.167 42.189C214.828 42.4302 214.399 42.5509 213.882 42.5509C213.454 42.5509 213.073 42.4571 212.741 42.2694C212.408 42.0788 212.146 41.7928 211.956 41.4116C211.765 41.0274 211.67 40.5434 211.67 39.9596V35.5991H212.723V39.8881C212.723 40.3885 212.862 40.7876 213.142 41.0855C213.424 41.3833 213.784 41.5323 214.221 41.5323C214.482 41.5323 214.749 41.4653 215.019 41.3312C215.293 41.1971 215.522 40.9917 215.706 40.7146C215.894 40.4376 215.987 40.0847 215.987 39.6558ZM218.968 42.4615V35.5991H219.984V36.6356H220.056C220.181 36.296 220.407 36.0205 220.734 35.8091C221.061 35.5976 221.43 35.4919 221.84 35.4919C221.918 35.4919 222.014 35.4934 222.13 35.4963C222.246 35.4993 222.334 35.5037 222.394 35.5097V36.582C222.357 36.5731 222.276 36.5596 222.148 36.5418C222.023 36.5209 221.891 36.5105 221.751 36.5105C221.418 36.5105 221.12 36.5805 220.859 36.7205C220.601 36.8575 220.395 37.0481 220.243 37.2923C220.095 37.5336 220.02 37.8091 220.02 38.1189V42.4615H218.968ZM226.305 42.6045C225.645 42.6045 225.075 42.4586 224.596 42.1667C224.12 41.8718 223.754 41.4608 223.495 40.9336C223.239 40.4034 223.111 39.7869 223.111 39.0839C223.111 38.381 223.239 37.7614 223.495 37.2253C223.754 36.6862 224.113 36.2662 224.574 35.9654C225.038 35.6616 225.579 35.5097 226.198 35.5097C226.555 35.5097 226.907 35.5692 227.255 35.6885C227.603 35.8076 227.919 36.0012 228.205 36.2692C228.49 36.5343 228.717 36.8858 228.887 37.3236C229.056 37.7614 229.141 38.3005 229.141 38.9409V39.3877H223.861V38.4763H228.071C228.071 38.0891 227.994 37.7436 227.839 37.4398C227.687 37.136 227.47 36.8962 227.188 36.7205C226.909 36.5448 226.578 36.4569 226.198 36.4569C225.778 36.4569 225.416 36.5611 225.11 36.7696C224.807 36.9751 224.573 37.2432 224.409 37.5738C224.246 37.9044 224.164 38.2589 224.164 38.6372V39.2448C224.164 39.763 224.253 40.2024 224.431 40.5627C224.613 40.9202 224.864 41.1927 225.185 41.3803C225.507 41.565 225.88 41.6574 226.305 41.6574C226.581 41.6574 226.831 41.6186 227.054 41.5411C227.28 41.4608 227.475 41.3417 227.638 41.1838C227.802 41.023 227.928 40.8234 228.017 40.5851L229.034 40.871C228.928 41.2166 228.747 41.5203 228.494 41.7825C228.242 42.0416 227.93 42.2441 227.558 42.3901C227.187 42.533 226.769 42.6045 226.305 42.6045Z" fill="black"/>
</g>
<defs>
<clipPath id="clip0_2341_124">
<rect width="230" height="47.1795" fill="white"/>
</clipPath>
</defs>
</svg>
