<svg width="320" height="213" viewBox="0 0 320 213" fill="none" xmlns="http://www.w3.org/2000/svg">
<rect width="320" height="213" rx="15" fill="#E5E5E5" fill-opacity="0.3"/>
<g clip-path="url(#clip0_2342_512)">
<path d="M172.038 105.516C171.711 105.479 171.265 105.434 170.671 105.36L163.727 104.493C164.346 104.844 164.927 105.176 165.482 105.434L166.937 106.121L166.819 107.721C166.806 107.905 166.799 108.069 166.799 108.209C166.799 108.374 166.454 108.853 166.466 108.95C166.557 108.961 167.028 108.615 167.18 108.615C167.483 108.611 167.785 108.59 168.085 108.55C168.84 108.47 169.577 108.266 170.265 107.945C170.843 107.67 171.351 107.269 171.752 106.771C172.039 106.405 172.274 106.001 172.452 105.571C172.342 105.555 172.208 105.538 172.035 105.519" fill="#647787"/>
<path d="M116.47 149.65L121.977 155.32C123.314 156.633 124.833 157.747 126.486 158.63C130.271 160.735 134.53 161.841 138.861 161.844H138.934L148.634 161.766L139.554 158.334L116.47 149.65Z" fill="#647787"/>
<path d="M99.894 161.1L99.462 160.319L99.894 161.1Z" fill="#647787"/>
<path d="M87.86 122.818C87.6451 121.837 87.5401 120.835 87.547 119.83C87.5743 118.199 87.7568 116.574 88.092 114.977C89.505 107.668 92.417 100.777 95.386 93.7591C96.513 91.0841 98.018 88.4501 99.359 85.6131C99.5508 85.1891 99.5682 84.7066 99.4074 84.2699C99.2467 83.8332 98.9206 83.4771 98.4997 83.2787C98.0787 83.0802 97.5966 83.0552 97.1574 83.2091C96.7182 83.3629 96.3571 83.6833 96.152 84.1011C94.894 86.7721 93.361 89.4491 92.12 92.3841C89.157 99.3961 86.12 106.517 84.61 114.308C84.2313 116.125 84.027 117.974 84 119.83C83.9932 121.096 84.1274 122.359 84.4 123.596C84.6941 124.905 85.1627 126.169 85.793 127.354C86.0171 127.763 86.3931 128.066 86.8395 128.2C87.2859 128.333 87.7669 128.286 88.1785 128.067C88.5901 127.849 88.8991 127.477 89.0388 127.033C89.1785 126.588 89.1376 126.107 88.925 125.692C88.4427 124.786 88.0845 123.82 87.86 122.818Z" fill="#647787"/>
<path d="M183.828 137.286L183.02 138.863L183.828 137.286Z" fill="#647787"/>
<path d="M180.824 154.271H180.818C179.613 154.292 178.426 153.981 177.387 153.371C176.391 152.763 175.621 151.847 175.193 150.762C174.908 150.029 174.764 149.249 174.769 148.462C174.769 148.202 174.783 148.039 174.81 147.713V147.665C174.889 146.706 175.25 145.792 175.848 145.038C176.368 144.389 177.024 143.86 177.769 143.49C178.203 143.274 178.655 143.096 179.12 142.958C179.132 142.955 179.144 142.949 179.154 142.942C179.162 142.936 179.171 142.931 179.181 142.928C179.181 142.928 179.171 142.928 179.15 142.922C179.14 142.922 179.13 142.92 179.12 142.916C179.109 142.58 179.069 142.245 178.999 141.916C178.93 141.593 178.89 141.265 178.88 140.935C178.902 140.276 179.016 139.623 179.218 138.995C179.393 138.39 179.628 137.804 179.918 137.245C180.089 136.871 180.226 136.483 180.329 136.085L180.372 135.939C180.52 135.388 180.715 134.85 180.953 134.332C181.19 133.858 181.522 133.438 181.929 133.098C182.29 132.787 182.697 132.534 183.135 132.346C185.8 131.198 188.315 129.73 190.627 127.976C192.976 126.194 195.206 124.259 197.301 122.184C197.943 121.515 198.475 120.749 198.88 119.915C199.157 119.391 199.42 118.832 199.699 118.24C199.913 117.787 200.133 117.319 200.367 116.852C200.919 115.774 201.78 114.884 202.839 114.297C203.855 113.723 205.002 113.419 206.169 113.415C206.808 113.413 207.443 113.51 208.052 113.703C208.69 113.905 209.286 114.218 209.814 114.628C210.623 115.249 211.351 115.97 211.979 116.773C212.623 117.598 213.11 118.535 213.416 119.536C213.625 120.239 213.731 120.969 213.73 121.702C213.73 122.03 213.71 122.357 213.67 122.682L213.661 122.75L213.649 122.815C213.449 123.802 213.26 124.828 213.078 125.815C212.664 128.073 212.236 130.408 211.588 132.726C210.839 135.31 209.687 137.76 208.176 139.985C206.721 142.121 205.112 144.148 203.362 146.05C201.593 148.043 199.471 149.693 197.103 150.915C194.711 152.123 192.12 152.888 189.455 153.172C188.342 153.296 187.233 153.465 186.055 153.645C184.619 153.864 183.134 154.091 181.612 154.233L181.449 152.469L181.612 154.235C181.326 154.259 181.069 154.271 180.824 154.271ZM206.162 116.959C205.61 116.964 205.069 117.109 204.588 117.38C204.14 117.622 203.774 117.991 203.537 118.442C203.337 118.842 203.137 119.256 202.937 119.698C202.651 120.305 202.356 120.931 202.024 121.564C201.442 122.73 200.681 123.798 199.769 124.728C197.563 126.912 195.216 128.947 192.741 130.821C190.203 132.746 187.442 134.356 184.516 135.615C184.428 135.654 184.346 135.704 184.271 135.763C184.219 135.802 184.172 135.846 184.129 135.894C183.957 136.28 183.816 136.678 183.707 137.086V137.093C183.543 137.706 183.313 138.3 183.022 138.864C182.999 139.113 182.917 139.353 182.782 139.564C182.708 139.693 182.647 139.829 182.6 139.97C182.516 140.286 182.478 140.612 182.486 140.939C182.487 141.229 182.527 141.518 182.605 141.798L182.632 141.892C182.767 142.315 182.839 142.755 182.844 143.199C182.847 143.622 182.763 144.041 182.598 144.431C182.421 144.838 182.156 145.201 181.821 145.493C181.614 145.674 181.387 145.83 181.144 145.959C180.834 146.123 180.507 146.255 180.17 146.353C179.778 146.461 179.403 146.625 179.058 146.84C178.827 146.98 178.637 147.179 178.507 147.415C178.415 147.597 178.359 147.794 178.341 147.997C178.325 148.142 178.316 148.288 178.316 148.434C178.298 148.917 178.425 149.395 178.68 149.806C178.914 150.151 179.256 150.408 179.652 150.538C180.029 150.668 180.426 150.731 180.825 150.724C180.974 150.724 181.13 150.716 181.29 150.701C182.641 150.577 183.996 150.371 185.43 150.152C186.606 149.973 187.822 149.787 189.059 149.652C191.299 149.415 193.477 148.774 195.489 147.761C197.469 146.738 199.243 145.359 200.723 143.693C202.356 141.922 203.858 140.034 205.216 138.044C206.522 136.122 207.519 134.007 208.169 131.776C208.761 129.67 209.161 127.493 209.585 125.188C209.769 124.215 209.953 123.215 210.153 122.215C210.173 122.045 210.184 121.875 210.185 121.704C210.186 121.312 210.129 120.923 210.018 120.547C209.903 120.166 209.738 119.801 209.529 119.462C209.025 118.675 208.383 117.986 207.635 117.426C207.437 117.273 207.214 117.156 206.975 117.082C206.716 117.001 206.446 116.96 206.175 116.961L206.162 116.959Z" fill="#647787"/>
<path d="M215.698 167.577H215.681C214.052 167.576 212.432 167.333 210.874 166.856L210.809 166.989L209.232 166.272C209.146 166.232 209.089 166.204 209.058 166.188L209.031 166.175C207.367 165.461 205.846 164.453 204.54 163.2C202.44 161.251 200.682 158.964 199.34 156.433C199.155 156.099 199.024 155.737 198.951 155.362C198.89 155.043 198.86 154.718 198.862 154.393C198.863 153.985 198.901 153.577 198.975 153.176C199.02 152.934 199.1 152.7 199.214 152.482C199.302 152.312 199.405 152.151 199.522 152C199.736 151.723 199.989 151.478 200.273 151.274C200.5 151.109 200.75 150.979 201.015 150.889C201.233 150.815 201.462 150.775 201.692 150.771C205.966 150.679 210.209 150.028 214.314 148.836L214.772 148.708C216.327 148.272 217.935 147.821 219.594 147.466C221.454 147.042 223.354 146.819 225.262 146.8C226.732 146.795 228.197 146.963 229.628 147.3C231.038 147.615 232.337 148.306 233.386 149.3C234.405 150.261 235.138 151.486 235.504 152.838C235.775 153.414 235.889 154.051 235.836 154.686V154.795C235.84 155.88 235.544 156.945 234.981 157.872C234.43 158.755 233.717 159.526 232.881 160.145C231.131 161.523 229.302 162.797 227.403 163.961C225.488 165.134 223.427 166.048 221.272 166.68L221.251 166.686C219.457 167.266 217.584 167.566 215.698 167.577ZM225.267 150.344C223.608 150.366 221.956 150.562 220.339 150.931C218.768 151.267 217.212 151.704 215.565 152.167L215.274 152.249C211.088 153.46 206.768 154.149 202.413 154.3C202.413 154.314 202.413 154.328 202.413 154.343C202.413 154.358 202.413 154.381 202.413 154.397C202.41 154.507 202.421 154.617 202.446 154.724C203.608 156.933 205.138 158.928 206.969 160.624L207.026 160.674L207.077 160.728L207.108 160.759C207.131 160.782 207.182 160.83 207.26 160.901C207.389 161.019 207.607 161.207 207.913 161.44C208.705 162.037 209.563 162.54 210.471 162.94L210.671 163.023C212.261 163.696 213.97 164.042 215.697 164.04C217.221 164.029 218.734 163.785 220.183 163.315L220.221 163.303L220.259 163.292C222.136 162.744 223.932 161.947 225.597 160.921C227.376 159.828 229.091 158.632 230.731 157.34C231.105 157.059 231.441 156.73 231.731 156.363C231.951 156.086 232.118 155.77 232.222 155.432C232.239 155.373 232.261 155.313 232.282 155.255C232.344 155.111 232.379 154.957 232.388 154.8C232.385 154.672 232.374 154.544 232.356 154.417C232.332 154.25 232.319 154.081 232.316 153.912C232.04 153.144 231.602 152.446 231.03 151.864C230.401 151.304 229.635 150.92 228.81 150.75C227.649 150.474 226.46 150.338 225.267 150.344Z" fill="#647787"/>
<path d="M151.855 181.985C149.531 181.97 147.209 181.82 144.902 181.535C140.26 180.977 135.691 179.93 131.269 178.411C126.885 176.905 122.605 175.11 118.458 173.038C117.097 172.406 115.701 171.852 114.277 171.38L114.153 171.336C112.545 170.802 110.976 170.154 109.46 169.398C107.47 168.386 105.6 167.154 103.883 165.727C102.084 164.217 100.584 162.384 99.461 160.321C98.6115 158.708 98.1726 156.911 98.183 155.088C98.1883 153.41 98.5314 151.75 99.192 150.207C99.5291 149.42 99.9473 148.671 100.44 147.971L100.395 147.951C100.306 147.912 100.237 147.881 100.19 147.864L98.4 147.187L99.212 145.454C99.222 145.436 99.278 145.286 99.342 145.09L99.367 145.016C99.4433 144.776 99.5369 144.542 99.647 144.316C99.7858 144.029 99.9755 143.769 100.207 143.55C100.413 143.359 100.653 143.21 100.915 143.109C101.832 142.77 102.776 142.505 103.736 142.318L103.654 142.231C103.597 142.171 103.542 142.113 103.487 142.053C102.447 140.967 101.52 139.78 100.718 138.508C99.947 137.179 99.3041 135.78 98.798 134.33C98.592 133.768 98.398 133.206 98.206 132.663C97.917 131.835 97.645 131.057 97.349 130.304C97.216 129.965 97.107 129.641 97.011 129.355C96.97 129.232 96.931 129.117 96.893 129.007C96.7873 128.683 96.6572 128.367 96.504 128.062C95.9813 127.077 95.5932 126.027 95.35 124.939C95.1227 123.914 95.0113 122.868 95.018 121.818C95.0384 120.293 95.2058 118.774 95.518 117.282C96.729 111.038 99.151 105.306 101.493 99.762L101.614 99.476C102.232 98.019 102.935 96.643 103.614 95.312C104.062 94.435 104.485 93.606 104.881 92.765C105.31 91.857 105.705 90.921 106.123 89.93C106.315 89.476 106.513 89.006 106.716 88.537C107.341 87.0281 108.077 85.5672 108.916 84.166C109.904 82.4884 111.256 81.0533 112.871 79.966C114.314 79.0185 116.001 78.5086 117.727 78.498H117.745C119.153 78.5091 120.542 78.8233 121.818 79.419C123.194 80.063 124.456 80.9251 125.557 81.972C129.821 85.8754 134.446 89.3663 139.368 92.398C141.819 93.8822 144.637 94.6506 147.502 94.616H147.512C149.243 94.6182 150.964 94.35 152.612 93.821C154.181 93.3271 155.642 92.5424 156.921 91.508C158.692 90.051 160.339 88.417 162.083 86.688C162.38 86.3934 162.68 86.098 162.983 85.802C163.398 85.382 163.878 85.0318 164.405 84.765C164.951 84.4896 165.554 84.3435 166.166 84.338H166.18C166.849 84.3439 167.504 84.5257 168.08 84.865C168.653 85.2093 169.153 85.6621 169.552 86.198C170 86.7884 170.396 87.416 170.736 88.074C170.946 88.474 171.136 88.855 171.321 89.227C171.426 89.439 171.521 89.64 171.621 89.837C172.264 91.129 173.122 92.3018 174.159 93.305C175.191 94.2853 176.395 95.0652 177.712 95.605C177.982 95.719 178.298 95.855 178.622 96.031C178.973 96.2164 179.298 96.4489 179.586 96.722C179.82 96.9465 180.017 97.2067 180.17 97.493C180.256 97.6573 180.325 97.8298 180.376 98.008C181.035 98.039 181.697 98.082 182.341 98.136C183.898 98.2575 185.447 98.4682 186.98 98.767C187.942 98.952 188.886 99.2197 189.802 99.567C190.289 99.7537 190.755 99.9927 191.191 100.28L196.802 104.08L190.048 103.517C189.382 103.461 188.848 103.434 188.43 103.434C188.084 103.434 187.859 103.45 187.574 103.471H187.53C187.224 103.493 186.844 103.521 186.33 103.521C185.839 103.521 185.254 103.496 184.544 103.444C181.527 103.22 179.058 103.073 176.772 102.98L176.758 102.992C176.713 103.03 176.664 103.072 176.608 103.116C176.391 103.293 176.151 103.439 175.895 103.551C175.511 103.712 175.125 103.871 174.715 104.037V104.046C174.766 104.139 174.811 104.235 174.851 104.333C174.985 104.684 175.053 105.057 175.051 105.433C175.04 106.005 174.918 106.569 174.69 107.093C174.423 107.755 174.061 108.374 173.617 108.933C173.198 109.46 172.701 109.92 172.144 110.298C171.056 111.006 169.815 111.446 168.523 111.581C168.151 111.63 167.776 111.655 167.401 111.657C166.974 111.662 166.549 111.614 166.134 111.514C165.692 111.408 165.276 111.214 164.91 110.945C164.658 110.757 164.435 110.531 164.251 110.276C164.021 109.955 163.85 109.596 163.744 109.215C163.669 108.945 163.619 108.668 163.595 108.388C163.419 108.288 163.25 108.194 163.086 108.101L162.794 107.936C162.356 107.673 161.898 107.445 161.424 107.253C161.223 107.173 161.012 107.121 160.797 107.096L160.585 107.076C159.751 106.996 158.964 106.921 158.244 106.921H158.208C157.555 106.905 156.903 106.993 156.278 107.182C155.685 107.375 155.149 107.71 154.716 108.159C152.675 110.281 150.129 111.849 147.316 112.718C146.397 113 145.442 113.144 144.481 113.146H144.475C143.094 113.135 141.73 112.85 140.46 112.308C139.266 111.798 138.124 111.173 137.051 110.441C136.483 110.056 135.939 109.636 135.422 109.185L135.204 108.999C134.804 108.66 134.432 108.341 134.073 108.071C133.898 107.931 133.706 107.815 133.501 107.724C133.435 107.692 133.363 107.673 133.29 107.667L133.247 107.673C133.207 107.686 133.169 107.705 133.134 107.727C132.921 107.87 132.732 108.046 132.575 108.249L132.555 108.273C132.206 108.683 131.929 109.149 131.736 109.651C131.568 110.105 131.484 110.585 131.486 111.068C131.492 111.587 131.57 112.103 131.716 112.601C132.207 114.335 132.682 116.094 133.14 117.795C134.24 121.884 135.382 126.113 136.796 130.095C137.295 131.495 137.935 132.842 138.704 134.114C139.453 135.367 140.348 136.526 141.37 137.568C142.849 139.018 144.135 140.654 145.195 142.434L145.204 142.394C145.215 142.346 145.227 142.294 145.241 142.245L145.249 142.219C145.287 142.085 145.338 141.955 145.4 141.83L145.408 141.814C145.485 141.66 145.583 141.518 145.7 141.392C145.823 141.258 145.966 141.143 146.123 141.051C146.38 140.901 146.67 140.817 146.967 140.807C147.241 140.798 147.488 140.793 147.723 140.793C148.71 140.773 149.695 140.897 150.646 141.161C150.957 141.255 151.242 141.418 151.482 141.637C151.645 141.787 151.789 141.957 151.908 142.144C152.051 142.37 152.172 142.609 152.269 142.858L152.286 142.899C152.316 142.974 152.343 143.043 152.368 143.106C152.393 143.169 152.408 143.206 152.426 143.252C152.475 143.377 152.518 143.465 152.526 143.47C152.826 143.997 153.064 144.505 153.298 144.996C153.438 145.289 153.569 145.566 153.698 145.823C153.95 146.378 154.296 146.886 154.721 147.323C155.612 148.107 156.562 148.82 157.564 149.456C157.903 149.68 158.241 149.898 158.599 150.129C159.332 150.602 160.089 151.09 160.841 151.622C162.622 152.847 164.327 154.179 165.947 155.61C166.974 156.533 167.921 157.542 168.778 158.626C168.826 158.436 168.878 158.268 168.926 158.114C169.12 157.533 169.416 156.991 169.801 156.514C170.181 156.041 170.63 155.628 171.133 155.289C172.19 154.572 173.438 154.189 174.715 154.189H174.724C175.37 154.195 176.012 154.294 176.63 154.483C177.796 154.864 179.018 155.041 180.244 155.008H180.256C181.499 154.981 182.74 154.883 183.972 154.715C184.962 154.59 185.958 154.524 186.955 154.515C188.836 154.48 190.71 154.75 192.504 155.315C194.404 155.935 196.15 156.951 197.628 158.295C197.851 158.541 198.078 158.779 198.298 159.01C198.725 159.458 199.129 159.882 199.521 160.36C200.169 161.104 200.702 161.941 201.1 162.843C201.456 163.614 201.647 164.451 201.66 165.3C201.661 166.126 201.5 166.944 201.187 167.709C200.876 168.482 200.408 169.183 199.812 169.765C199.395 170.17 198.913 170.502 198.385 170.746C198.03 170.908 197.674 171.078 197.297 171.258C196.442 171.667 195.559 172.089 194.597 172.458C193.121 173.068 191.544 173.393 189.947 173.416C189.794 173.416 189.647 173.416 189.509 173.407L189.382 173.402L189.256 173.379L187.94 173.131L187.885 173.121C186.865 172.929 185.811 172.73 184.779 172.544C184.509 172.494 184.251 172.444 184.002 172.393C183.373 172.249 182.734 172.151 182.09 172.101C180.8 172.06 179.521 171.841 178.29 171.452C177.024 171.044 175.861 170.367 174.882 169.467C174.19 168.819 173.597 168.073 173.12 167.254L173.102 167.236C173.044 167.186 172.983 167.14 172.918 167.098C172.8 167.016 172.638 166.921 172.45 166.81L172.363 166.759C172.448 167.352 172.491 167.949 172.493 168.548C172.509 170.748 171.855 172.901 170.618 174.72C169.298 176.584 167.521 178.076 165.457 179.054C163.315 180.119 161.041 180.892 158.694 181.354C156.441 181.79 154.15 182.002 151.855 181.985ZM106.965 145.652L105.351 147.672C105.262 147.782 105.189 147.88 105.119 147.972C105.025 148.098 104.928 148.228 104.789 148.393C104.698 148.499 104.599 148.599 104.495 148.693C103.616 149.504 102.919 150.492 102.452 151.593C101.979 152.694 101.733 153.88 101.729 155.079C101.718 156.317 102.013 157.539 102.587 158.636C103.5 160.312 104.721 161.8 106.187 163.022C107.703 164.279 109.354 165.362 111.111 166.252C112.478 166.932 113.891 167.516 115.339 167.998L115.67 168.116C117.152 168.612 118.604 169.193 120.018 169.857C129.518 174.527 137.553 177.118 145.303 178.014C147.475 178.283 149.661 178.425 151.85 178.441C153.911 178.458 155.968 178.269 157.992 177.879C160.03 177.482 162.006 176.811 163.864 175.885C165.386 175.175 166.7 174.087 167.682 172.724C168.52 171.493 168.959 170.035 168.94 168.546C168.933 167.688 168.817 166.835 168.595 166.007C168.278 164.783 167.791 163.61 167.15 162.52C166.519 161.458 165.772 160.469 164.922 159.573C163.056 157.684 161.003 155.991 158.794 154.519C158.128 154.047 157.426 153.594 156.684 153.119C156.336 152.895 155.977 152.663 155.616 152.425C154.458 151.686 153.36 150.857 152.332 149.947C151.591 149.228 150.986 148.381 150.545 147.447C150.374 147.111 150.218 146.785 150.068 146.47C149.85 146.014 149.645 145.584 149.438 145.221C149.315 144.995 149.207 144.762 149.116 144.521L149.086 144.446C148.91 144.417 148.717 144.394 148.514 144.378C148.419 145.661 148.342 146.978 148.267 148.253C148.235 148.797 148.202 149.341 148.167 149.885L148.073 151.421L146.539 151.543L145.924 151.592L144.196 151.73L144.025 149.998C143.841 148.134 143.288 146.325 142.399 144.676C141.451 142.975 140.26 141.422 138.863 140.066C137.643 138.824 136.575 137.442 135.68 135.949C134.783 134.472 134.04 132.906 133.461 131.278C131.987 127.119 130.835 122.842 129.72 118.705C129.265 117.014 128.794 115.266 128.311 113.567C128.075 112.754 127.953 111.913 127.947 111.067C127.944 110.162 128.104 109.264 128.419 108.415C128.752 107.538 129.23 106.724 129.835 106.007C130.149 105.62 130.507 105.272 130.902 104.968C131.307 104.655 131.765 104.418 132.255 104.268C132.593 104.168 132.944 104.118 133.297 104.118C133.833 104.122 134.364 104.231 134.858 104.44C135.342 104.646 135.798 104.913 136.214 105.234C136.678 105.584 137.088 105.934 137.484 106.272L137.49 106.277L137.723 106.477C138.134 106.835 138.565 107.169 139.014 107.477C139.894 108.082 140.832 108.599 141.814 109.02C142.661 109.385 143.571 109.58 144.493 109.594C145.105 109.592 145.713 109.499 146.298 109.318C148.544 108.622 150.574 107.364 152.198 105.664C153.029 104.814 154.052 104.177 155.181 103.806C156.167 103.497 157.196 103.349 158.229 103.368C159.123 103.368 159.986 103.451 160.748 103.523L161.134 103.559C161.661 103.612 162.179 103.735 162.674 103.926C163.097 104.088 163.509 104.278 163.907 104.493L169.616 102.234C170.177 102.012 170.702 101.806 171.199 101.612H171.21C172.403 101.144 173.434 100.741 174.436 100.32L174.452 100.306C174.476 100.286 174.506 100.26 174.542 100.228C174.625 100.153 174.742 100.051 174.905 99.928C175.123 99.76 175.367 99.6274 175.626 99.535C175.854 99.4549 176.094 99.4137 176.336 99.413H176.418L176.608 99.421H176.613L176.735 99.427L176.871 99.112C176.752 99.051 176.592 98.977 176.351 98.875C174.636 98.168 173.066 97.151 171.72 95.875C170.39 94.5945 169.289 93.0959 168.465 91.444C168.352 91.222 168.244 91.003 168.138 90.789C167.955 90.42 167.783 90.072 167.607 89.743C167.36 89.2613 167.073 88.8013 166.748 88.368C166.626 88.1956 166.473 88.0477 166.297 87.932C166.262 87.9074 166.221 87.8919 166.178 87.887H166.168C166.101 87.8921 166.035 87.9123 165.977 87.946C165.791 88.0464 165.623 88.1753 165.477 88.328L164.515 89.28C162.833 90.948 161.095 92.671 159.183 94.247C157.562 95.5642 155.708 96.5653 153.718 97.198C151.715 97.8449 149.623 98.1716 147.518 98.166C143.975 98.2095 140.493 97.2499 137.472 95.398C132.363 92.248 127.563 88.6211 123.138 84.566C122.318 83.7796 121.377 83.1312 120.35 82.646C119.536 82.2636 118.649 82.059 117.75 82.046C116.699 82.0514 115.672 82.3643 114.796 82.946C113.627 83.7491 112.651 84.8022 111.939 86.029C111.192 87.285 110.537 88.593 109.978 89.943C109.786 90.387 109.592 90.843 109.405 91.291C108.994 92.266 108.568 93.275 108.096 94.277C107.656 95.206 107.196 96.113 106.746 96.99C106.067 98.321 105.425 99.578 104.887 100.856C102.557 106.356 100.148 112.047 99.005 117.956C98.7359 119.227 98.5899 120.52 98.569 121.819C98.5633 122.607 98.6458 123.393 98.815 124.162C98.9886 124.941 99.2664 125.693 99.641 126.398C99.8801 126.863 100.083 127.346 100.247 127.843C100.292 127.973 100.335 128.099 100.376 128.22C100.476 128.507 100.565 128.777 100.656 129.008C100.988 129.857 101.285 130.708 101.571 131.528C101.762 132.075 101.942 132.591 102.131 133.104C102.557 134.343 103.103 135.539 103.759 136.673C104.434 137.74 105.216 138.734 106.093 139.642C106.441 140.019 106.793 140.392 107.173 140.786C107.773 141.416 108.395 142.067 109.003 142.758L111.767 145.904L107.583 145.698C107.364 145.687 107.164 145.668 106.971 145.649H106.965V145.652ZM174.69 157.733C174.268 157.735 173.852 157.833 173.473 158.019C173.125 158.184 172.818 158.423 172.573 158.719C172.452 158.868 172.358 159.037 172.296 159.219C172.164 159.619 172.097 160.036 172.096 160.457C172.094 161.066 172.252 161.665 172.554 162.193C172.886 162.756 173.355 163.226 173.918 163.558C173.992 163.603 174.077 163.653 174.17 163.707C174.307 163.787 174.461 163.877 174.628 163.981C174.958 164.18 175.268 164.412 175.551 164.673C175.793 164.9 176.002 165.16 176.171 165.446C176.475 165.975 176.855 166.457 177.3 166.875C177.698 167.243 178.149 167.549 178.638 167.783C179.78 168.287 181.013 168.555 182.262 168.569C183.075 168.625 183.883 168.742 184.679 168.921C184.937 168.973 185.179 169.021 185.416 169.064C186.504 169.264 187.602 169.464 188.664 169.664H188.672L189.777 169.872H189.818C189.863 169.872 189.908 169.872 189.952 169.872C191.11 169.846 192.254 169.602 193.322 169.153C194.114 168.847 194.916 168.465 195.766 168.06C196.138 167.883 196.521 167.7 196.91 167.521C197.074 167.443 197.224 167.338 197.353 167.211C197.51 167.057 197.645 166.881 197.753 166.689C197.993 166.264 198.122 165.784 198.126 165.296C198.132 164.985 198.067 164.678 197.935 164.396C197.619 163.775 197.235 163.192 196.788 162.657C196.301 162.071 195.775 161.518 195.215 161.001C194.122 159.974 192.817 159.199 191.392 158.731C189.964 158.279 188.472 158.058 186.974 158.078H186.963C186.103 158.081 185.244 158.134 184.39 158.236C183.01 158.421 181.62 158.524 180.227 158.546H180.218C178.621 158.562 177.032 158.325 175.509 157.846C175.248 157.762 174.975 157.719 174.7 157.719L174.69 157.733ZM164.791 104.998L164.847 105.029C165.294 105.282 165.716 105.521 166.118 105.709L167.218 106.228L167.129 107.441C167.119 107.575 167.115 107.699 167.115 107.81C167.113 107.908 167.118 108.006 167.13 108.103C167.213 108.113 167.296 108.117 167.38 108.117H167.418C167.642 108.114 167.865 108.098 168.087 108.069C168.658 108.008 169.215 107.853 169.736 107.611C170.173 107.402 170.557 107.098 170.86 106.72C171.079 106.443 171.258 106.137 171.392 105.81C171.306 105.798 171.2 105.784 171.077 105.77L170.864 105.747H170.857C170.64 105.723 170.371 105.694 170.043 105.653L164.791 104.998Z" fill="#647787"/>
<path d="M198.545 104.229C199.462 104.953 200.495 105.515 201.601 105.891C204.133 106.615 206.464 107.91 208.416 109.678C209.931 111.154 211.47 112.61 213.06 114.006C214.419 115.199 216.071 115.251 216.505 113.962C217.141 112.073 217.926 109.853 217.492 108.053C215.993 101.841 209.328 97.977 202.692 97.334C201.536 97.6484 200.417 98.0884 199.356 98.646C197.271 99.946 196.882 102.91 198.545 104.229Z" fill="#647787"/>
<path d="M117.486 57.185C117.539 57.4716 117.65 57.7444 117.812 57.9866C117.975 58.2289 118.184 58.4355 118.429 58.594C119.74 59.215 121.144 59.638 123.013 60.321C124.312 59.5811 125.565 58.7646 126.767 57.876C127.874 56.9498 128.864 55.892 129.715 54.726C130.191 54.089 130.741 52.975 130.491 52.426C129.578 50.2234 128.403 48.139 126.991 46.218C124.87 43.551 121.31 42.621 119.151 43.718C116.864 44.88 115.975 47.69 116.632 51.375C116.976 53.301 117.132 55.261 117.486 57.185Z" fill="#647787"/>
<path d="M174.837 135.43L174.948 135.521L174.837 135.43Z" fill="#647787"/>
<path d="M168.73 148.208H168.712C168.443 148.207 168.174 148.175 167.912 148.114C167.687 148.062 167.466 147.997 167.249 147.92C166.56 147.684 165.915 147.337 165.338 146.892C164.824 146.49 164.371 146.017 163.991 145.486C163.394 144.605 162.905 143.655 162.536 142.657L162.489 142.541C162.249 141.947 162.022 141.386 161.777 140.913C161.534 140.429 161.32 139.93 161.135 139.421C161.073 139.253 161.012 139.088 160.953 138.925V138.919C160.841 138.613 160.736 138.319 160.621 138.033L160.273 137.153L160.811 136.375C160.825 136.358 160.887 136.253 160.966 136.105L161.008 136.029C161.107 135.844 161.219 135.667 161.342 135.497C161.511 135.263 161.72 135.06 161.959 134.897C162.167 134.758 162.398 134.656 162.642 134.597C162.929 134.53 163.223 134.496 163.518 134.497C163.787 134.496 164.055 134.522 164.318 134.574C164.619 134.634 164.909 134.735 165.182 134.874C165.415 134.992 165.628 135.144 165.815 135.326C166.129 135.643 166.5 135.898 166.908 136.077C167.272 136.231 167.663 136.308 168.058 136.305C168.271 136.304 168.483 136.285 168.693 136.248C169.162 136.151 169.619 136.007 170.059 135.817L170.402 135.681C170.843 135.497 171.343 135.297 171.902 135.13C172.317 135.006 172.748 134.942 173.182 134.94C173.44 134.938 173.697 134.967 173.948 135.026C174.308 135.109 174.643 135.273 174.93 135.505C175.182 135.714 175.389 135.973 175.536 136.265C175.642 136.472 175.724 136.691 175.78 136.916C175.864 137.259 175.908 137.611 175.911 137.964C175.911 138.034 175.911 138.104 175.92 138.171C175.929 138.238 175.928 138.3 175.928 138.363C175.882 139.358 175.703 140.341 175.395 141.288H175.363C175.318 141.411 175.27 141.558 175.218 141.714C175.118 142.014 175.01 142.348 174.872 142.675C174.648 143.223 174.345 143.736 173.973 144.197C173.49 144.776 172.969 145.322 172.414 145.832L172.007 146.214C171.643 146.555 171.299 146.876 170.991 147.193C170.7 147.5 170.355 147.751 169.973 147.933C169.584 148.114 169.159 148.208 168.73 148.208ZM164.773 138.952C164.817 139.052 164.873 139.175 164.934 139.29C165.252 139.91 165.492 140.503 165.725 141.077C165.774 141.199 165.825 141.315 165.869 141.43C166.091 142.014 166.36 142.58 166.673 143.121C166.842 143.403 167.046 143.662 167.281 143.891C167.605 144.2 167.994 144.434 168.42 144.574L168.552 144.618C168.904 144.262 169.252 143.936 169.589 143.618C169.723 143.492 169.853 143.371 169.98 143.251C170.423 142.845 170.839 142.411 171.227 141.951C171.383 141.744 171.51 141.517 171.604 141.276C171.728 140.984 171.841 140.639 171.973 140.209C172.112 139.731 172.21 139.241 172.264 138.746C172.037 138.832 171.797 138.928 171.542 139.03L171.357 139.104C170.694 139.382 170.004 139.591 169.298 139.729C168.888 139.801 168.472 139.838 168.055 139.839H168.047C167.18 139.844 166.322 139.673 165.523 139.337C165.265 139.225 165.014 139.096 164.773 138.952Z" fill="#647787"/>
<path d="M154.363 50.8901C156.184 52.3461 157.951 53.8701 159.73 55.3771C160.73 56.2261 161.679 57.8871 163.035 57.0961C163.953 56.5611 164.193 54.8621 164.728 53.6801C164.76 53.567 164.775 53.4497 164.773 53.3321C164.824 49.4221 160.791 45.2221 156.938 45.2521C156.314 45.193 155.688 45.343 155.159 45.6787C154.629 46.0143 154.227 46.5165 154.014 47.1061C153.563 48.3981 152.892 49.7151 154.363 50.8901Z" fill="#647787"/>
<path d="M216.731 117.242C216.669 117.466 216.651 117.701 216.68 117.932C216.708 118.163 216.782 118.386 216.897 118.588C217.011 118.791 217.165 118.969 217.348 119.112C217.532 119.255 217.742 119.361 217.966 119.423C219.651 119.885 221.225 120.686 222.591 121.775C224.641 123.458 226.23 125.635 227.21 128.1C228.293 130.773 228.841 133.631 228.824 136.515C228.825 138.495 228.579 140.468 228.092 142.387C227.976 142.843 228.046 143.326 228.286 143.73C228.527 144.134 228.918 144.427 229.374 144.542C229.829 144.658 230.312 144.588 230.717 144.348C231.121 144.108 231.413 143.717 231.529 143.261C232.088 141.056 232.371 138.79 232.37 136.515C232.422 132.065 231.263 127.684 229.017 123.842C227.908 121.992 226.48 120.353 224.799 119.001C223.059 117.615 221.057 116.597 218.912 116.007C218.459 115.882 217.975 115.941 217.566 116.173C217.157 116.405 216.857 116.789 216.731 117.242Z" fill="#647787"/>
<path d="M144.887 69.12C144.361 68.406 143.897 67.111 143.139 66.906C141.934 66.6436 140.675 66.7936 139.565 67.332C135.663 69.264 135.681 73.414 136.723 76.794C136.875 77.1218 137.102 77.4098 137.384 77.6354C137.667 77.8609 137.998 78.0179 138.351 78.094C139.321 78.1951 140.293 77.932 141.079 77.3559C141.866 76.7799 142.41 75.9319 142.606 74.977C143.039 73.535 143.706 72.164 144.266 70.76C144.437 70.33 144.594 69.895 144.887 69.12Z" fill="#647787"/>
<path d="M92.395 130.061C91.848 134.315 90.969 138.554 90.846 142.814C90.8207 147.008 92.0852 151.109 94.468 154.561C94.018 146.561 93.552 138.31 93.087 130.061H92.395Z" fill="#647787"/>
<path d="M193.55 114.45C194.124 113.183 194.617 111.88 195.026 110.55C195.02 109.755 194.818 108.973 194.439 108.275C194.059 107.576 193.514 106.981 192.85 106.543C192.186 106.105 191.425 105.838 190.633 105.764C189.841 105.69 189.043 105.812 188.31 106.119C188.048 106.183 187.805 106.311 187.606 106.493C187.406 106.675 187.256 106.905 187.168 107.16C187.081 107.416 187.059 107.689 187.106 107.955C187.152 108.221 187.265 108.471 187.433 108.682C188.529 110.664 189.802 112.55 191.046 114.45C191.792 115.59 192.932 115.638 193.546 114.45" fill="#647787"/>
<path d="M154.739 67.0439C154.465 67.9089 154.169 68.7689 153.935 69.6439C153.922 69.8809 153.993 70.1149 154.135 70.3049C155.424 72.4269 156.658 74.5869 158.079 76.6179C158.324 76.8722 158.63 77.0605 158.967 77.1654C159.304 77.2703 159.663 77.2884 160.009 77.2179C160.628 76.9459 160.973 76.0499 161.382 75.4959C161.29 75.013 161.141 74.5429 160.936 74.0959C159.577 72.0909 158.24 70.0569 156.753 68.1439C156.324 67.5879 155.424 67.3999 154.739 67.0439Z" fill="#647787"/>
<path d="M148.517 80.6741C147.408 80.7891 146.399 81.2761 146.494 82.6151C146.621 84.4031 150.899 86.7301 152.408 85.7151C153.711 84.7807 154.843 83.6277 155.753 82.3071C156.502 81.2691 155.807 80.3551 154.503 80.3611C153.623 80.3611 152.877 80.5041 151.813 80.5831V80.6491C150.713 80.6004 149.612 80.6087 148.513 80.6741" fill="#647787"/>
<path d="M178.288 125.816C179.705 125.87 180.673 125.209 180.371 124.124C179.693 121.684 178.729 119.32 176.223 118.129C175.962 117.987 175.672 117.908 175.375 117.9C175.079 117.891 174.784 117.953 174.516 118.079C174.247 118.206 174.013 118.394 173.831 118.629C173.649 118.863 173.525 119.138 173.469 119.429C173.291 120.173 173.279 120.947 173.436 121.695C173.592 122.444 173.912 123.149 174.372 123.759C174.833 124.37 175.423 124.871 176.1 125.226C176.777 125.582 177.524 125.783 178.288 125.816Z" fill="#647787"/>
<path d="M163.259 59.7441C163.052 59.8512 162.869 59.998 162.719 60.1761C162.569 60.3541 162.456 60.56 162.386 60.7818C162.315 61.0036 162.289 61.2372 162.309 61.469C162.329 61.7009 162.395 61.9265 162.502 62.1331C164.095 65.1951 165.846 68.0441 167.014 70.9581C167.551 72.2507 167.834 73.6345 167.848 75.0341C167.839 76.7657 167.371 78.464 166.492 79.9561C166.265 80.3643 166.209 80.8453 166.335 81.2949C166.461 81.7444 166.759 82.1261 167.165 82.3572C167.57 82.5883 168.051 82.65 168.502 82.529C168.952 82.4081 169.337 82.1142 169.573 81.7111C170.756 79.6842 171.385 77.3812 171.395 75.0341C171.38 73.1816 171.009 71.3493 170.302 69.6371C168.977 66.3441 167.154 63.4081 165.65 60.5001C165.433 60.0829 165.059 59.769 164.611 59.6272C164.163 59.4855 163.676 59.5275 163.259 59.7441Z" fill="#647787"/>
<path d="M161.831 115.118C162.096 114.73 162.196 114.252 162.109 113.79C162.022 113.327 161.755 112.919 161.367 112.654C160.978 112.388 160.5 112.288 160.038 112.375C159.576 112.463 159.167 112.73 158.902 113.118C157.673 114.932 156.75 116.934 156.167 119.046C155.635 120.95 155.363 122.918 155.36 124.895C155.347 126.407 155.533 127.913 155.914 129.376C156.082 130.007 156.31 130.62 156.594 131.208C156.858 131.761 157.204 132.272 157.619 132.723C157.945 133.054 158.387 133.244 158.851 133.252C159.316 133.26 159.764 133.085 160.101 132.766C160.438 132.447 160.637 132.008 160.654 131.544C160.671 131.08 160.506 130.628 160.193 130.285C160.023 130.091 159.882 129.874 159.774 129.64C159.485 129.014 159.279 128.353 159.16 127.674C158.989 126.758 158.905 125.827 158.91 124.895C158.914 123.242 159.141 121.597 159.586 120.005C160.063 118.265 160.822 116.614 161.831 115.118Z" fill="#647787"/>
<path d="M147.665 90.1521C152.288 90.7891 155.275 89.7411 157.626 85.3841C155.301 87.0991 152.502 88.0512 149.614 88.1091C146.687 88.2452 143.823 87.2375 141.626 85.2991C142.06 86.6024 142.861 87.7531 143.932 88.6136C145.003 89.4742 146.299 90.0083 147.665 90.1521Z" fill="#647787"/>
<path d="M116.317 77.2889C119.54 73.1629 120.731 68.1849 122.156 63.3469C120.173 64.5689 115.819 73.3869 114.725 79.0369C115.332 78.5291 115.868 77.941 116.317 77.2889Z" fill="#647787"/>
<path d="M164.572 126.083C164.22 126.683 163.889 127.693 164.172 128.165C164.771 128.932 165.483 129.604 166.284 130.157C167.07 130.012 167.842 129.798 168.59 129.516C169.175 129.153 169.726 128.738 170.235 128.275C169.674 127.593 169.037 126.976 168.337 126.437C167.652 126.092 166.903 125.896 166.137 125.86C165.606 125.799 164.743 125.793 164.572 126.083Z" fill="#647787"/>
<path d="M135.612 51.7049C137.733 50.1176 140.303 49.2459 142.952 49.2159C143.964 49.2063 144.97 49.3603 145.933 49.6719C146.735 49.9274 147.476 50.3462 148.108 50.9019C148.279 51.0655 148.481 51.1934 148.701 51.2778C148.922 51.3623 149.158 51.4018 149.394 51.3938C149.631 51.3859 149.863 51.3307 150.078 51.2316C150.293 51.1325 150.485 50.9914 150.645 50.8167C150.804 50.642 150.927 50.4371 151.006 50.2142C151.085 49.9913 151.119 49.7548 151.105 49.5187C151.091 49.2826 151.03 49.0516 150.926 48.8394C150.821 48.6271 150.676 48.4379 150.497 48.2829C149.501 47.3965 148.332 46.7266 147.064 46.3159C145.737 45.8806 144.349 45.6631 142.953 45.6719C139.543 45.7007 136.232 46.8168 133.5 48.8579C133.306 48.994 133.142 49.1675 133.017 49.3681C132.891 49.5687 132.807 49.7924 132.769 50.026C132.732 50.2596 132.741 50.4984 132.797 50.7283C132.853 50.9582 132.955 51.1746 133.096 51.3646C133.237 51.5547 133.414 51.7146 133.618 51.8349C133.822 51.9553 134.048 52.0336 134.282 52.0653C134.517 52.097 134.755 52.0815 134.984 52.0196C135.212 51.9577 135.426 51.8507 135.612 51.7049Z" fill="#647787"/>
<path d="M168.625 117.928C168.736 117.486 168.672 116.655 168.446 116.554C167.93 116.369 167.362 116.39 166.862 116.615C165.517 117.243 164.781 119.169 165.134 121.221C166.899 120.564 168.182 119.668 168.625 117.928Z" fill="#647787"/>
<path d="M122.683 74.777L124.027 65.938C121.735 69.945 121.386 73.138 122.683 74.777Z" fill="#647787"/>
<path d="M171.127 132.692C171.143 132.52 171.159 132.348 171.175 132.175L164.927 131.741C167.127 133.463 169.152 132.79 171.127 132.692Z" fill="#647787"/>
<path d="M189.092 95.8011C188.694 95.7966 188.308 95.6632 187.992 95.4211C187.515 95.0647 187.12 94.6093 186.836 94.0861C186.552 93.5629 186.384 92.9843 186.344 92.3901C186.341 92.3316 186.344 92.2728 186.354 92.2151C186.408 91.8321 186.459 91.4421 186.508 91.0661C186.62 90.2071 186.736 89.3191 186.902 88.4551L186.939 88.2651C187.399 85.8801 187.874 83.4141 188.171 80.9601C188.19 80.8857 188.183 80.8071 188.151 80.7371C188.12 80.6671 188.066 80.6097 187.998 80.5741C185.873 79.1447 184.046 77.315 182.621 75.1871C182.24 74.6206 181.976 73.984 181.845 73.3143C181.713 72.6447 181.716 71.9555 181.854 71.2871C182.073 70.2673 182.169 69.2248 182.139 68.1821C182.139 68.1631 182.142 68.1443 182.147 68.1261C182.154 68.1131 182.154 68.0991 182.154 68.0821L182.254 68.1581C182.299 68.1941 182.338 68.2241 182.377 68.2581C183.248 68.9988 184.216 69.6178 185.254 70.0981C185.834 70.3581 186.357 70.729 186.795 71.1901C187.785 72.2761 188.459 73.6129 188.743 75.0551C188.754 75.1011 188.765 75.1481 188.776 75.1921L188.804 75.3081L189.733 68.4001L190.144 65.3341L190.287 65.4761C190.361 65.5501 190.42 65.6091 190.479 65.6651C191.01 66.2093 191.734 66.5232 192.494 66.5391C192.88 66.5346 193.261 66.46 193.62 66.3191C193.903 66.2036 194.177 66.0675 194.44 65.9121C194.557 65.8471 194.678 65.7791 194.798 65.7121C194.84 65.6901 194.882 65.6661 194.934 65.6351L195.018 65.5851C194.618 68.4151 194.143 71.2731 193.687 74.0361C192.996 78.2231 192.287 82.5521 191.797 86.8361C191.971 86.5611 192.123 86.2761 192.27 86.0001L192.302 85.9401C192.569 85.4308 192.839 84.9221 193.113 84.4141C193.688 83.3331 194.281 82.2191 194.853 81.1141C195.578 79.7141 196.432 78.0601 197.267 76.3581C198.116 74.6271 198.932 72.8981 199.835 70.9801C200.259 70.0801 200.682 69.1581 201.091 68.2671C201.403 67.5891 201.724 66.8911 202.043 66.2061C202.862 64.4471 203.7 62.6671 204.51 60.9461C204.667 60.6141 204.827 60.2851 204.997 59.9371V59.9281L205.231 59.4651C205.506 60.3297 206.032 61.0926 206.743 61.6561C207.208 61.9838 207.765 62.155 208.334 62.1451C208.664 62.1419 208.992 62.101 209.313 62.0231L209.37 62.0751L207.102 66.6381L204.721 71.4381C204.754 71.4125 204.784 71.3848 204.813 71.3551C205.513 70.6707 206.319 70.1037 207.2 69.6761C207.983 69.2772 208.847 69.064 209.726 69.0531C210.003 69.0532 210.28 69.0756 210.554 69.1201L210.592 69.1261C210.955 69.1947 211.323 69.2378 211.692 69.2551C211.927 69.2551 212.18 69.2621 212.463 69.2621C212.801 69.2621 213.145 69.2621 213.478 69.2561H213.485L214.25 69.2501C213.661 70.0826 213.163 70.9756 212.764 71.9141V71.9201L212.605 72.2581C212.107 73.3697 211.208 74.2528 210.088 74.7311C207.665 75.7541 205.06 76.2753 202.43 76.2631C202.355 76.2519 202.279 76.2656 202.213 76.3021C202.147 76.3386 202.094 76.3959 202.064 76.4651C201.774 77.0831 201.478 77.7091 201.192 78.3141C200.727 79.2971 200.246 80.3141 199.785 81.3141C199.307 82.3551 198.827 83.4141 198.362 84.4431C197.808 85.6681 197.236 86.9331 196.662 88.1741C196.471 88.627 196.208 89.0458 195.882 89.4141C195.242 90.0842 194.398 90.5228 193.482 90.6611C193.383 90.6768 193.282 90.6845 193.182 90.6841C192.96 90.6859 192.739 90.6521 192.528 90.5841C192.277 90.4892 192.037 90.3685 191.811 90.2241C191.711 90.1651 191.611 90.1051 191.511 90.0501C191.511 90.0601 191.497 90.1231 191.49 90.1891C191.463 90.4638 191.435 90.7384 191.408 91.0131V91.0201C191.36 91.5061 191.308 92.0091 191.259 92.5031C191.207 93.2281 191.047 93.9412 190.782 94.6181C190.649 94.9606 190.418 95.256 190.117 95.4667C189.816 95.6773 189.459 95.7937 189.092 95.8011ZM185.294 73.6431L185.3 73.7261C185.3 73.8071 185.31 73.8871 185.313 73.9681C185.33 74.5539 185.471 75.1294 185.725 75.6572C185.98 76.185 186.343 76.6532 186.791 77.0311C187.153 77.3471 187.545 77.6411 187.923 77.9311C188.092 78.0581 188.266 78.1901 188.436 78.3211L188.524 78.2641L188.562 77.9641L188.637 77.3721C187.187 77.0181 186.483 75.8971 185.837 74.6811C185.769 74.5531 185.703 74.4211 185.637 74.2921C185.53 74.0751 185.422 73.8561 185.294 73.6431ZM203.705 73.2311L203.258 74.0901L203.441 74.0981C203.521 74.0981 203.596 74.1061 203.668 74.1061C203.702 74.1061 203.736 74.1061 203.768 74.1061C203.929 74.0961 204.09 74.0871 204.251 74.0781C204.698 74.0541 205.161 74.0301 205.61 73.9651C206.183 73.8781 206.731 73.6732 207.221 73.3634C207.71 73.0535 208.13 72.6455 208.454 72.1651C208.473 72.1353 208.49 72.1038 208.504 72.0711C208.515 72.0471 208.528 72.0211 208.544 71.9881C208.438 72.0501 208.339 72.1121 208.244 72.1711C208.038 72.2981 207.844 72.4181 207.644 72.5171L207.488 72.5931C207.042 72.8219 206.585 73.0269 206.117 73.2071C205.706 73.3693 205.269 73.4567 204.827 73.4651C204.441 73.4637 204.059 73.3841 203.705 73.2311Z" fill="#009543"/>
<path d="M208.524 61.492C208.448 61.492 208.372 61.4857 208.297 61.473C207.98 61.4375 207.675 61.3279 207.408 61.1532C207.141 60.9785 206.919 60.7434 206.759 60.467C206.295 59.6275 206.106 58.6635 206.219 57.711C206.241 57.4783 206.312 57.253 206.428 57.05C206.917 56.235 207.419 55.41 207.905 54.611C208.625 53.425 209.369 52.2 210.09 50.989C210.479 50.33 210.841 49.641 211.19 48.975C211.37 48.631 211.557 48.275 211.745 47.929C211.768 47.9005 211.785 47.8672 211.793 47.8316C211.802 47.7959 211.803 47.7587 211.796 47.7228C211.788 47.6868 211.773 47.6529 211.751 47.6235C211.729 47.5942 211.701 47.5701 211.668 47.553C211.497 47.424 211.33 47.281 211.168 47.143C211.078 47.066 210.988 46.989 210.897 46.914C209.443 45.7871 208.337 44.2712 207.709 42.542C207.319 41.5381 207.246 40.4385 207.501 39.392C207.745 38.5247 207.907 37.636 207.982 36.738C208.002 36.471 208.012 36.207 208.023 35.928C208.029 35.787 208.034 35.644 208.041 35.498L208.091 35.539C208.11 35.554 208.124 35.565 208.136 35.578C208.843 36.2384 209.635 36.8023 210.49 37.255C211.61 37.8288 212.485 38.7875 212.954 39.955C213.442 41.157 213.717 42.4347 213.766 43.731C213.768 43.7708 213.774 43.8103 213.784 43.849C213.784 43.87 213.793 43.89 213.796 43.91L214.145 43.31C215.225 41.459 216.345 39.545 217.309 37.603C218.058 36.103 218.743 34.531 219.409 33.013C219.69 32.355 219.99 31.672 220.29 31C220.54 31.3833 220.877 31.7025 221.273 31.9321C221.669 32.1617 222.113 32.2953 222.57 32.322C222.821 32.32 223.071 32.2836 223.312 32.214V32.268L222.64 33.612L222.629 33.635C221.988 34.918 221.329 36.244 220.662 37.549C220.238 38.385 219.8 39.231 219.377 40.049L219.371 40.06C218.949 40.878 218.512 41.723 218.088 42.56C217.631 43.46 217.173 44.378 216.729 45.266V45.273L216.724 45.283C216.342 46.049 215.946 46.841 215.553 47.618C214.559 49.5952 213.689 51.6325 212.948 53.718L212.827 54.059C212.205 55.9076 211.485 57.7219 210.67 59.494C210.416 60.0772 210.047 60.6031 209.585 61.04C209.301 61.3185 208.922 61.4798 208.524 61.492ZM210.368 40.778C210.202 41.5267 210.256 42.3074 210.524 43.026C211.058 44.1893 211.868 45.2042 212.885 45.982L212.929 45.887L213.26 45.169C213.248 45.157 213.239 45.146 213.231 45.136C213.223 45.126 213.206 45.107 213.19 45.1C212.792 44.9682 212.427 44.752 212.12 44.4662C211.813 44.1804 211.572 43.8317 211.412 43.444C211.153 42.869 210.927 42.267 210.712 41.686C210.612 41.433 210.518 41.171 210.417 40.912C210.4 40.866 210.384 40.821 210.368 40.775V40.778Z" fill="#009543"/>
<path d="M197.776 38.2189C197.235 38.4627 196.63 38.5247 196.051 38.3956C195.472 38.2665 194.95 37.9533 194.564 37.5029C194.489 38.0449 194.408 38.5649 194.347 39.0869C193.94 42.5549 193.56 46.0259 193.124 49.4869C192.877 51.4456 192.577 53.3976 192.224 55.3429C192.024 56.4549 191.662 57.5429 191.364 58.6339C190.933 60.0713 190.629 61.5436 190.455 63.0339C190.417 63.432 190.431 63.8334 190.496 64.2279C190.535 64.4986 190.635 64.7567 190.789 64.9825C190.943 65.2083 191.147 65.3957 191.385 65.5303C191.623 65.6648 191.888 65.743 192.161 65.7587C192.434 65.7744 192.707 65.7273 192.959 65.6209C193.503 65.404 193.996 65.0757 194.406 64.657C194.815 64.2384 195.133 63.7386 195.338 63.1899C195.376 63.0711 195.392 62.9465 195.387 62.8219C195.427 60.2639 195.432 57.7049 195.705 55.1559C195.891 53.4249 196.105 51.6949 196.247 49.9559C196.365 48.5289 196.373 47.0919 196.482 45.6639C196.666 43.9053 196.967 42.1608 197.382 40.4419C197.529 39.7489 197.642 39.0489 197.769 38.3519C197.774 38.3078 197.776 38.2634 197.776 38.2189Z" fill="#009543"/>
<path d="M210.744 47.9571L210.076 47.2781C209.988 47.3461 209.909 47.4051 209.833 47.4671C209.078 48.1146 208.234 48.6504 207.327 49.0581C206.544 49.4115 205.673 49.5206 204.827 49.3711C204.737 49.3584 204.651 49.3218 204.58 49.2651C204.661 49.2481 204.742 49.2311 204.823 49.2151C205.872 49.05 206.889 48.7217 207.837 48.2421C208.466 47.9231 209.01 47.4602 209.426 46.8911C209.471 46.8271 209.512 46.6911 209.481 46.6581C209.446 46.6171 209.403 46.5836 209.355 46.5595C209.307 46.5355 209.255 46.5214 209.201 46.5181C207.219 46.7601 205.267 47.2 203.373 47.8311C202.171 48.2835 201.19 49.1808 200.632 50.3371C200.232 51.0881 199.903 51.8741 199.519 52.6371C199.344 52.9466 199.154 53.2469 198.949 53.5371C199.421 53.5061 199.876 53.4421 200.329 53.4551C201.144 53.4781 201.96 53.5181 202.77 53.6031C203.907 53.7216 205.053 53.4973 206.061 52.9591C207.615 52.1132 208.917 50.8711 209.836 49.3591L210.743 47.9671" fill="#009543"/>
<path d="M206.576 82.5259C204.52 82.9929 203 82.0049 201.519 80.9169C201.244 81.2349 201.241 81.2769 201.48 81.5729C202.647 83.0876 203.949 84.4933 205.37 85.7729C205.955 86.2815 206.649 86.6485 207.398 86.8455C208.148 87.0425 208.933 87.0642 209.692 86.9089C210.748 86.702 211.824 86.6218 212.899 86.6699C212.828 86.5789 212.781 86.5169 212.732 86.4559C211.971 85.5225 211.333 84.4959 210.832 83.4009C210.303 82.3117 209.429 81.4274 208.346 80.8849C206.645 80.0077 204.737 79.6075 202.827 79.7269C202.72 79.7353 202.613 79.7353 202.506 79.7269C202.445 79.7101 202.381 79.7056 202.319 79.7135C202.256 79.7214 202.195 79.7416 202.14 79.773C202.085 79.8044 202.037 79.8464 201.998 79.8965C201.96 79.9466 201.931 80.0038 201.915 80.0649C201.868 80.1353 201.85 80.2203 201.862 80.3038C201.874 80.3872 201.917 80.4631 201.982 80.5169C202.694 81.2286 203.58 81.7422 204.551 82.0069C205.196 82.2009 205.856 82.3439 206.576 82.5259Z" fill="#009543"/>
<path d="M173.475 83.3161C174.344 83.8175 175.136 84.4397 175.83 85.1641C176.601 85.9752 177.605 86.5258 178.703 86.7391C179.211 86.8284 179.729 86.8422 180.241 86.7801C182.014 86.5513 183.762 86.1569 185.461 85.6021L185.748 85.5131C186.162 85.3841 186.164 85.3811 186.135 84.9341C184.292 85.0101 182.482 84.9691 181.107 83.4341C181.177 83.4611 181.248 83.4871 181.318 83.5161C182.303 83.9978 183.365 84.3024 184.456 84.4161C184.979 84.4177 185.502 84.3879 186.022 84.3271C186.056 84.3288 186.089 84.3232 186.12 84.3106C186.151 84.2979 186.179 84.2786 186.202 84.254C186.225 84.2294 186.242 84.2001 186.252 84.1681C186.262 84.1362 186.265 84.1024 186.261 84.0691C186.261 83.9691 186.297 83.8691 186.291 83.7691C186.292 83.693 186.264 83.6194 186.213 83.5631C185.173 82.7782 184.038 82.1271 182.835 81.6251C181.51 81.0953 180.067 80.9319 178.657 81.1521C178.023 81.2648 177.418 81.5006 176.875 81.8461C175.878 82.4586 174.801 82.9298 173.675 83.2461C173.621 83.2621 173.575 83.2801 173.475 83.3161Z" fill="#009543"/>
</g>
<defs>
<clipPath id="clip0_2342_512">
<rect width="151.837" height="150.984" fill="white" transform="translate(84 31)"/>
</clipPath>
</defs>
</svg>
