<svg width="320" height="213" viewBox="0 0 320 213" fill="none" xmlns="http://www.w3.org/2000/svg">
<rect width="320" height="213" rx="15" fill="#E5E5E5" fill-opacity="0.3"/>
<g clip-path="url(#clip0_2342_377)">
<path d="M190.12 71.795H176.78C176.924 73.1235 176.998 74.4588 177 75.795C176.998 85.8725 172.993 95.5366 165.867 102.662C158.742 109.788 149.077 113.793 139 113.795C133.209 113.8 127.493 112.477 122.293 109.929C117.092 107.381 112.545 103.675 109 99.095V136.915C108.999 137.556 109.125 138.191 109.37 138.783C109.615 139.376 109.974 139.914 110.428 140.367C110.881 140.821 111.419 141.18 112.012 141.425C112.604 141.67 113.239 141.796 113.88 141.795H190.12C190.761 141.796 191.396 141.67 191.988 141.425C192.581 141.18 193.119 140.821 193.572 140.367C194.026 139.914 194.385 139.376 194.63 138.783C194.875 138.191 195.001 137.556 195 136.915V76.675C195.001 76.034 194.875 75.399 194.63 74.8066C194.385 74.2142 194.026 73.6759 193.572 73.2226C193.119 72.7693 192.581 72.4099 191.988 72.1649C191.396 71.9199 190.761 71.7943 190.12 71.795Z" fill="#E1E8ED"/>
<path d="M215 171.545C214.555 171.545 214.12 171.677 213.75 171.924C213.38 172.171 213.092 172.523 212.921 172.934C212.751 173.345 212.706 173.798 212.793 174.234C212.88 174.67 213.094 175.071 213.409 175.386C213.724 175.701 214.125 175.915 214.561 176.002C214.998 176.089 215.45 176.044 215.861 175.874C216.272 175.703 216.624 175.415 216.871 175.045C217.118 174.675 217.25 174.24 217.25 173.795C217.249 173.199 217.012 172.627 216.59 172.205C216.168 171.783 215.596 171.546 215 171.545" fill="#647787"/>
<path d="M203 96.045C203.445 96.045 203.88 95.9131 204.25 95.6659C204.62 95.4186 204.908 95.0672 205.079 94.6561C205.249 94.2449 205.294 93.7925 205.207 93.3561C205.12 92.9196 204.906 92.5187 204.591 92.2041C204.276 91.8894 203.875 91.6751 203.439 91.5883C203.002 91.5015 202.55 91.546 202.139 91.7163C201.728 91.8866 201.376 92.175 201.129 92.545C200.882 92.915 200.75 93.35 200.75 93.795C200.751 94.3915 200.988 94.9634 201.41 95.3852C201.832 95.8069 202.404 96.0443 203 96.045Z" fill="#647787"/>
<path d="M209 171.795H107C106.47 171.795 105.961 172.006 105.586 172.381C105.211 172.756 105 173.265 105 173.795C105 174.325 105.211 174.834 105.586 175.209C105.961 175.584 106.47 175.795 107 175.795H209C209.53 175.795 210.039 175.584 210.414 175.209C210.789 174.834 211 174.325 211 173.795C211 173.265 210.789 172.756 210.414 172.381C210.039 172.006 209.53 171.795 209 171.795" fill="#647787"/>
<path d="M89 163.795C88.4696 163.795 87.9609 164.006 87.5858 164.381C87.2107 164.756 87 165.265 87 165.795C87 166.325 87.2107 166.834 87.5858 167.209C87.9609 167.584 88.4696 167.795 89 167.795H237C237.53 167.795 238.039 167.584 238.414 167.209C238.789 166.834 239 166.325 239 165.795C239 165.265 238.789 164.756 238.414 164.381C238.039 164.006 237.53 163.795 237 163.795H89Z" fill="#647787"/>
<path d="M209 163.795C205.818 163.792 202.768 162.526 200.519 160.276C198.269 158.027 197.003 154.977 197 151.795H155C155 153.371 154.69 154.931 154.087 156.387C153.483 157.843 152.6 159.166 151.485 160.28C150.371 161.395 149.048 162.279 147.592 162.882C146.136 163.485 144.576 163.795 143 163.795C141.424 163.795 139.864 163.485 138.408 162.882C136.952 162.279 135.629 161.395 134.515 160.28C133.4 159.166 132.516 157.843 131.913 156.387C131.31 154.931 131 153.371 131 151.795H123C122.47 151.795 121.961 151.584 121.586 151.209C121.211 150.834 121 150.325 121 149.795V143.955H113.88C112.014 143.953 110.224 143.21 108.904 141.891C107.585 140.571 106.842 138.781 106.84 136.915V99.575C101.739 92.6969 98.9898 84.3583 99 75.795H103C102.986 81.3966 104.302 86.9215 106.84 91.915C108.022 94.2923 109.471 96.5268 111.16 98.575C114.524 102.712 118.769 106.045 123.585 108.332C128.402 110.619 133.668 111.802 139 111.795C148.544 111.784 157.695 107.988 164.444 101.239C171.193 94.4899 174.989 85.3395 175 75.795C175 75.156 174.979 74.518 174.96 73.955C174.886 72.5058 174.719 71.0628 174.46 69.635H190.12C191.986 69.6371 193.776 70.3795 195.096 71.6993C196.415 73.0191 197.158 74.8085 197.16 76.675V99.795H219.8C221.133 99.7912 222.44 100.161 223.574 100.861C224.708 101.562 225.622 102.566 226.215 103.76L235.929 123.186C236.631 124.592 236.998 126.142 237 127.713V139.795C237.53 139.795 238.039 140.006 238.414 140.381C238.789 140.756 239 141.265 239 141.795V149.795C239 150.325 238.789 150.834 238.414 151.209C238.039 151.584 237.53 151.795 237 151.795H221C220.996 154.976 219.731 158.027 217.481 160.276C215.232 162.526 212.181 163.791 209 163.795ZM209 143.795C207.418 143.795 205.871 144.264 204.555 145.143C203.24 146.022 202.214 147.272 201.609 148.734C201.003 150.195 200.845 151.804 201.154 153.356C201.462 154.908 202.224 156.333 203.343 157.452C204.462 158.571 205.887 159.333 207.439 159.641C208.991 159.95 210.6 159.792 212.061 159.186C213.523 158.581 214.773 157.555 215.652 156.24C216.531 154.924 217 153.377 217 151.795C216.998 149.674 216.154 147.641 214.654 146.141C213.154 144.641 211.121 143.797 209 143.795ZM143 143.795C141.418 143.795 139.871 144.264 138.555 145.143C137.24 146.022 136.214 147.272 135.609 148.734C135.003 150.195 134.845 151.804 135.154 153.356C135.462 154.908 136.224 156.333 137.343 157.452C138.462 158.571 139.887 159.333 141.439 159.641C142.991 159.95 144.6 159.792 146.061 159.186C147.523 158.581 148.773 157.555 149.652 156.24C150.531 154.924 151 153.377 151 151.795C150.998 149.674 150.154 147.641 148.654 146.141C147.154 144.641 145.121 143.797 143 143.795ZM209 139.795C211.478 139.801 213.894 140.573 215.917 142.005C217.94 143.437 219.471 145.46 220.3 147.795H235V143.795H225C224.47 143.795 223.961 143.584 223.586 143.209C223.211 142.834 223 142.325 223 141.795C223 141.265 223.211 140.756 223.586 140.381C223.961 140.006 224.47 139.795 225 139.795H233V127.713C233 126.763 232.778 125.826 232.354 124.976L222.641 105.549C222.379 105.02 221.974 104.575 221.472 104.265C220.969 103.955 220.39 103.792 219.8 103.795H197.16V136.915C197.158 138.782 196.415 140.571 195.095 141.891C193.775 143.211 191.986 143.953 190.119 143.955H152.065C153.044 145.084 153.802 146.386 154.3 147.795H197.7C198.529 145.46 200.06 143.437 202.083 142.005C204.106 140.573 206.522 139.801 209 139.795ZM125 143.955V147.795H131.7C132.199 146.387 132.957 145.085 133.936 143.956L125 143.955ZM111.16 104.495V136.915C111.161 137.636 111.448 138.328 111.958 138.837C112.467 139.347 113.159 139.634 113.88 139.635H190.12C190.841 139.634 191.533 139.348 192.043 138.838C192.553 138.328 192.84 137.636 192.841 136.915V76.675C192.84 75.9537 192.553 75.2622 192.043 74.7522C191.533 74.2422 190.841 73.9555 190.12 73.955H178.94C178.981 74.581 179 75.183 179 75.795C178.988 86.3999 174.77 96.567 167.271 104.066C159.772 111.565 149.605 115.783 139 115.795C128.599 115.818 118.603 111.761 111.16 104.495Z" fill="#647787"/>
<path d="M222.41 125.795H214.824C213.068 125.795 211.365 125.195 209.996 124.095L202.162 117.769C201.274 117.056 200.558 116.153 200.067 115.125C199.576 114.098 199.322 112.974 199.324 111.835V111.256C199.326 109.808 199.901 108.42 200.925 107.396C201.949 106.373 203.337 105.797 204.785 105.795H216.736C217.667 105.792 218.58 106.05 219.372 106.54C220.164 107.029 220.803 107.731 221.217 108.565L226.511 119.156C226.861 119.855 227.026 120.632 226.992 121.414C226.957 122.195 226.723 122.954 226.312 123.619C225.901 124.284 225.327 124.834 224.644 125.214C223.961 125.595 223.192 125.795 222.41 125.795ZM204.785 109.795C204.398 109.796 204.026 109.95 203.752 110.224C203.479 110.497 203.325 110.869 203.324 111.256V111.835C203.323 112.376 203.444 112.911 203.678 113.399C203.911 113.888 204.252 114.317 204.674 114.656L212.51 120.977C213.166 121.505 213.982 121.793 214.824 121.795H222.408C222.508 121.797 222.608 121.772 222.695 121.723C222.783 121.674 222.856 121.603 222.908 121.517C222.963 121.433 222.994 121.336 222.998 121.235C223.002 121.135 222.98 121.036 222.933 120.947L217.638 110.354C217.556 110.186 217.427 110.044 217.268 109.945C217.109 109.846 216.925 109.794 216.738 109.794L204.785 109.795Z" fill="#647787"/>
<path d="M207 127.795H203C202.47 127.795 201.961 128.006 201.586 128.381C201.211 128.756 201 129.265 201 129.795C201 130.325 201.211 130.834 201.586 131.209C201.961 131.584 202.47 131.795 203 131.795H207C207.53 131.795 208.039 131.584 208.414 131.209C208.789 130.834 209 130.325 209 129.795C209 129.265 208.789 128.756 208.414 128.381C208.039 128.006 207.53 127.795 207 127.795" fill="#647787"/>
<path d="M209 149.545C208.555 149.545 208.12 149.677 207.75 149.924C207.38 150.171 207.092 150.523 206.921 150.934C206.751 151.345 206.706 151.798 206.793 152.234C206.88 152.67 207.094 153.071 207.409 153.386C207.724 153.701 208.125 153.915 208.561 154.002C208.998 154.089 209.45 154.044 209.861 153.874C210.272 153.703 210.624 153.415 210.871 153.045C211.118 152.675 211.25 152.24 211.25 151.795C211.249 151.199 211.012 150.627 210.59 150.205C210.168 149.783 209.596 149.546 209 149.545" fill="#647787"/>
<path d="M103 113.795C103 113.265 102.789 112.756 102.414 112.381C102.039 112.006 101.53 111.795 101 111.795H83C82.4696 111.795 81.9609 112.006 81.5858 112.381C81.2107 112.756 81 113.265 81 113.795C81 114.325 81.2107 114.834 81.5858 115.209C81.9609 115.584 82.4696 115.795 83 115.795H101C101.53 115.795 102.039 115.584 102.414 115.209C102.789 114.834 103 114.325 103 113.795Z" fill="#647787"/>
<path d="M101 127.795H89C88.4696 127.795 87.9609 128.006 87.5858 128.381C87.2107 128.756 87 129.265 87 129.795C87 130.325 87.2107 130.834 87.5858 131.209C87.9609 131.584 88.4696 131.795 89 131.795H101C101.53 131.795 102.039 131.584 102.414 131.209C102.789 130.834 103 130.325 103 129.795C103 129.265 102.789 128.756 102.414 128.381C102.039 128.006 101.53 127.795 101 127.795" fill="#647787"/>
<path d="M143 149.545C142.555 149.545 142.12 149.677 141.75 149.924C141.38 150.171 141.092 150.523 140.921 150.934C140.751 151.345 140.706 151.798 140.793 152.234C140.88 152.67 141.094 153.071 141.409 153.386C141.724 153.701 142.125 153.915 142.561 154.002C142.998 154.089 143.45 154.044 143.861 153.874C144.272 153.703 144.624 153.415 144.871 153.045C145.118 152.675 145.25 152.24 145.25 151.795C145.249 151.199 145.012 150.627 144.59 150.205C144.168 149.783 143.596 149.546 143 149.545" fill="#647787"/>
<path d="M209.004 95.795H219.518C220.048 95.795 220.557 95.5843 220.932 95.2093C221.307 94.8342 221.518 94.3255 221.518 93.795C221.518 93.2646 221.307 92.7559 220.932 92.3808C220.557 92.0058 220.048 91.795 219.518 91.795H209.004C208.474 91.795 207.965 92.0058 207.59 92.3808C207.215 92.7559 207.004 93.2646 207.004 93.795C207.004 94.3255 207.215 94.8342 207.59 95.2093C207.965 95.5843 208.474 95.795 209.004 95.795Z" fill="#647787"/>
<path d="M183.933 85.8651C183.421 85.7271 182.876 85.7979 182.416 86.0619C181.957 86.3259 181.621 86.7615 181.482 87.2731C179.526 94.3559 175.845 100.843 170.768 106.156C165.691 111.468 159.377 115.439 152.39 117.714C151.936 117.859 151.548 118.162 151.298 118.568C151.047 118.974 150.949 119.456 151.023 119.927C151.096 120.399 151.336 120.828 151.698 121.138C152.061 121.449 152.522 121.619 152.999 121.619C153.206 121.618 153.412 121.584 153.609 121.519C161.23 119.039 168.117 114.708 173.655 108.914C179.193 103.121 183.208 96.0444 185.341 88.3191C185.41 88.0655 185.428 87.8009 185.394 87.5403C185.361 87.2797 185.276 87.0283 185.145 86.8004C185.015 86.5725 184.84 86.3726 184.632 86.2121C184.424 86.0516 184.187 85.9337 183.933 85.8651Z" fill="#647787"/>
<path d="M146.244 119.367C145.799 119.367 145.364 119.499 144.994 119.746C144.624 119.993 144.336 120.345 144.165 120.756C143.995 121.167 143.95 121.62 144.037 122.056C144.124 122.492 144.338 122.893 144.653 123.208C144.968 123.523 145.369 123.737 145.805 123.824C146.242 123.911 146.694 123.866 147.105 123.696C147.516 123.525 147.868 123.237 148.115 122.867C148.362 122.497 148.494 122.062 148.494 121.617C148.493 121.021 148.256 120.449 147.834 120.027C147.412 119.605 146.84 119.368 146.244 119.367" fill="#647787"/>
<path d="M138.9 115.795C129.695 115.79 120.775 112.603 113.651 106.775C106.527 100.946 101.636 92.8338 99.8082 83.8123C97.9803 74.7908 99.3271 65.4147 103.621 57.2725C107.914 49.1304 114.89 42.7227 123.367 39.1351C133.108 35.0633 144.066 35.0177 153.841 39.0082C163.616 42.9987 171.411 50.7001 175.52 60.4259C179.628 70.1517 179.716 81.1093 175.762 90.8992C171.809 100.689 164.137 108.514 154.427 112.659C149.515 114.738 144.234 115.805 138.9 115.795ZM138.9 40.0001C131.8 40.0001 124.859 42.1056 118.955 46.0503C113.051 49.995 108.45 55.6019 105.733 62.1617C103.016 68.7216 102.305 75.9399 103.69 82.9038C105.075 89.8677 108.494 96.2645 113.515 101.285C118.536 106.306 124.932 109.725 131.896 111.11C138.86 112.495 146.078 111.785 152.638 109.067C159.198 106.35 164.805 101.749 168.75 95.845C172.694 89.9413 174.8 83.0004 174.8 75.9001C174.79 66.3819 171.004 57.2564 164.274 50.526C157.544 43.7957 148.418 40.0101 138.9 40.0001Z" fill="#647787"/>
<path d="M138.897 104.234C133.272 104.234 127.773 102.566 123.096 99.4414C118.419 96.3165 114.774 91.8748 112.621 86.678C110.468 81.4812 109.905 75.7628 111.002 70.2459C112.1 64.729 114.808 59.6614 118.786 55.6839C122.763 51.7064 127.831 48.9978 133.348 47.9004C138.865 46.8031 144.583 47.3664 149.78 49.5191C154.977 51.6718 159.418 55.3171 162.543 59.9942C165.668 64.6713 167.336 70.17 167.336 75.795C167.328 83.3349 164.329 90.5636 158.997 95.8951C153.666 101.227 146.437 104.226 138.897 104.234ZM125.003 74.134L122.179 77.127L133.737 90.488L155.616 64.395L153.15 61.101L134.05 80.877L125.003 74.137V74.134Z" fill="#009543"/>
</g>
<defs>
<clipPath id="clip0_2342_377">
<rect width="158" height="140.045" fill="white" transform="translate(81 36)"/>
</clipPath>
</defs>
</svg>
