<svg width="320" height="213" viewBox="0 0 320 213" fill="none" xmlns="http://www.w3.org/2000/svg">
<rect width="320" height="213" rx="15" fill="#E5E5E5" fill-opacity="0.3"/>
<g clip-path="url(#clip0_2342_184)">
<path d="M220.025 75.251C220.025 73.6886 219.404 72.1902 218.3 71.0854C217.195 69.9807 215.696 69.36 214.134 69.36H103.688C102.126 69.36 100.627 69.9807 99.5224 71.0854C98.4177 72.1902 97.797 73.6886 97.797 75.251V83.74H220.025V75.251Z" fill="#E1E8ED"/>
<path d="M149.725 94.524H111.592C111.271 94.524 110.962 94.6517 110.735 94.879C110.508 95.1063 110.38 95.4146 110.38 95.736V118.476C110.38 118.798 110.508 119.106 110.735 119.333C110.962 119.561 111.27 119.689 111.592 119.689H149.725C150.047 119.689 150.355 119.561 150.582 119.333C150.809 119.106 150.937 118.798 150.937 118.476V95.736C150.937 95.4146 150.809 95.1063 150.582 94.879C150.355 94.6517 150.046 94.524 149.725 94.524" fill="#009543"/>
<path d="M156.924 161.031H97.8C97.3226 161.031 96.8648 160.841 96.5272 160.504C96.1896 160.166 96 159.708 96 159.231V75.247C96.0024 73.2098 96.8127 71.2567 98.2532 69.8162C99.6937 68.3757 101.647 67.5654 103.684 67.563H214.139C216.176 67.5654 218.129 68.3757 219.569 69.8163C221.01 71.2568 221.82 73.2099 221.822 75.247V121.93C221.798 122.39 221.598 122.824 221.263 123.141C220.929 123.458 220.485 123.635 220.024 123.635C219.564 123.635 219.12 123.458 218.786 123.141C218.451 122.824 218.251 122.39 218.227 121.93V85.537H99.595V157.437H156.924C157.168 157.424 157.412 157.461 157.641 157.546C157.871 157.63 158.08 157.76 158.258 157.929C158.435 158.097 158.576 158.299 158.673 158.524C158.769 158.748 158.819 158.99 158.819 159.235C158.819 159.479 158.769 159.721 158.673 159.945C158.576 160.17 158.435 160.372 158.258 160.54C158.08 160.709 157.871 160.839 157.641 160.923C157.412 161.008 157.168 161.045 156.924 161.032V161.031ZM103.684 71.158C102.6 71.1591 101.56 71.5903 100.793 72.3571C100.026 73.1239 99.5951 74.1636 99.594 75.248V81.948H218.228V75.248C218.227 74.1638 217.796 73.1242 217.029 72.3575C216.263 71.5907 215.223 71.1593 214.139 71.158H103.684Z" fill="#647787"/>
<path d="M149.139 126.879H110.382C109.905 126.879 109.447 127.069 109.109 127.406C108.772 127.744 108.582 128.202 108.582 128.679C108.582 129.156 108.772 129.614 109.109 129.952C109.447 130.289 109.905 130.479 110.382 130.479H149.139C149.616 130.479 150.074 130.289 150.412 129.952C150.749 129.614 150.939 129.156 150.939 128.679C150.939 128.202 150.749 127.744 150.412 127.406C150.074 127.069 149.616 126.879 149.139 126.879" fill="#647787"/>
<path d="M150.937 137.667C150.937 137.19 150.747 136.732 150.41 136.394C150.072 136.057 149.614 135.867 149.137 135.867H110.383C109.924 135.894 109.493 136.094 109.178 136.428C108.863 136.763 108.687 137.205 108.687 137.664C108.687 138.123 108.863 138.565 109.178 138.9C109.493 139.234 109.924 139.434 110.383 139.461H149.143C149.62 139.461 150.078 139.271 150.416 138.934C150.753 138.596 150.943 138.138 150.943 137.661" fill="#647787"/>
<path d="M110.383 144.854C109.906 144.854 109.448 145.044 109.11 145.381C108.773 145.719 108.583 146.177 108.583 146.654C108.583 147.131 108.773 147.589 109.11 147.927C109.448 148.264 109.906 148.454 110.383 148.454H122.962C123.439 148.454 123.897 148.264 124.235 147.927C124.572 147.589 124.762 147.131 124.762 146.654C124.762 146.177 124.572 145.719 124.235 145.381C123.897 145.044 123.439 144.854 122.962 144.854H110.383Z" fill="#647787"/>
<path d="M128.357 144.854C127.88 144.854 127.422 145.044 127.084 145.381C126.747 145.719 126.557 146.177 126.557 146.654C126.557 147.131 126.747 147.589 127.084 147.927C127.422 148.264 127.88 148.454 128.357 148.454H135.547C136.024 148.454 136.482 148.264 136.82 147.927C137.157 147.589 137.347 147.131 137.347 146.654C137.347 146.177 137.157 145.719 136.82 145.381C136.482 145.044 136.024 144.854 135.547 144.854H128.357Z" fill="#647787"/>
<path d="M130.075 58.611H135.544C136.575 58.611 137.444 59.27 137.444 60.049V63.967C137.444 64.4444 137.634 64.9022 137.971 65.2398C138.309 65.5774 138.767 65.767 139.244 65.767C139.721 65.767 140.179 65.5774 140.517 65.2398C140.854 64.9022 141.044 64.4444 141.044 63.967V60.049C140.978 58.6536 140.363 57.3409 139.332 56.3978C138.302 55.4547 136.94 54.9579 135.544 55.016H130.075C129.708 55.0415 129.341 54.9608 129.018 54.7835C128.696 54.6062 128.431 54.3397 128.256 54.016C128.168 53.831 128.135 53.6241 128.163 53.421C128.191 53.2178 128.278 53.0273 128.413 52.873L156.881 29.427C158.295 28.303 159.056 28.309 160.516 29.406L189.01 52.868C189.145 53.0222 189.232 53.2125 189.26 53.4155C189.288 53.6184 189.255 53.8251 189.167 54.01C188.993 54.335 188.729 54.6028 188.406 54.7813C188.083 54.9597 187.716 55.0412 187.348 55.016H180.584C179.188 54.9579 177.826 55.4547 176.796 56.3978C175.765 57.3409 175.15 58.6536 175.084 60.049V63.967C175.084 64.4444 175.274 64.9022 175.611 65.2398C175.949 65.5774 176.407 65.767 176.884 65.767C177.361 65.767 177.819 65.5774 178.157 65.2398C178.494 64.9022 178.684 64.4444 178.684 63.967V60.049C178.684 59.27 179.555 58.611 180.584 58.611H187.348C188.409 58.6349 189.455 58.3523 190.359 57.7969C191.264 57.2416 191.989 56.4371 192.448 55.48C192.823 54.6428 192.944 53.7141 192.797 52.8088C192.649 51.9035 192.24 51.0612 191.619 50.386C191.558 50.3173 191.491 50.2538 191.419 50.196L162.74 26.581C159.917 24.459 157.346 24.469 154.621 26.631L126.003 50.199C125.931 50.2568 125.864 50.3203 125.803 50.389C125.182 51.0639 124.772 51.9062 124.624 52.8116C124.477 53.717 124.598 54.6458 124.973 55.483C125.432 56.4401 126.157 57.2446 127.062 57.7999C127.966 58.3553 129.012 58.6379 130.073 58.614" fill="#647787"/>
<path d="M187.97 42.697C188.15 42.8625 188.362 42.9895 188.593 43.0704C188.824 43.1512 189.069 43.1842 189.313 43.1672C189.557 43.1503 189.795 43.0838 190.012 42.9718C190.23 42.8597 190.422 42.7046 190.577 42.5158C190.733 42.3269 190.848 42.1084 190.916 41.8735C190.985 41.6386 191.004 41.3923 190.974 41.1495C190.944 40.9068 190.865 40.6727 190.741 40.4617C190.617 40.2506 190.452 40.067 190.255 39.922L174.429 26.89C174.058 26.617 173.597 26.4965 173.14 26.5533C172.683 26.6101 172.265 26.8399 171.972 27.1954C171.68 27.5509 171.534 28.005 171.566 28.4644C171.598 28.9238 171.805 29.3534 172.144 29.665L187.97 42.697Z" fill="#647787"/>
<path d="M193.625 47.404C194.025 47.404 194.416 47.2854 194.748 47.0632C195.081 46.8411 195.34 46.5253 195.493 46.1558C195.646 45.7863 195.686 45.3798 195.608 44.9875C195.53 44.5953 195.338 44.235 195.055 43.9522C194.772 43.6694 194.412 43.4769 194.019 43.3989C193.627 43.3208 193.221 43.3609 192.851 43.5139C192.482 43.667 192.166 43.9261 191.944 44.2586C191.722 44.5912 191.603 44.9821 191.603 45.382C191.604 45.918 191.817 46.4319 192.196 46.8109C192.575 47.1899 193.089 47.4032 193.625 47.404" fill="#647787"/>
<path d="M146.554 166.423C146.154 166.423 145.763 166.542 145.431 166.764C145.098 166.986 144.839 167.302 144.686 167.671C144.533 168.041 144.493 168.447 144.571 168.839C144.649 169.232 144.841 169.592 145.124 169.875C145.407 170.158 145.767 170.35 146.16 170.428C146.552 170.506 146.958 170.466 147.328 170.313C147.697 170.16 148.013 169.901 148.235 169.568C148.457 169.236 148.576 168.845 148.576 168.445C148.575 167.909 148.362 167.395 147.983 167.016C147.604 166.637 147.09 166.424 146.554 166.423" fill="#647787"/>
<path d="M221.634 151.765C221.622 151.473 221.552 151.186 221.427 150.922C221.275 150.589 221.11 150.344 221.013 150.163L220.919 149.963L220.911 149.945V142.699C220.962 142.547 221.025 142.398 221.097 142.255C221.189 142.051 221.262 141.839 221.315 141.622L221.783 141.411L221.634 140.635C221.586 140.396 221.546 140.116 221.459 139.792C221.405 139.598 221.333 139.409 221.244 139.228L221.281 139.104L221.022 138.715C220.913 138.548 220.774 138.403 220.612 138.286C220.448 138.172 220.263 138.09 220.069 138.043C219.863 137.9 219.634 137.793 219.392 137.726C219.161 137.667 218.924 137.639 218.686 137.642C218.592 137.642 218.519 137.649 218.436 137.653L218.39 137.579L218.158 137.203L217.195 136.86L217.104 136.682H217.011C216.441 136.74 215.877 136.845 215.325 136.996C214.593 137.167 213.907 137.493 213.312 137.952L212.912 138.333V143.384C212.905 143.487 212.877 143.588 212.828 143.679C212.779 143.77 212.711 143.85 212.629 143.913C212.435 144.095 212.178 144.196 211.912 144.196C211.646 144.196 211.389 144.095 211.195 143.913C211.113 143.85 211.045 143.77 210.996 143.679C210.947 143.588 210.918 143.487 210.911 143.384V139.131L210.995 139.119L211.829 139.004L211.858 138.162C211.87 137.939 211.895 137.718 211.932 137.498C211.979 137.224 212.007 136.946 212.014 136.668C212.014 136.659 212.014 136.649 212.014 136.64L212.073 136.472V136.294C212.082 135.32 211.757 134.371 211.151 133.608V133.608L211.061 133.469L211.049 133.451L211.036 133.433C210.55 132.792 209.901 132.294 209.157 131.988C208.455 131.677 207.698 131.512 206.931 131.502C206.184 131.515 205.443 131.636 204.731 131.86C204.349 131.974 203.987 132.145 203.657 132.368C203.467 132.499 203.303 132.663 203.171 132.852C203.002 133.095 202.91 133.384 202.908 133.68V138.241C202.901 138.344 202.873 138.445 202.824 138.536C202.775 138.627 202.707 138.707 202.625 138.77C202.431 138.952 202.174 139.053 201.908 139.053C201.642 139.053 201.385 138.952 201.191 138.77C201.109 138.706 201.041 138.625 200.993 138.532C200.945 138.44 200.917 138.338 200.911 138.234V131.997C200.92 131.968 200.974 131.849 201.062 131.664C201.134 131.493 201.191 131.316 201.232 131.135L201.616 130.875L201.493 130.23C201.273 129.146 200.659 128.182 199.771 127.523C198.908 126.861 197.853 126.499 196.765 126.491C196.042 126.502 195.325 126.623 194.638 126.85C194.27 126.966 193.924 127.14 193.611 127.365C193.43 127.499 193.274 127.665 193.151 127.853C192.997 128.091 192.914 128.369 192.912 128.653V133.22C192.905 133.323 192.877 133.424 192.828 133.515C192.779 133.606 192.711 133.686 192.629 133.749C192.435 133.931 192.178 134.033 191.912 134.033C191.646 134.033 191.389 133.931 191.195 133.749C191.113 133.686 191.045 133.606 190.996 133.515C190.948 133.424 190.918 133.324 190.911 133.221V128.977L191.44 128.939L191.447 128.017C191.491 122.75 191.792 113.773 191.792 109.612C191.792 109.339 191.911 109.087 191.911 108.858V108.81C191.911 108.462 191.816 108.179 191.844 107.963C191.858 107.854 191.81 107.763 191.823 107.681C191.836 107.599 191.823 107.543 191.823 107.366C191.822 106.154 191.348 104.99 190.501 104.123C190.08 103.692 189.577 103.349 189.021 103.116C188.466 102.882 187.869 102.763 187.266 102.765C186.663 102.764 186.065 102.883 185.508 103.116C184.951 103.348 184.446 103.689 184.022 104.118C183.169 104.983 182.691 106.15 182.693 107.365C182.693 107.832 182.766 138.62 182.767 138.965C182.767 140.9 182.708 142.549 182.593 143.894C182.527 144.933 182.359 145.963 182.093 146.969C182.05 147.114 181.968 147.244 181.855 147.344C181.742 147.445 181.603 147.512 181.454 147.537L181.32 147.548C181.192 147.548 181.065 147.517 180.951 147.459C180.837 147.4 180.738 147.316 180.663 147.212L180.57 147.079C178.366 143.965 175.996 140.971 173.47 138.111C172.97 137.507 172.341 137.023 171.628 136.695C170.892 136.383 170.098 136.231 169.299 136.249C168.676 136.25 168.06 136.383 167.491 136.639C166.922 136.894 166.414 137.267 165.999 137.732L165.927 137.805C165.863 137.835 165.741 137.888 165.61 137.947C165.496 137.997 165.386 138.055 165.281 138.121C165.084 138.237 164.921 138.402 164.809 138.601C164.8 138.632 164.609 138.861 164.397 139.16C164.272 139.336 164.166 139.525 164.08 139.723C163.971 139.977 163.914 140.25 163.911 140.526V141.391L164.603 141.564C164.622 141.601 164.641 141.639 164.656 141.67C164.707 141.77 164.749 141.84 164.775 141.891L164.802 141.947V141.958L164.893 142.265L165.037 142.376C165.245 143.04 165.516 143.683 165.844 144.296C166.238 145.054 166.689 145.811 167.106 146.538C167.406 147.058 167.712 147.543 167.951 147.983L167.961 148.001L168.125 148.275C174.025 159.175 178.815 166.361 184.115 172.228C184.813 173.185 185.255 174.304 185.401 175.48C185.741 177.461 185.933 179.464 185.975 181.473L186.035 183.035L187.428 182.326C189.252 181.476 191.192 180.904 193.185 180.626C195.538 180.26 197.917 180.081 200.298 180.093C202.666 180.082 205.032 180.258 207.372 180.619C209.359 180.895 211.294 181.462 213.116 182.301L214.545 183.018L214.645 174.368C214.646 174.233 214.68 174.1 214.745 173.982C214.94 173.673 215.175 173.391 215.445 173.145C215.824 172.771 216.356 172.305 217.052 171.715C217.452 171.38 217.839 171.048 218.184 170.731C218.512 170.445 218.807 170.124 219.064 169.774C221.386 166.323 221.828 162.293 221.83 158.388C221.83 156.118 221.678 153.872 221.623 151.769" fill="#E1E8ED"/>
<path d="M140.937 166.423H106.788C106.311 166.423 105.853 166.613 105.515 166.95C105.178 167.288 104.988 167.746 104.988 168.223C104.988 168.7 105.178 169.158 105.515 169.496C105.853 169.833 106.311 170.023 106.788 170.023H140.937C141.414 170.023 141.872 169.833 142.21 169.496C142.547 169.158 142.737 168.7 142.737 168.223C142.737 167.746 142.547 167.288 142.21 166.95C141.872 166.613 141.414 166.423 140.937 166.423" fill="#647787"/>
<path d="M214.583 187.909C214.103 187.908 213.642 187.717 213.302 187.378C212.963 187.038 212.772 186.577 212.771 186.097C212.771 185.561 211.702 184.655 209.354 183.933C206.16 183.072 202.862 182.662 199.554 182.714C190.876 182.714 186.336 184.914 186.336 186.096C186.342 186.337 186.299 186.578 186.211 186.802C186.122 187.027 185.99 187.232 185.821 187.405C185.652 187.577 185.45 187.715 185.228 187.809C185.005 187.902 184.766 187.951 184.525 187.951C184.283 187.951 184.044 187.902 183.821 187.809C183.599 187.715 183.397 187.577 183.228 187.405C183.059 187.232 182.927 187.027 182.838 186.802C182.75 186.578 182.707 186.337 182.713 186.096C182.713 185.936 182.721 185.776 182.738 185.617C182.738 185.597 182.732 185.576 182.729 185.556C182.721 185.513 182.716 185.47 182.714 185.426C182.703 185.107 182.694 184.778 182.686 184.421L182.675 183.858C182.533 176.311 181.834 174.433 181.429 173.986C175.996 167.973 171.105 160.651 165.075 149.505L164.928 149.24C164.686 148.793 164.421 148.332 164.165 147.885L164.144 147.849C163.107 146.234 162.304 144.48 161.76 142.64C161.577 142.007 161.483 141.35 161.483 140.691C161.483 140.632 161.483 140.577 161.489 140.526C161.454 139.412 161.712 138.309 162.237 137.326C162.519 136.818 162.879 136.357 163.304 135.961C163.966 135.226 164.775 134.639 165.679 134.236C166.582 133.833 167.56 133.624 168.549 133.622C169.721 133.585 170.885 133.816 171.954 134.297C173.023 134.778 173.968 135.497 174.717 136.399C176.599 138.586 178.071 140.366 179.347 141.999C179.388 141.085 179.409 140.062 179.409 138.959C179.409 137.803 179.351 107.977 179.351 107.359C179.34 106.403 179.518 105.454 179.876 104.568C180.234 103.681 180.765 102.875 181.437 102.195C182.109 101.515 182.909 100.975 183.792 100.606C184.674 100.238 185.62 100.048 186.577 100.048C187.533 100.048 188.479 100.238 189.361 100.606C190.244 100.975 191.044 101.515 191.716 102.195C192.388 102.875 192.919 103.681 193.277 104.568C193.635 105.454 193.813 106.403 193.802 107.359C193.802 107.484 193.802 107.992 193.812 108.831V109.213C193.834 112.401 193.88 119.029 193.874 124.356C194.845 123.977 195.887 123.812 196.927 123.874C197.968 123.935 198.983 124.221 199.903 124.711C200.822 125.202 201.625 125.886 202.256 126.716C202.886 127.546 203.33 128.502 203.556 129.52C204.499 129.086 205.525 128.862 206.563 128.864C207.697 128.867 208.815 129.136 209.827 129.649C210.838 130.163 211.715 130.906 212.387 131.82C213.11 132.664 213.613 133.673 213.85 134.759C214.765 134.431 215.732 134.268 216.704 134.277C216.804 134.277 216.911 134.277 217.032 134.291H217.06C218.14 134.282 219.206 134.544 220.158 135.055C221.11 135.565 221.919 136.306 222.51 137.211C223.137 138.059 223.571 139.034 223.783 140.067C224.015 140.92 224.135 141.799 224.14 142.682V149.91C224.152 150.488 224.168 151.086 224.183 151.665V151.696C224.35 158.048 224.54 165.248 220.498 171.239C219.779 172.169 218.942 173.002 218.007 173.715C217.307 174.307 216.807 174.753 216.516 175.04L216.393 185.397C216.391 185.455 216.385 185.512 216.376 185.569C216.376 185.586 216.376 185.603 216.369 185.621C216.385 185.787 216.393 185.944 216.393 186.099C216.392 186.579 216.201 187.038 215.862 187.378C215.522 187.717 215.063 187.908 214.583 187.909V187.909ZM168.549 137.249C168.058 137.25 167.573 137.355 167.127 137.559C166.681 137.763 166.283 138.06 165.961 138.43C165.912 138.486 165.859 138.538 165.804 138.588C165.644 138.728 165.508 138.894 165.404 139.079C165.177 139.526 165.074 140.025 165.104 140.525C165.104 140.553 165.104 140.582 165.104 140.61C165.104 140.638 165.104 140.683 165.104 140.727C165.108 141.046 165.156 141.363 165.248 141.669C165.259 141.708 165.269 141.745 165.278 141.784C165.753 143.286 166.428 144.717 167.283 146.04L167.368 146.188C167.617 146.622 167.874 147.071 168.11 147.505L168.258 147.778C174.143 158.656 178.886 165.767 184.115 171.558C185.385 172.963 186.015 175.917 186.229 181.436C190.239 179.396 196.297 179.091 199.551 179.091C202.782 179.091 208.803 179.391 212.816 181.405L212.9 174.354C212.904 174.053 212.982 173.757 213.129 173.494C213.837 172.521 214.692 171.663 215.663 170.952L215.683 170.94C216.347 170.429 216.955 169.851 217.499 169.214C220.892 164.184 220.718 157.603 220.565 151.796V151.732C220.55 151.151 220.534 150.551 220.522 149.966V142.681C220.517 142.1 220.434 141.522 220.277 140.963C220.265 140.919 220.254 140.872 220.245 140.824C220.142 140.29 219.917 139.787 219.589 139.354C219.568 139.327 219.548 139.299 219.529 139.269C219.348 138.985 219.122 138.732 218.86 138.521C218.336 138.124 217.695 137.913 217.038 137.921H217.011H216.911L216.789 137.914H216.768C216.747 137.914 216.726 137.914 216.705 137.914C215.734 137.864 214.781 138.196 214.05 138.837V143.388C214.056 143.63 214.013 143.87 213.924 144.095C213.836 144.32 213.703 144.525 213.534 144.697C213.366 144.87 213.164 145.008 212.941 145.101C212.718 145.195 212.479 145.244 212.238 145.244C211.996 145.244 211.757 145.195 211.534 145.101C211.311 145.008 211.109 144.87 210.941 144.697C210.772 144.525 210.639 144.32 210.551 144.095C210.462 143.87 210.419 143.63 210.425 143.388V138.189C210.425 138.186 210.425 138.183 210.425 138.18C210.425 138.177 210.425 138.174 210.425 138.171C210.425 138.165 210.425 138.159 210.425 138.153C210.424 138.145 210.424 138.136 210.425 138.128V138.111C210.458 137.571 210.454 137.03 210.413 136.491C210.405 136.428 210.4 136.365 210.399 136.302C210.405 135.51 210.12 134.743 209.599 134.147C209.555 134.097 209.517 134.047 209.488 134.008C209.178 133.57 208.773 133.207 208.303 132.947C207.834 132.686 207.312 132.534 206.777 132.502C206.241 132.469 205.704 132.558 205.207 132.76C204.71 132.963 204.265 133.274 203.904 133.672V138.234C203.904 138.715 203.713 139.175 203.373 139.515C203.033 139.855 202.573 140.046 202.092 140.046C201.611 140.046 201.151 139.855 200.811 139.515C200.471 139.175 200.28 138.715 200.28 138.234V133.063C200.28 133.06 200.28 133.057 200.28 133.054C200.28 133.051 200.28 133.048 200.28 133.045V131.945C200.277 131.482 200.21 131.022 200.08 130.578C200.064 130.524 200.05 130.469 200.04 130.414C199.916 129.759 199.612 129.152 199.163 128.659C198.713 128.167 198.136 127.81 197.495 127.627C196.854 127.444 196.174 127.443 195.533 127.624C194.891 127.805 194.313 128.161 193.862 128.652V133.22C193.862 133.701 193.671 134.161 193.331 134.501C192.991 134.841 192.531 135.032 192.05 135.032C191.569 135.032 191.109 134.841 190.769 134.501C190.429 134.161 190.238 133.701 190.238 133.22V128.047C190.238 128.04 190.238 128.034 190.238 128.027C190.238 128.02 190.238 128.014 190.238 128.007C190.283 122.44 190.213 112.658 190.183 108.974V108.864C190.183 108.511 190.183 108.211 190.177 107.973V107.949C190.177 107.64 190.177 107.439 190.177 107.366C190.177 106.411 189.798 105.496 189.123 104.82C188.447 104.145 187.532 103.766 186.577 103.766C185.622 103.766 184.707 104.145 184.031 104.82C183.356 105.496 182.977 106.411 182.977 107.366C182.977 107.613 182.994 116.779 183.009 124.866V125.566C183.022 132.383 183.033 138.822 183.033 138.966C183.146 141.75 182.903 144.537 182.311 147.259C182.213 147.582 182.027 147.87 181.774 148.093C181.521 148.316 181.211 148.464 180.878 148.52C180.546 148.576 180.205 148.538 179.892 148.411C179.58 148.284 179.31 148.072 179.111 147.8L179.011 147.653C176.827 144.568 174.479 141.602 171.977 138.769C171.567 138.262 171.043 137.859 170.447 137.595C169.85 137.331 169.2 137.212 168.549 137.249V137.249Z" fill="#647787"/>
</g>
<defs>
<clipPath id="clip0_2342_184">
<rect width="128.255" height="162.909" fill="white" transform="translate(96 25)"/>
</clipPath>
</defs>
</svg>
