<svg id="Capa_1" data-name="Capa 1" xmlns="http://www.w3.org/2000/svg" viewBox="0 0 38.09 50"><defs><style>.cls-1{fill:#461670;}.cls-2{fill:#b76ef6;}</style></defs><path class="cls-1" d="M10.35,50h29.3A4.4,4.4,0,0,0,44,45.61v-31H33.79a4.41,4.41,0,0,1-4.4-4.4V0h-19A4.4,4.4,0,0,0,6,4.39V45.61A4.4,4.4,0,0,0,10.35,50Zm5.86-29.39H33.79a1.47,1.47,0,0,1,0,2.93H16.21a1.47,1.47,0,0,1,0-2.93Zm0,5.85H33.79a1.47,1.47,0,0,1,0,2.93H16.21a1.47,1.47,0,0,1,0-2.93Zm0,5.86H33.79a1.47,1.47,0,0,1,0,2.93H16.21a1.47,1.47,0,0,1,0-2.93Zm0,5.86H27.93a1.47,1.47,0,0,1,0,2.93H16.21a1.47,1.47,0,0,1,0-2.93Z" transform="translate(-5.96)"/><path class="cls-2" d="M33.79,11.72h9.39L32.32.86v9.39A1.47,1.47,0,0,0,33.79,11.72Z" transform="translate(-5.96)"/></svg>