<svg id="Capa_1" data-name="Capa 1" xmlns="http://www.w3.org/2000/svg" viewBox="0 0 20 20"><defs><style>.cls-1{fill:#0c9447;}</style></defs><path class="cls-1" d="M10,0A10,10,0,1,0,20,10,10,10,0,0,0,10,0Zm.61,14.45v1.16a.32.32,0,0,1-.33.31H9.51a.31.31,0,0,1-.32-.31v-1a7.09,7.09,0,0,1-2-.39.61.61,0,0,1-.38-.73L7,13a.62.62,0,0,1,.32-.4.65.65,0,0,1,.51,0,4.89,4.89,0,0,0,1.77.35c.83,0,1.4-.32,1.4-.9s-.46-.91-1.54-1.27C7.86,10.17,6.79,9.45,6.79,8A2.7,2.7,0,0,1,9.25,5.44V4.39a.34.34,0,0,1,.34-.34h.77a.33.33,0,0,1,.31.34v1a5.94,5.94,0,0,1,1.58.26.63.63,0,0,1,.41.75l-.11.43a.64.64,0,0,1-.31.39.6.6,0,0,1-.49,0A4.38,4.38,0,0,0,10.28,7C9.33,7,9,7.38,9,7.79s.51.78,1.75,1.25c1.73.61,2.43,1.41,2.43,2.72A2.79,2.79,0,0,1,10.61,14.45Z"/></svg>