<svg width="80" height="80" viewBox="0 0 80 80" fill="none" xmlns="http://www.w3.org/2000/svg">
<path d="M71.2281 72.5053C58.9867 82.4983 20.7635 82.4983 8.77191 72.5053C-3.4695 62.5123 -2.2204 19.7923 8.77191 8.55023C19.7642 -2.69187 60.2358 -2.69187 71.2281 8.55023C82.2204 19.7923 83.4695 62.5125 71.2281 72.5053Z" fill="#0C9447"/>
<path opacity="0.2" d="M40.25 55.0175C29.2577 63.7614 17.0163 68.2583 5.52439 68.508C-2.96972 54.0182 -1.22087 18.793 8.77213 8.55026C17.7658 -0.693204 45.9959 -2.44205 62.2346 3.30389C66.2317 19.7924 57.9876 40.7775 40.25 55.0175Z" fill="white"/>
<path d="M34.2541 62.2623C32.5052 62.2623 30.7566 61.5128 29.7572 60.0139L15.7672 42.0266C13.7685 39.5283 14.2683 36.0308 16.7665 34.0322C19.2647 32.0336 22.7622 32.5333 24.7608 35.0315L34.2541 47.2729L55.2394 20.0421C57.238 17.5439 60.7355 17.0442 63.2337 19.0428C65.7319 21.0414 66.2317 24.5389 64.2331 27.0371L38.7509 60.0139C37.5018 61.263 36.0029 62.2623 34.2541 62.2623Z" fill="white"/>
</svg>
