<svg xmlns="http://www.w3.org/2000/svg" version="1.1" xmlns:xlink="http://www.w3.org/1999/xlink" xmlns:svgjs="http://svgjs.com/svgjs" width="512" height="512" x="0" y="0" viewBox="0 0 448 448" style="enable-background:new 0 0 512 512" xml:space="preserve"><g><path d="M72 112h49.36a23.641 23.641 0 0 1 16.96 7.04L152 132.718V120a8 8 0 0 1 8-8h40a8 8 0 0 0 8-8V40a8 8 0 0 0-8-8H72a8 8 0 0 0-8 8v64a8 8 0 0 0 8 8zm88-48h16v16h-16zm-32 0h16v16h-16zm-32 0h16v16H96zM440 120H296a8 8 0 0 0-8 8v80a8 8 0 0 0 8 8h32a8 8 0 0 1 8 8v12.719l18.32-18.399A8.263 8.263 0 0 1 360 216h80a8 8 0 0 0 8-8v-80a8 8 0 0 0-8-8zm-96 56h-16v-16h16zm32 0h-16v-16h16zm32 0h-16v-16h16zM280 80h40a8 8 0 0 1 8 8v12.719l13.68-13.68A23.641 23.641 0 0 1 358.64 80H408a8 8 0 0 0 8-8V8a8 8 0 0 0-8-8H280a8 8 0 0 0-8 8v64a8 8 0 0 0 8 8zm88-48h16v16h-16zm-32 0h16v16h-16zm-32 0h16v16h-16zM240 368a55.654 55.654 0 0 1-16-2.398V376a7.915 7.915 0 0 1-2.793 5.945L240 397.602l18.793-15.649A7.911 7.911 0 0 1 256 376v-10.398A55.654 55.654 0 0 1 240 368zm0 0" fill="#0c9447" data-original="#000000"></path><path d="M314.512 398.031 276.8 387.77l-31.68 26.398a8.008 8.008 0 0 1-10.242 0l-31.68-26.398-37.734 10.27c-17.363 4.808-29.406 20.585-29.465 38.6V448h24v-24h16v24h128v-24h16v24h24v-11.36c-.066-18.023-12.117-33.804-29.488-38.609zM192 272v16h8a56.278 56.278 0 0 0 44.8-22.398l4.802-6.403a7.998 7.998 0 0 1 8-3.039 8.01 8.01 0 0 1 6.175 5.902l3.453 13.817A16.004 16.004 0 0 0 282.734 288H288v-16c0-26.508-21.492-48-48-48s-48 21.492-48 48zm0 0" fill="#0c9447" data-original="#000000"></path><path d="M280 312v-8.223a31.87 31.87 0 0 1-27.8-22.175A72.35 72.35 0 0 1 200 304v8c0 22.09 17.91 40 40 40s40-17.91 40-40zM160 272v-80a8 8 0 0 0-8-8H8a8 8 0 0 0-8 8v80a8 8 0 0 0 8 8h80a8.263 8.263 0 0 1 5.68 2.32L112 300.72V288a8 8 0 0 1 8-8h32a8 8 0 0 0 8-8zM56 240H40v-16h16zm32 0H72v-16h16zm32 0h-16v-16h16zm0 0" fill="#0c9447" data-original="#000000"></path></g></svg>