<svg width="320" height="213" viewBox="0 0 320 213" fill="none" xmlns="http://www.w3.org/2000/svg">
<rect width="320" height="213" rx="15" fill="#E5E5E5" fill-opacity="0.3"/>
<g clip-path="url(#clip0_2380_2)">
<path d="M160 112.156C155.443 112.151 151.074 110.339 147.852 107.117C144.63 103.894 142.818 99.5256 142.812 94.9688V91.5312C142.812 86.9728 144.623 82.6011 147.847 79.3779C151.07 76.1546 155.442 74.3438 160 74.3438C164.558 74.3438 168.93 76.1546 172.153 79.3779C175.377 82.6011 177.188 86.9728 177.188 91.5312V94.9688C177.182 99.5256 175.37 103.894 172.148 107.117C168.926 110.339 164.557 112.151 160 112.156V112.156ZM160 77.7812C156.355 77.7853 152.86 79.2353 150.282 81.8131C147.704 84.3908 146.254 87.8858 146.25 91.5312V94.9688C146.25 98.6155 147.699 102.113 150.277 104.691C152.856 107.27 156.353 108.719 160 108.719C163.647 108.719 167.144 107.27 169.723 104.691C172.301 102.113 173.75 98.6155 173.75 94.9688V91.5312C173.746 87.8858 172.296 84.3908 169.718 81.8131C167.14 79.2353 163.645 77.7853 160 77.7812Z" fill="#647787"/>
<path d="M129.062 139.656C128.607 139.656 128.169 139.475 127.847 139.153C127.525 138.831 127.344 138.393 127.344 137.938V125.92C127.344 124.021 127.972 122.176 129.131 120.672C130.291 119.169 131.915 118.091 133.751 117.608C142.314 115.289 151.13 114.035 160 113.875C168.87 114.035 177.686 115.289 186.249 117.608C188.085 118.091 189.709 119.169 190.869 120.672C192.028 122.176 192.656 124.021 192.656 125.92V129.344C192.656 129.8 192.475 130.237 192.153 130.559C191.831 130.881 191.393 131.062 190.938 131.062C190.482 131.062 190.044 130.881 189.722 130.559C189.4 130.237 189.219 129.8 189.219 129.344V125.92C189.219 124.782 188.842 123.676 188.148 122.775C187.454 121.873 186.481 121.227 185.381 120.936C177.097 118.709 168.575 117.493 160 117.312C151.425 117.492 142.903 118.708 134.619 120.934C133.519 121.225 132.546 121.872 131.852 122.774C131.157 123.676 130.781 124.782 130.781 125.92V137.938C130.781 138.393 130.6 138.831 130.278 139.153C129.956 139.475 129.518 139.656 129.062 139.656Z" fill="#647787"/>
<path d="M207.549 132.781C207.28 132.782 207.014 132.718 206.774 132.596C206.367 132.39 206.059 132.03 205.918 131.597C205.776 131.164 205.812 130.692 206.018 130.286C210.716 120.986 212.49 110.481 211.104 100.154C209.719 89.8273 205.24 80.1617 198.256 72.4291C197.95 72.0908 197.791 71.6449 197.814 71.1895C197.837 70.734 198.04 70.3063 198.378 70.0005C198.716 69.6946 199.162 69.5356 199.618 69.5585C200.073 69.5814 200.501 69.7843 200.807 70.1225C208.256 78.3712 213.034 88.6819 214.511 99.6979C215.989 110.714 214.097 121.919 209.084 131.839C208.94 132.123 208.721 132.361 208.45 132.527C208.179 132.694 207.867 132.782 207.549 132.781V132.781Z" fill="#647787"/>
<path d="M195.724 69.1875C195.298 69.1877 194.887 69.0297 194.571 68.744C187.072 61.9719 177.749 57.5501 167.76 56.027C157.771 54.5039 147.555 55.9466 138.378 60.1761C137.964 60.3675 137.491 60.3867 137.063 60.2294C136.635 60.0721 136.287 59.7512 136.096 59.3373C135.904 58.9234 135.885 58.4504 136.042 58.0224C136.2 57.5943 136.52 57.2463 136.934 57.0548C146.724 52.5433 157.622 51.0044 168.277 52.6289C178.933 54.2534 188.877 58.9699 196.878 66.1934C197.135 66.4264 197.316 66.7319 197.397 67.0699C197.478 67.4079 197.454 67.7623 197.329 68.0865C197.204 68.4108 196.984 68.6895 196.698 68.8861C196.411 69.0826 196.072 69.1877 195.724 69.1875Z" fill="#647787"/>
<path d="M147.969 160.635C147.838 160.635 147.708 160.621 147.58 160.592C135.448 157.831 124.618 151.017 116.878 141.275C109.137 131.532 104.948 119.443 105 107C105 104.628 105.152 102.258 105.454 99.905C105.483 99.6811 105.555 99.4651 105.668 99.2693C105.78 99.0735 105.93 98.9017 106.109 98.7638C106.287 98.6259 106.492 98.5246 106.71 98.4656C106.927 98.4066 107.155 98.3911 107.379 98.42C107.603 98.4489 107.819 98.5216 108.014 98.634C108.21 98.7464 108.382 98.8962 108.52 99.075C108.658 99.2537 108.759 99.4579 108.818 99.6758C108.877 99.8937 108.893 100.121 108.864 100.345C108.579 102.552 108.437 104.775 108.437 107C108.388 118.665 112.315 129.999 119.572 139.132C126.829 148.265 136.981 154.653 148.355 157.241C148.768 157.335 149.131 157.578 149.376 157.923C149.62 158.268 149.729 158.691 149.681 159.111C149.633 159.531 149.432 159.919 149.116 160.2C148.8 160.482 148.392 160.637 147.969 160.635V160.635Z" fill="#647787"/>
<path d="M213.281 162H154.844C154.388 162 153.951 161.819 153.628 161.497C153.306 161.174 153.125 160.737 153.125 160.281V136.219C153.125 135.763 153.306 135.326 153.628 135.003C153.951 134.681 154.388 134.5 154.844 134.5H213.281C213.737 134.5 214.174 134.681 214.497 135.003C214.819 135.326 215 135.763 215 136.219V160.281C215 160.737 214.819 161.174 214.497 161.497C214.174 161.819 213.737 162 213.281 162ZM156.562 158.562H211.562V137.938H156.562V158.562Z" fill="#647787"/>
<path d="M166.875 155.125C166.419 155.125 165.982 154.944 165.66 154.622C165.337 154.299 165.156 153.862 165.156 153.406V143.094C165.156 142.638 165.337 142.201 165.66 141.878C165.982 141.556 166.419 141.375 166.875 141.375C167.331 141.375 167.768 141.556 168.09 141.878C168.413 142.201 168.594 142.638 168.594 143.094V153.406C168.594 153.862 168.413 154.299 168.09 154.622C167.768 154.944 167.331 155.125 166.875 155.125Z" fill="#E1E8ED"/>
<path d="M172.031 152.547C171.766 152.55 171.504 152.491 171.265 152.375L160.952 147.219C160.544 147.015 160.234 146.658 160.089 146.225C159.945 145.792 159.978 145.32 160.182 144.912C160.386 144.504 160.743 144.194 161.176 144.049C161.609 143.905 162.081 143.938 162.489 144.142L172.801 149.298C173.144 149.474 173.417 149.759 173.578 150.108C173.739 150.457 173.779 150.85 173.69 151.225C173.601 151.599 173.39 151.932 173.089 152.172C172.788 152.412 172.416 152.544 172.031 152.547V152.547Z" fill="#E1E8ED"/>
<path d="M161.719 152.547C161.328 152.552 160.947 152.423 160.639 152.182C160.331 151.942 160.114 151.603 160.025 151.223C159.935 150.842 159.978 150.443 160.146 150.09C160.314 149.737 160.597 149.452 160.949 149.281L171.261 144.125C171.669 143.921 172.141 143.888 172.574 144.032C172.788 144.104 172.986 144.217 173.157 144.365C173.327 144.513 173.467 144.693 173.568 144.895C173.669 145.097 173.729 145.317 173.745 145.542C173.761 145.767 173.732 145.994 173.661 146.208C173.589 146.422 173.476 146.62 173.328 146.79C173.18 146.961 173 147.101 172.798 147.202L162.485 152.358C162.248 152.479 161.985 152.544 161.719 152.547Z" fill="#E1E8ED"/>
<path d="M184.062 155.125C183.607 155.125 183.169 154.944 182.847 154.622C182.525 154.299 182.344 153.862 182.344 153.406V143.094C182.344 142.638 182.525 142.201 182.847 141.878C183.169 141.556 183.607 141.375 184.062 141.375C184.518 141.375 184.956 141.556 185.278 141.878C185.6 142.201 185.781 142.638 185.781 143.094V153.406C185.781 153.862 185.6 154.299 185.278 154.622C184.956 154.944 184.518 155.125 184.062 155.125Z" fill="#E1E8ED"/>
<path d="M189.219 152.547C188.953 152.55 188.691 152.491 188.452 152.375L178.14 147.219C177.732 147.015 177.421 146.658 177.277 146.225C177.133 145.792 177.166 145.32 177.37 144.912C177.573 144.504 177.931 144.194 178.364 144.049C178.796 143.905 179.268 143.938 179.676 144.142L189.989 149.298C190.331 149.474 190.605 149.759 190.766 150.108C190.927 150.457 190.966 150.85 190.878 151.225C190.789 151.599 190.577 151.932 190.277 152.172C189.976 152.412 189.603 152.544 189.219 152.547V152.547Z" fill="#E1E8ED"/>
<path d="M178.906 152.547C178.515 152.552 178.135 152.423 177.827 152.182C177.519 151.942 177.302 151.603 177.212 151.223C177.123 150.842 177.165 150.443 177.333 150.09C177.501 149.737 177.784 149.452 178.136 149.281L188.449 144.125C188.857 143.921 189.329 143.888 189.762 144.032C189.976 144.104 190.174 144.217 190.344 144.365C190.515 144.513 190.654 144.693 190.755 144.895C190.856 145.097 190.916 145.317 190.932 145.542C190.948 145.767 190.92 145.994 190.848 146.208C190.777 146.422 190.664 146.62 190.516 146.79C190.367 146.961 190.187 147.101 189.985 147.202L179.673 152.358C179.435 152.479 179.173 152.544 178.906 152.547Z" fill="#E1E8ED"/>
<path d="M201.25 155.125C200.794 155.125 200.357 154.944 200.035 154.622C199.712 154.299 199.531 153.862 199.531 153.406V143.094C199.531 142.638 199.712 142.201 200.035 141.878C200.357 141.556 200.794 141.375 201.25 141.375C201.706 141.375 202.143 141.556 202.465 141.878C202.788 142.201 202.969 142.638 202.969 143.094V153.406C202.969 153.862 202.788 154.299 202.465 154.622C202.143 154.944 201.706 155.125 201.25 155.125Z" fill="#E1E8ED"/>
<path d="M206.406 152.547C206.141 152.55 205.879 152.491 205.64 152.375L195.327 147.219C194.919 147.015 194.609 146.658 194.464 146.225C194.32 145.792 194.353 145.32 194.557 144.912C194.761 144.504 195.118 144.194 195.551 144.049C195.984 143.905 196.456 143.938 196.864 144.142L207.176 149.298C207.519 149.474 207.792 149.759 207.953 150.108C208.114 150.457 208.154 150.85 208.065 151.225C207.976 151.599 207.765 151.932 207.464 152.172C207.163 152.412 206.791 152.544 206.406 152.547V152.547Z" fill="#E1E8ED"/>
<path d="M196.094 152.547C195.703 152.552 195.322 152.423 195.014 152.182C194.706 151.942 194.489 151.603 194.4 151.223C194.31 150.842 194.353 150.443 194.521 150.09C194.689 149.737 194.972 149.452 195.324 149.281L205.636 144.125C205.838 144.024 206.058 143.964 206.283 143.948C206.509 143.932 206.735 143.961 206.949 144.032C207.163 144.104 207.361 144.217 207.532 144.365C207.702 144.513 207.842 144.693 207.943 144.895C208.044 145.097 208.104 145.317 208.12 145.542C208.136 145.767 208.107 145.994 208.036 146.208C207.964 146.422 207.851 146.62 207.703 146.79C207.555 146.961 207.375 147.101 207.173 147.202L196.86 152.358C196.623 152.479 196.36 152.544 196.094 152.547Z" fill="#E1E8ED"/>
<path d="M127.344 100.125H117.031C113.841 100.121 110.783 98.8526 108.528 96.5971C106.272 94.3416 105.004 91.2835 105 88.0938V72.625C105 71.2575 105.543 69.946 106.51 68.979C107.477 68.012 108.789 67.4688 110.156 67.4688H134.219C135.586 67.4688 136.898 68.012 137.865 68.979C138.832 69.946 139.375 71.2575 139.375 72.625V76.0625C139.375 76.5183 139.194 76.9555 138.872 77.2778C138.549 77.6002 138.112 77.7812 137.656 77.7812C137.2 77.7812 136.763 77.6002 136.441 77.2778C136.119 76.9555 135.938 76.5183 135.938 76.0625V72.625C135.938 72.1692 135.756 71.732 135.434 71.4097C135.112 71.0873 134.675 70.9062 134.219 70.9062H110.156C109.7 70.9062 109.263 71.0873 108.941 71.4097C108.619 71.732 108.438 72.1692 108.438 72.625V88.0938C108.44 90.3721 109.347 92.5564 110.958 94.1674C112.569 95.7785 114.753 96.6848 117.031 96.6875H127.344C129.622 96.6848 131.806 95.7785 133.417 94.1674C135.028 92.5564 135.935 90.3721 135.938 88.0938V81.2188C135.938 80.7629 136.119 80.3257 136.441 80.0034C136.763 79.6811 137.2 79.5 137.656 79.5C138.112 79.5 138.549 79.6811 138.872 80.0034C139.194 80.3257 139.375 80.7629 139.375 81.2188V88.0938C139.371 91.2835 138.103 94.3416 135.847 96.5971C133.592 98.8526 130.534 100.121 127.344 100.125V100.125Z" fill="#009543"/>
<path d="M122.188 86.375C121.732 86.375 121.294 86.1939 120.972 85.8716C120.65 85.5493 120.469 85.1121 120.469 84.6562V79.5C120.469 79.0442 120.65 78.607 120.972 78.2847C121.294 77.9623 121.732 77.7812 122.188 77.7812C122.643 77.7812 123.081 77.9623 123.403 78.2847C123.725 78.607 123.906 79.0442 123.906 79.5V84.6562C123.906 85.1121 123.725 85.5493 123.403 85.8716C123.081 86.1939 122.643 86.375 122.188 86.375Z" fill="#009543"/>
<path d="M132.5 70.9062H111.875C111.419 70.9062 110.982 70.7252 110.66 70.4028C110.337 70.0805 110.156 69.6433 110.156 69.1875V64.0312C110.156 60.8404 111.424 57.7802 113.68 55.5239C115.936 53.2676 118.997 52 122.188 52C125.378 52 128.439 53.2676 130.695 55.5239C132.951 57.7802 134.219 60.8404 134.219 64.0312V69.1875C134.219 69.6433 134.038 70.0805 133.715 70.4028C133.393 70.7252 132.956 70.9062 132.5 70.9062ZM113.594 67.4688H130.781V64.0312C130.781 61.752 129.876 59.5662 128.264 57.9546C126.653 56.3429 124.467 55.4375 122.188 55.4375C119.908 55.4375 117.722 56.3429 116.111 57.9546C114.499 59.5662 113.594 61.752 113.594 64.0312V67.4688Z" fill="#009543"/>
</g>
<defs>
<clipPath id="clip0_2380_2">
<rect width="110" height="110" fill="white" transform="translate(105 52)"/>
</clipPath>
</defs>
</svg>
