<svg width="45" height="45" viewBox="0 0 45 45" fill="none" xmlns="http://www.w3.org/2000/svg">
<g clip-path="url(#clip0_2348_422)">
<path d="M22.5 0C10.094 0 0 10.094 0 22.5C0 34.906 10.094 45 22.5 45C34.906 45 45 34.906 45 22.5C45 10.094 34.906 0 22.5 0ZM35.0752 16.5789L20.6955 30.8459C19.8496 31.6917 18.4962 31.7481 17.594 30.9023L9.9812 23.9662C9.07895 23.1203 9.02256 21.7105 9.81203 20.8083C10.6579 19.906 12.0677 19.8496 12.9699 20.6955L19.0038 26.2218L31.8609 13.3647C32.7632 12.4624 34.1729 12.4624 35.0752 13.3647C35.9774 14.2669 35.9774 15.6767 35.0752 16.5789Z" fill="white"/>
</g>
<defs>
<clipPath id="clip0_2348_422">
<rect width="45" height="45" fill="white"/>
</clipPath>
</defs>
</svg>
