<svg xmlns="http://www.w3.org/2000/svg" version="1.1" xmlns:xlink="http://www.w3.org/1999/xlink" xmlns:svgjs="http://svgjs.com/svgjs" width="512" height="512" x="0" y="0" viewBox="0 0 400.001 400.001" style="enable-background:new 0 0 512 512" xml:space="preserve"><g><path d="M200.012 105.625c-27.538 0-42.778 14.27-42.5 41.767.403 37.659 16.406 60.504 42.5 60.106 0 0 42.479 1.722 42.479-60.106-.001-27.497-14.35-41.767-42.479-41.767z" fill="#0c9447" data-original="#000000"></path><path d="M347.671 305.49c-5.518 0-10.81.955-15.729 2.69l-20.568-20.567c19.024-24.133 30.391-54.569 30.391-87.614s-11.364-63.481-30.391-87.615l20.568-20.568a47.163 47.163 0 0 0 15.729 2.692c26.099 0 47.253-21.156 47.253-47.256C394.924 21.156 373.77 0 347.671 0c-26.097 0-47.256 21.156-47.256 47.253a47.17 47.17 0 0 0 2.692 15.731l-21.299 21.299c-23.131-16.397-51.361-26.047-81.81-26.047-30.447 0-58.679 9.649-81.809 26.047L96.892 62.984a47.17 47.17 0 0 0 2.692-15.731C99.584 21.156 78.425 0 52.328 0S5.076 21.156 5.076 47.253c0 26.101 21.156 47.256 47.253 47.256 5.518 0 10.81-.955 15.731-2.692l20.568 20.568C69.604 136.519 58.237 166.955 58.237 200s11.366 63.48 30.391 87.615L68.06 308.183a47.166 47.166 0 0 0-15.731-2.691c-26.098 0-47.253 21.155-47.253 47.257 0 26.097 21.156 47.253 47.253 47.253s47.256-21.156 47.256-47.253c0-5.521-.955-10.811-2.692-15.73l21.298-21.3c23.13 16.397 51.362 26.047 81.809 26.047 30.447 0 58.68-9.647 81.81-26.047l21.299 21.3a47.178 47.178 0 0 0-2.692 15.73c0 26.097 21.159 47.253 47.256 47.253 26.099 0 47.253-21.156 47.253-47.253-.002-26.103-21.157-47.259-47.255-47.259zm-59.513-32.428c-1.585-15.338-4.884-33.75-13.01-36.98l-42.445-16.923-9.939-8.376a6.614 6.614 0 0 0-8.938.366l-13.818 13.741-13.859-13.746a6.616 6.616 0 0 0-8.931-.361l-9.94 8.376-42.446 16.925c-8.122 3.235-11.414 21.64-12.994 36.974-16.449-19.823-26.339-45.284-26.339-73.057 0-63.236 51.264-114.5 114.5-114.5s114.5 51.264 114.5 114.5c0 27.772-9.892 53.235-26.341 73.061z" fill="#0c9447" data-original="#000000"></path></g></svg>